<?xml version="1.0" encoding="UTF-8"?>
<svg width="545px" height="103px" viewBox="0 0 545 103" version="1.1" xmlns="http://www.w3.org/2000/svg" xmlns:xlink="http://www.w3.org/1999/xlink">
    <!-- Generator: Sketch 45.2 (43514) - http://www.bohemiancoding.com/sketch -->
    <title>Logo</title>
    <desc>Created with Sketch.</desc>
    <defs>
        <polygon id="path-1" points="0.109351686 75.115775 192.03488 75.115775 192.03488 0.074884225 0.109351686 0.074884225"></polygon>
    </defs>
    <g id="Page-1" stroke="none" stroke-width="1" fill="none" fill-rule="evenodd">
        <g id="Artboard-2" transform="translate(-1035.000000, -700.000000)">
            <g id="Logo" transform="translate(1037.000000, 703.000000)">
                <path d="M10.268707,27.1041482 L19.2874249,27.1041482 L19.2874249,46.1562716 L0.241342534,46.1562716 L0.241342534,34.321608 C0.241342534,27.2016947 0.914101858,21.7765297 2.26159052,18.0480836 C3.60710917,14.3196374 5.68842754,10.8917135 8.50160562,7.76431175 C11.3147837,4.63691004 14.9100568,2.11153808 19.2874249,0.186225244 L19.2874249,8.91812001 C16.9785701,10.2177554 15.2104837,11.8415607 13.9841509,13.7895359" id="Stroke-1" stroke="#EB1A46" stroke-width="2.95595625"></path>
                <path d="M99.0827878,61.0917332 C93.350051,74.5373928 79.3156808,82.9411765 65.2803255,82.9411765 C44.1292846,82.9411765 27.1290603,65.2438664 27.1290603,44.5797616 C27.1290603,24.411272 43.8327977,6.81249384 64.9838386,6.81249384 C77.1407868,6.81249384 92.4605902,13.1402109 99.4777753,29.1565671 L84.0594712,29.1565671 C78.8212076,23.1254311 72.5939976,19.4679279 64.4893655,19.4679279 C52.6289042,19.4679279 40.6699424,30.1458272 40.6699424,44.7778106 C40.6699424,58.5210366 52.0359304,70.2857424 64.9838386,70.2857424 C74.7688915,70.2857424 80.1056558,64.5521726 83.3679968,61.0917332 L99.0827878,61.0917332" id="Fill-3" fill="#EB1A46"></path>
                <g id="Group-8" transform="translate(103.425665, 24.632969)">
                    <mask id="mask-2" fill="white">
                        <use xlink:href="#path-1"></use>
                    </mask>
                    <g id="Clip-5"></g>
                    <path d="M29.563011,12.1371564 C18.7899967,12.1371564 13.2552462,21.4306828 13.2552462,29.6364174 C13.2552462,38.9299438 20.1739306,46.5425165 29.563011,46.5425165 C38.6556044,46.5425165 45.5752739,39.4245738 45.5752739,29.2413046 C45.5752739,17.8707262 37.3711562,12.1371564 29.563011,12.1371564 Z M58.0277239,56.825303 L45.9702614,56.825303 L45.9702614,50.002956 C41.8184598,54.9472854 33.7148127,58.6047886 26.7951432,58.6047886 C12.6622724,58.6047886 0.109351686,47.3337275 0.109351686,29.0432555 C0.109351686,12.2356882 12.3657855,0.074884225 27.5861033,0.074884225 C38.7550901,0.074884225 45.3772876,8.08256971 45.7722752,8.87378067 L45.9702614,8.87378067 L45.9702614,1.95388708 L58.0277239,1.95388708 L58.0277239,56.825303 L58.0277239,56.825303 Z" id="Fill-4" fill="#EB1A46" mask="url(#mask-2)"></path>
                    <path d="M97.6427085,46.5425165 C104.659894,46.5425165 113.653986,40.6108976 113.653986,29.3398364 C113.653986,19.255099 105.945327,12.1371564 97.8406948,12.1371564 C89.6365771,12.1371564 81.6314306,18.760469 81.6314306,29.3398364 C81.6314306,41.5006405 91.4164835,46.5425165 97.6427085,46.5425165 Z M69.2764962,1.95388708 L81.3339587,1.95388708 L81.3339587,8.38013597 L81.53293,8.38013597 C88.0556419,0.074884225 96.7532478,0.074884225 99.3231293,0.074884225 C117.311315,0.074884225 126.799881,15.5966105 126.799881,29.1417874 C126.799881,45.3561927 114.840919,58.6047886 99.3231293,58.6047886 C90.0315646,58.6047886 85.881733,54.8477683 82.4214057,51.5853779 L82.4214057,75.1167603 L69.2764962,75.1167603 L69.2764962,1.95388708 L69.2764962,1.95388708 Z" id="Fill-6" fill="#EB1A46" mask="url(#mask-2)"></path>
                    <path d="M162.878693,46.5425165 C169.895878,46.5425165 178.888986,40.6108976 178.888986,29.3398364 C178.888986,19.255099 171.180326,12.1371564 163.075694,12.1371564 C154.872561,12.1371564 146.86643,18.760469 146.86643,29.3398364 C146.86643,41.5006405 156.651483,46.5425165 162.878693,46.5425165 Z M134.512481,1.95388708 L146.569943,1.95388708 L146.569943,8.38013597 L146.767929,8.38013597 C153.290641,0.074884225 161.988247,0.074884225 164.559114,0.074884225 C182.546314,0.074884225 192.03488,15.5966105 192.03488,29.1417874 C192.03488,45.3561927 180.076903,58.6047886 164.559114,58.6047886 C155.267549,58.6047886 151.116732,54.8477683 147.65739,51.5853779 L147.65739,75.1167603 L134.512481,75.1167603 L134.512481,1.95388708 L134.512481,1.95388708 Z" id="Fill-7" fill="#EB1A46" mask="url(#mask-2)"></path>
                </g>
                <polyline id="Fill-9" fill="#EB1A46" points="306.041483 38.2520445 299.618257 38.2520445 299.618257 26.5868558 306.041483 26.5868558 306.041483 8.29539856 319.187377 8.29539856 319.187377 26.5868558 327.094023 26.5868558 327.094023 38.2520445 319.187377 38.2520445 319.187377 81.4582718 306.041483 81.4582718 306.041483 38.2520445"></polyline>
                <path d="M333.417764,81.4582718 L346.563658,81.4582718 L346.563658,26.5868558 L333.417764,26.5868558 L333.417764,81.4582718 Z M333.417764,20.3576707 L346.563658,20.3576707 L346.563658,8.29539856 L333.417764,8.29539856 L333.417764,20.3576707 Z" id="Fill-10" fill="#EB1A46"></path>
                <path d="M399.541239,54.1708543 C399.541239,44.1846487 391.832579,36.7701251 383.628462,36.7701251 C376.809263,36.7701251 367.517698,42.6022268 367.517698,54.0713371 C367.517698,64.4526554 375.326828,71.1754853 383.628462,71.1754853 C393.215528,71.1754853 399.541239,62.8712188 399.541239,54.1708543 Z M354.372789,54.0713371 C354.372789,37.4618189 367.912686,24.707853 383.628462,24.707853 C399.146251,24.707853 412.686148,37.0657208 412.686148,53.8742733 C412.686148,71.8681644 398.849764,83.2377574 383.628462,83.2377574 C367.319712,83.2377574 354.372789,69.7920977 354.372789,54.0713371 L354.372789,54.0713371 Z" id="Fill-11" fill="#EB1A46"></path>
                <path d="M420.499219,26.5868558 L432.656167,26.5868558 L432.656167,31.332151 C434.830076,29.2560843 439.376865,24.707853 447.679483,24.707853 C452.423274,24.707853 459.63746,26.7839196 464.185234,32.3204257 C469.225512,38.3515617 469.225512,47.5465563 469.225512,51.7972214 L469.225512,81.4582718 L456.080602,81.4582718 L456.080602,54.367918 C456.080602,49.820672 456.080602,36.7701251 445.011101,36.7701251 C442.639206,36.7701251 438.387919,37.9564489 436.016023,41.6149374 C433.644128,44.9758597 433.644128,50.7104148 433.644128,55.357178 L433.644128,81.4582718 L420.499219,81.4582718 L420.499219,26.5868558" id="Fill-12" fill="#EB1A46"></path>
                <path d="M501.745496,41.5154202 C500.856035,37.165238 497.891166,36.7701251 496.507232,36.7701251 C493.245876,36.7701251 491.466955,39.2413046 491.466955,41.5154202 C491.466955,44.6792787 493.739364,45.3709725 500.757534,47.6450882 C507.576733,49.7211548 516.077338,52.9845305 516.077338,64.0575426 C516.077338,76.4163957 506.29327,83.2377574 496.90222,83.2377574 C491.466955,83.2377574 484.746256,81.3587546 480.495954,76.0202976 C477.135113,71.8681644 476.640639,67.5179821 476.344152,64.1560745 L489.786534,64.1560745 C490.379508,66.6282392 491.565455,71.1754853 497.001705,71.1754853 C501.251023,71.1754853 502.932428,67.9130949 502.932428,65.6389792 C502.932428,61.5853779 499.967559,60.5971032 490.577494,57.4332447 C484.350284,55.357178 478.32106,50.7104148 478.32106,41.7134693 C478.32106,31.03557 487.909112,24.707853 496.705218,24.707853 C504.908351,24.707853 514.10043,30.6394719 514.593918,41.5154202 L501.745496,41.5154202" id="Fill-13" fill="#EB1A46"></path>
                <path d="M530.949948,19.2383486 L521.932215,19.2383486 L521.932215,0.186225244 L540.978298,0.186225244 L540.978298,12.0218741 C540.978298,19.1427727 540.292733,24.5679377 538.921605,28.2953986 C537.551461,32.02483 535.470142,35.452754 532.68159,38.5791704 C529.892052,41.7075574 526.307614,44.2329294 521.932215,46.1562716 L521.932215,37.4243768 C524.240085,36.0784314 526.008172,34.4418169 527.23352,32.5174894" id="Stroke-14" stroke="#EB1A46" stroke-width="2.95595625"></path>
            </g>
        </g>
    </g>
</svg>