<svg 
 xmlns="http://www.w3.org/2000/svg"
 xmlns:xlink="http://www.w3.org/1999/xlink"
 width="66px" height="20px">
<path fill-rule="evenodd"  fill="rgb(83, 50, 160)"
 d="M11.344,16.031 L10.313,16.031 L10.313,19.000 C10.313,19.552 9.851,20.000 9.281,20.000 L1.031,20.000 C0.462,20.000 0.000,19.552 0.000,19.000 L0.000,1.031 L0.007,1.031 C0.006,1.020 0.000,1.011 0.000,1.000 C0.000,0.448 0.462,0.000 1.031,0.000 L11.344,0.000 C15.900,0.000 19.594,3.589 19.594,8.016 C19.594,12.443 15.900,16.031 11.344,16.031 Z"/>
<path fill-rule="evenodd"  fill="rgb(83, 50, 160)"
 d="M31.969,0.000 C37.664,0.000 42.281,4.477 42.281,10.000 C42.281,15.523 37.664,20.000 31.969,20.000 C26.273,20.000 21.656,15.523 21.656,10.000 C21.656,4.477 26.273,0.000 31.969,0.000 Z"/>
<path fill-rule="evenodd"  fill="rgb(83, 50, 160)"
 d="M66.000,19.367 C66.000,19.708 65.714,19.984 65.362,19.984 L41.973,19.984 C41.945,19.988 41.920,20.000 41.891,20.000 C41.537,20.000 41.250,19.720 41.250,19.375 C41.250,19.240 41.303,19.121 41.379,19.019 L41.367,18.997 L52.982,0.484 L53.007,0.484 C53.068,0.205 53.313,-0.009 53.620,-0.009 C53.927,-0.009 54.171,0.205 54.232,0.484 L54.258,0.484 L66.000,19.120 L65.960,19.174 C65.981,19.236 66.000,19.298 66.000,19.367 Z"/>
</svg>