<?xml version="1.0" encoding="utf-8"?>
<!-- Generator: Adobe Illustrator 16.0.0, SVG Export Plug-In . SVG Version: 6.00 Build 0)  -->
<!DOCTYPE svg PUBLIC "-//W3C//DTD SVG 1.1//EN" "http://www.w3.org/Graphics/SVG/1.1/DTD/svg11.dtd">
<svg version="1.1" id="Layer_1" xmlns="http://www.w3.org/2000/svg" xmlns:xlink="http://www.w3.org/1999/xlink" x="0px" y="0px"
	 width="960px" height="314.135px" viewBox="0 0 960 314.135" enable-background="new 0 0 960 314.135" xml:space="preserve">
<g>
	<g>
		<path fill="#E90089" d="M635.733,186.574h3.299l14.662,32.622h-4.767l-4.397-9.529h-13.93l-4.031,9.529h-4.767L635.733,186.574z
			 M642.697,205.269l-5.131-11.729l-4.767,11.729H642.697z"/>
		<path fill="#E90089" d="M666.523,205.635l-3.665-2.199c-2.2-1.466-3.666-2.564-4.767-4.03c-1.1-1.468-1.466-2.934-1.466-4.399
			c0-2.565,0.732-4.765,2.565-6.231c1.833-1.466,4.031-2.564,6.965-2.564c2.564,0,5.132,0.732,7.331,2.199v5.132
			c-2.199-2.199-4.767-3.299-7.698-3.299c-1.466,0-2.933,0.365-3.665,1.1c-1.1,0.733-1.467,1.466-1.467,2.565
			c0,1.099,0.367,1.833,1.1,2.565c0.733,0.732,1.833,1.832,3.3,2.565l3.665,2.199c4.032,2.198,5.865,5.498,5.865,9.163
			c0,2.565-0.732,4.767-2.565,6.231c-1.832,1.466-4.032,2.565-6.965,2.565c-3.299,0-6.23-1.101-8.798-2.933v-5.865
			c2.566,3.3,5.499,4.767,8.798,4.767c1.467,0,2.565-0.367,3.665-1.101c1.101-0.732,1.468-1.833,1.468-2.933
			C670.922,209.301,669.456,207.102,666.523,205.635z"/>
		<path fill="#E90089" d="M689.616,205.635l-3.665-2.199c-2.199-1.466-3.666-2.564-4.766-4.03c-1.101-1.468-1.467-2.934-1.467-4.399
			c0-2.565,0.732-4.765,2.565-6.231c1.833-1.466,4.032-2.564,6.965-2.564c2.565,0,5.132,0.732,7.331,2.199v5.132
			c-2.199-2.199-4.766-3.299-7.698-3.299c-1.466,0-2.932,0.365-3.665,1.1c-1.1,0.733-1.466,1.466-1.466,2.565
			c0,1.099,0.366,1.833,1.101,2.565c0.731,0.732,1.831,1.832,3.299,2.565l3.665,2.199c4.031,2.198,5.864,5.498,5.864,9.163
			c0,2.565-0.732,4.767-2.565,6.231c-1.832,1.466-4.032,2.565-6.964,2.565c-3.299,0-6.231-1.101-8.798-2.933v-5.865
			c2.565,3.3,5.499,4.767,8.798,4.767c1.466,0,2.564-0.367,3.665-1.101c1.1-0.732,1.467-1.833,1.467-2.933
			C693.648,209.301,692.182,207.102,689.616,205.635z"/>
		<path fill="#E90089" d="M720.406,186.208c5.132,0,9.164,1.466,12.463,4.766c3.299,3.299,5.132,7.33,5.132,12.096
			c0,4.767-1.833,8.798-5.132,11.729c-3.299,3.299-7.697,4.766-12.829,4.766c-4.765,0-8.797-1.467-12.097-4.766
			c-3.299-3.299-4.766-6.964-4.766-11.729c0-4.765,1.467-8.797,4.766-12.096C711.243,187.674,715.275,186.208,720.406,186.208z
			 M720.773,190.606c-3.666,0-6.599,1.101-9.164,3.666c-2.565,2.199-3.665,5.132-3.665,8.797c0,3.666,1.1,6.599,3.665,8.798
			s5.498,3.666,9.164,3.666c3.664,0,6.598-1.101,9.164-3.666c2.564-2.199,3.664-5.498,3.664-8.798c0-3.299-1.1-6.23-3.664-8.797
			C727.005,191.706,724.072,190.606,720.773,190.606z"/>
		<path fill="#E90089" d="M772.823,211.5v5.132c-3.299,1.833-7.331,2.933-11.729,2.933c-3.665,0-6.598-0.732-9.164-2.198
			c-2.564-1.468-4.397-3.3-5.863-5.865c-1.467-2.565-2.199-5.498-2.199-8.432c0-4.766,1.833-8.797,5.132-12.096
			c3.299-3.3,7.697-4.766,12.463-4.766c3.299,0,7.33,0.732,11.362,2.564v5.133c-3.665-2.199-7.697-3.3-10.996-3.3
			c-3.666,0-6.965,1.101-9.164,3.666c-2.565,2.199-3.665,5.132-3.665,8.797c0,3.666,1.1,6.599,3.665,8.798
			c2.566,2.199,5.498,3.3,9.164,3.3C765.126,215.166,769.158,214.066,772.823,211.5z"/>
		<path fill="#E90089" d="M779.788,186.574h4.766v32.622h-4.766V186.574z"/>
		<path fill="#E90089" d="M803.247,186.574h3.3l14.662,32.622h-4.766l-4.398-9.529h-13.93l-4.031,9.529h-4.766L803.247,186.574z
			 M810.212,205.269l-5.132-11.729l-4.766,11.729H810.212z"/>
		<path fill="#E90089" d="M818.276,186.574h27.125v4.031h-11.363v28.592h-4.766v-28.592h-10.996V186.574L818.276,186.574z"/>
		<path fill="#E90089" d="M851.266,186.574h4.767v32.622h-4.767V186.574z"/>
		<path fill="#E90089" d="M864.095,186.574h18.328v4.031h-13.929v9.897h13.195v4.031h-13.195v10.264h14.295v4.032h-18.694V186.574
			L864.095,186.574z"/>
		<path fill="#E90089" d="M651.128,232.394h4.399v32.623h-4.032l-21.627-24.926v24.926h-4.398v-32.623h3.665l21.993,25.292V232.394
			L651.128,232.394z"/>
		<path fill="#E90089" d="M663.958,232.394h18.327v4.032h-13.929v9.896h13.194v4.031h-13.194v10.265h14.295v4.031h-18.693V232.394
			L663.958,232.394z"/>
		<path fill="#E90089" d="M688.883,265.017v-32.623h10.997c4.398,0,8.064,0.733,10.63,1.833c2.565,1.466,4.767,3.299,6.231,5.864
			c1.466,2.566,2.199,5.499,2.199,8.431c0,2.199-0.366,4.399-1.101,6.231c-0.732,1.833-2.199,3.666-3.665,5.132
			c-1.467,1.467-3.3,2.566-5.499,3.666c-1.1,0.366-2.199,0.732-3.299,1.1c-1.1,0-2.933,0.366-5.864,0.366H688.883z M699.514,236.426
			h-5.864v24.192h5.864c2.199,0,4.031,0,5.498-0.366c1.466-0.367,2.199-0.733,3.299-1.102c0.733-0.365,1.467-1.1,2.199-1.832
			c2.199-2.198,3.299-5.132,3.299-8.798c0-3.665-1.1-6.23-3.665-8.431c-0.732-0.732-1.833-1.466-2.933-2.199
			c-1.1-0.366-2.199-0.731-3.299-1.1C703.179,236.792,701.713,236.426,699.514,236.426z"/>
		<path fill="#E90089" d="M725.905,232.394h18.327v4.032h-13.93v9.896h13.195v4.031h-13.195v10.265h14.295v4.031h-18.692V232.394
			L725.905,232.394z"/>
		<path fill="#E90089" d="M750.83,265.017v-32.623h8.064c3.299,0,5.864,0.733,7.696,2.565c1.833,1.467,2.934,3.666,2.934,6.599
			c0,1.832-0.366,3.665-1.467,4.766c-1.1,1.467-2.198,2.565-4.031,2.933c1.1,0.733,2.198,1.466,2.933,2.933
			c1.1,1.101,2.565,3.3,4.032,6.231c1.1,1.833,2.199,3.299,2.564,4.032l1.833,2.198h-5.498l-1.467-2.198c0,0,0-0.367-0.366-0.367
			l-0.732-1.101l-1.466-2.198l-1.467-2.565c-1.101-1.467-1.832-2.565-2.565-3.299s-1.466-1.467-2.199-1.833
			c-0.732-0.367-1.833-0.367-3.299-0.367h-1.1v14.296L750.83,265.017L750.83,265.017z M757.062,236.426h-1.467v10.264h1.833
			c2.199,0,4.032-0.366,4.766-0.732c0.732-0.366,1.467-1.101,2.198-1.833c0.367-0.733,0.733-1.833,0.733-2.934
			c0-1.1-0.366-1.832-0.733-2.932c-0.365-0.733-1.466-1.467-2.198-1.833C761.094,236.426,759.262,236.426,757.062,236.426z"/>
		<path fill="#E90089" d="M780.888,232.394h4.767v28.226h14.662v4.397h-19.429V232.394z"/>
		<path fill="#E90089" d="M815.71,232.394h3.299l14.662,32.623h-4.765l-4.398-9.53h-13.93l-4.032,9.53h-4.765L815.71,232.394z
			 M822.675,251.088l-5.132-11.729l-4.766,11.729H822.675z"/>
		<path fill="#E90089" d="M864.095,232.394h4.399v32.623h-4.032l-21.627-24.926v24.926h-4.398v-32.623h3.665l21.993,25.292V232.394
			L864.095,232.394z"/>
		<path fill="#E90089" d="M876.191,265.017v-32.623h10.995c4.399,0,8.064,0.733,10.632,1.833c2.564,1.466,4.765,3.299,6.229,5.864
			c1.467,2.566,2.2,5.499,2.2,8.431c0,2.199-0.367,4.399-1.102,6.231c-0.731,1.833-2.198,3.666-3.664,5.132
			c-1.467,1.467-3.3,2.566-5.498,3.666c-1.101,0.366-2.199,0.732-3.3,1.1c-1.1,0-2.933,0.366-5.864,0.366H876.191z M886.821,236.426
			h-5.865v24.192h5.865c2.198,0,4.031,0,5.498-0.366c1.467-0.367,2.198-0.733,3.299-1.102c0.732-0.365,1.467-1.1,2.2-1.832
			c2.198-2.198,3.299-5.132,3.299-8.798c0-3.665-1.101-6.23-3.666-8.431c-0.732-0.732-1.833-1.466-2.934-2.199
			c-1.1-0.366-2.198-0.731-3.299-1.1C890.487,236.792,889.021,236.426,886.821,236.426z"/>
		<path fill="#E90089" d="M921.277,251.454l-3.666-2.199c-2.199-1.466-3.665-2.565-4.766-4.032c-1.1-1.466-1.466-2.933-1.466-4.397
			c0-2.565,0.732-4.767,2.565-6.231s4.031-2.565,6.964-2.565c2.565,0,5.132,0.732,7.332,2.199v5.132c-2.2-2.198-4.767-3.3-7.698-3.3
			c-1.466,0-2.933,0.367-3.665,1.102c-1.1,0.731-1.467,1.466-1.467,2.564c0,1.1,0.367,1.833,1.1,2.565
			c0.733,0.732,1.833,1.833,3.299,2.565l3.666,2.199c4.032,2.199,5.865,5.498,5.865,9.164c0,2.565-0.732,4.765-2.565,6.231
			c-1.833,1.466-4.032,2.564-6.966,2.564c-3.299,0-6.229-1.1-8.797-2.933v-5.498c2.566,3.299,5.498,4.766,8.797,4.766
			c1.468,0,2.566-0.367,3.666-1.1c1.101-0.733,1.467-1.833,1.467-2.934C925.31,255.12,923.843,252.921,921.277,251.454z"/>
		<path fill="#E90089" d="M935.939,232.394h18.326v4.032h-13.562v9.896H953.9v4.031h-13.195v10.265H955v4.031h-18.694v-32.256
			H935.939z"/>
		<path fill="#E90089" d="M622.537,278.213h27.125v4.032h-11.363v28.591h-4.765v-28.591h-10.997V278.213L622.537,278.213z"/>
		<path fill="#E90089" d="M661.025,278.213h3.299l14.662,32.623h-4.767l-4.397-9.53h-13.93l-4.031,9.53h-4.767L661.025,278.213z
			 M667.99,296.906l-5.132-11.729l-4.767,11.729H667.99z"/>
		<path fill="#E90089" d="M709.41,278.213h4.397v32.623h-4.031L688.15,285.91v24.926h-4.398v-32.623h3.665l21.993,25.292V278.213
			L709.41,278.213z"/>
		<path fill="#E90089" d="M721.14,310.836v-32.623h10.997c4.398,0,8.063,0.731,10.63,1.832c2.565,1.467,4.766,3.3,6.231,5.865
			c1.466,2.564,2.199,5.498,2.199,8.431c0,2.199-0.367,4.398-1.101,6.23c-0.732,1.833-2.198,3.665-3.666,5.133
			c-1.466,1.466-3.299,2.564-5.498,3.665c-1.1,0.366-2.198,0.732-3.299,1.1c-1.1,0-2.933,0.367-5.864,0.367H721.14L721.14,310.836z
			 M731.77,282.245h-5.863v24.191h5.863c2.199,0,4.032,0,5.498-0.367c1.468-0.365,2.2-0.731,3.301-1.1
			c0.731-0.366,1.466-1.1,2.198-1.833c2.199-2.199,3.3-5.131,3.3-8.797c0-3.665-1.101-6.231-3.666-8.431
			c-0.732-0.733-1.832-1.467-2.933-2.199c-1.101-0.366-2.2-0.733-3.3-1.101C735.436,282.611,733.969,282.245,731.77,282.245z"/>
		<path fill="#E90089" d="M765.859,278.213h3.299l14.662,32.623h-4.767l-4.397-9.53h-13.93l-4.031,9.53h-4.767L765.859,278.213z
			 M772.823,296.906l-5.132-11.729l-4.766,11.729H772.823z"/>
		<path fill="#E90089" d="M788.585,310.836v-32.623h8.064c3.299,0,5.864,0.731,7.696,2.564c1.833,1.468,2.934,3.666,2.934,6.599
			c0,1.833-0.366,3.666-1.466,4.766c-1.101,1.466-2.199,2.565-4.032,2.934c1.1,0.731,2.199,1.466,2.933,2.933
			c1.101,1.1,2.565,3.299,4.032,6.229c1.1,1.834,2.199,3.301,2.564,4.032l1.834,2.199h-5.498l-1.468-2.199c0,0,0-0.366-0.365-0.366
			l-0.733-1.1l-1.466-2.199l-1.467-2.565c-1.101-1.466-1.832-2.565-2.565-3.299c-0.732-0.732-1.466-1.467-2.199-1.832
			c-0.732-0.367-1.833-0.367-3.299-0.367h-1.1v14.296L788.585,310.836L788.585,310.836z M794.816,282.245h-1.467v10.263h1.833
			c2.199,0,4.032-0.366,4.766-0.732c0.732-0.366,1.467-1.1,2.198-1.833c0.367-0.732,0.733-1.833,0.733-2.933
			s-0.366-1.833-0.733-2.933c-0.365-0.732-1.466-1.467-2.198-1.832C798.482,282.245,797.016,282.245,794.816,282.245z"/>
		<path fill="#E90089" d="M813.145,278.213h27.125v4.032h-11.362v28.591h-4.767v-28.591h-10.995L813.145,278.213L813.145,278.213z"
			/>
		<path fill="#E90089" d="M854.564,297.273l-3.665-2.198c-2.199-1.468-3.666-2.566-4.767-4.032c-1.1-1.467-1.466-2.934-1.466-4.398
			c0-2.565,0.733-4.766,2.565-6.23c1.833-1.468,4.031-2.566,6.965-2.566c2.564,0,5.132,0.733,7.331,2.199v5.132
			c-2.199-2.199-4.767-3.299-7.697-3.299c-1.467,0-2.933,0.367-3.666,1.1c-1.1,0.733-1.466,1.467-1.466,2.566
			c0,1.099,0.366,1.832,1.1,2.564c0.732,0.733,1.833,1.833,3.299,2.566l3.665,2.199c4.032,2.199,5.865,5.498,5.865,9.163
			c0,2.565-0.733,4.766-2.565,6.23c-1.832,1.467-4.031,2.566-6.965,2.566c-3.299,0-6.23-1.101-8.797-2.934v-5.864
			c2.565,3.299,5.498,4.766,8.797,4.766c1.467,0,2.565-0.366,3.665-1.1c1.101-0.734,1.467-1.833,1.467-2.934
			C858.963,300.938,857.497,298.739,854.564,297.273z"/>
		<path fill="#E90089" d="M869.594,278.213h18.327v4.032h-13.929v9.896h13.195v4.032h-13.195v10.264h14.295v4.031h-18.693V278.213
			L869.594,278.213z"/>
		<path fill="#E90089" d="M920.544,278.213h4.398v32.623h-4.032l-21.626-24.926v24.926h-4.398v-32.623h3.665l21.993,25.292V278.213z
			"/>
	</g>
	<g>
		
			<linearGradient id="SVGID_1_" gradientUnits="userSpaceOnUse" x1="76.3315" y1="-99.7036" x2="76.3315" y2="-99.7526" gradientTransform="matrix(3.6655 0 0 3.6655 165.3352 399.8068)">
			<stop  offset="0" style="stop-color:#E90089"/>
			<stop  offset="1" style="stop-color:#EF6E31"/>
		</linearGradient>
		<path fill="url(#SVGID_1_)" d="M445.126,34.456L445.126,34.456L445.126,34.456C445.126,34.089,445.126,34.089,445.126,34.456z"/>
		
			<linearGradient id="SVGID_2_" gradientUnits="userSpaceOnUse" x1="87.4316" y1="-108.2725" x2="88.1313" y2="-108.2725" gradientTransform="matrix(3.6655 0 0 3.6655 165.3352 399.8068)">
			<stop  offset="0" style="stop-color:#E90089"/>
			<stop  offset="1" style="stop-color:#EF6E31"/>
		</linearGradient>
		<path fill="url(#SVGID_2_)" d="M488.379,2.932h-0.366c-0.732,0-1.466,0-2.198,0H488.379L488.379,2.932z"/>
		
			<linearGradient id="SVGID_3_" gradientUnits="userSpaceOnUse" x1="50.0312" y1="-23.3726" x2="50.0312" y2="-109.0728" gradientTransform="matrix(3.6655 0 0 3.6655 165.3352 399.8068)">
			<stop  offset="0" style="stop-color:#E90089"/>
			<stop  offset="1" style="stop-color:#EF6E31"/>
		</linearGradient>
		<path fill="url(#SVGID_3_)" d="M488.013,3.299h-2.564c-27.858,0.733-40.321,9.897-40.321,31.157l0,0v8.063l0,0v211.501
			l-101.168-214.8c-10.263-22.36-24.925-33.356-42.153-33.356c-21.626,0-31.157,12.83-31.157,42.52v0.367v201.604L186.34,61.214
			L158.848,0h-31.157L-5,310.836h45.453l38.488-91.64H210.9l0,0l28.224,62.682c7.331,15.027,15.762,24.56,26.025,28.958
			c4.398,1.833,9.164,3.299,14.295,3.299c5.865,0,10.997-1.1,15.396-3.299c10.996-5.498,16.495-17.595,16.495-38.122V63.047
			l103.734,218.465c10.264,21.626,23.46,32.623,40.32,32.623c21.261,0,30.79-12.829,30.79-40.688V42.52h64.88v268.684h44.354V42.152
			h107.033V3.299H488.013L488.013,3.299z M96.535,179.977l46.186-111.798l49.851,111.798H96.535z"/>
	</g>
</g>
</svg>
