<?xml version="1.0" encoding="UTF-8" standalone="no"?>
<!DOCTYPE svg PUBLIC "-//W3C//DTD SVG 1.1//EN" "http://www.w3.org/Graphics/SVG/1.1/DTD/svg11.dtd">
<svg width="517" height="786" viewBox="0 0 1200 1199" version="1.1" xmlns="http://www.w3.org/2000/svg" xmlns:xlink="http://www.w3.org/1999/xlink" xml:space="preserve" xmlns:serif="http://www.serif.com/" style="fill-rule:evenodd;clip-rule:evenodd;stroke-linejoin:round;stroke-miterlimit:1.41421;">
    <g transform="matrix(1.49813,0,0,1.49813,0,0)">
        <path d="M207.919,687.525C207.728,687.505 207.539,687.479 207.356,687.449C205.608,687.156 204.228,686.403 203.149,685.471C202.034,684.511 201.239,683.36 200.686,682.329C199.869,680.805 199.583,679.542 199.583,679.542C202.993,667.266 185.763,613.173 202.311,586.734C206.881,579.431 209.785,577.223 213.269,577.223C216.729,577.223 220.761,579.402 227.562,580.934C229.644,581.402 231.528,581.601 233.226,581.601C242.653,581.601 246.331,575.474 246.331,575.474C246.331,575.474 242.653,581.601 233.226,581.601C231.528,581.601 229.644,581.402 227.562,580.934C223.633,580.05 220.632,578.949 218.127,578.18C212.591,584.185 204.388,595.084 201.801,609.214C198.358,628.018 206.917,661.772 205.778,687.029C206.427,687.27 207.139,687.442 207.919,687.525Z" style="fill:url(#_Linear1);"/>
        <path d="M231.949,569.161C225.552,569.161 219.054,567.166 214.598,560.8C214.598,560.8 219.714,545.099 219.032,530.43C218.35,515.759 214.858,404.271 242.836,398.127C245.085,397.633 247.242,397.39 249.297,397.39C260.14,397.39 268.231,404.144 273.007,416.472C273.002,416.47 272.995,416.468 272.99,416.466C268.213,404.158 260.126,397.416 249.293,397.416C248.553,397.416 247.803,397.448 247.038,397.511C246.849,397.769 246.663,398.031 246.479,398.299C246.381,398.186 246.331,398.127 246.331,398.127C246.311,398.286 246.292,398.443 246.272,398.601C225.434,429.492 234.253,518.386 231.52,536.162C228.989,552.611 225.219,564.207 223.927,567.898C226.513,568.796 229.244,569.155 231.956,569.155C242.648,569.155 253.051,563.584 253.153,563.53C253.051,563.584 242.642,569.161 231.949,569.161ZM275.272,480.61C275.692,477.944 276.061,475.333 276.382,472.775C276.062,475.332 275.692,477.946 275.272,480.61Z" style="fill:url(#_Linear2);"/>
        <g>
            <path d="M208.99,687.581C208.62,687.581 208.263,687.562 207.919,687.525C208.261,687.562 208.616,687.581 208.984,687.581C212.775,687.581 218.006,685.572 225.172,679.542C218.01,685.57 212.781,687.581 208.99,687.581Z" style="fill:rgb(217,217,217);fill-rule:nonzero;"/>
            <path d="M208.99,687.581C208.62,687.581 208.263,687.562 207.919,687.525C208.261,687.562 208.616,687.581 208.984,687.581C212.775,687.581 218.006,685.572 225.172,679.542C218.01,685.57 212.781,687.581 208.99,687.581Z" style="fill:rgb(217,217,217);fill-rule:nonzero;"/>
        </g>
        <path d="M208.984,687.581C208.616,687.581 208.261,687.562 207.919,687.525C207.139,687.442 206.427,687.27 205.778,687.029C206.917,661.772 198.358,628.018 201.801,609.214C204.388,595.084 212.591,584.185 218.127,578.18C220.632,578.949 223.633,580.05 227.562,580.934C229.644,581.402 231.528,581.601 233.226,581.601C242.653,581.601 246.331,575.474 246.331,575.474C246.331,575.474 239.163,598.675 234.046,615.735C228.927,632.796 225.172,679.542 225.172,679.542C218.006,685.572 212.775,687.581 208.984,687.581Z" style="fill:url(#_Linear3);"/>
        <path d="M231.956,569.155C229.244,569.155 226.513,568.796 223.927,567.898C225.219,564.207 228.989,552.611 231.52,536.162C234.253,518.386 225.434,429.492 246.272,398.601C239.42,454.11 266.253,469.125 276.382,472.775C276.061,475.333 275.692,477.944 275.272,480.61C266.459,536.565 253.153,563.529 253.153,563.529L253.153,563.53C253.051,563.584 242.648,569.155 231.956,569.155ZM272.99,416.466C257.161,410.167 247.747,399.757 246.479,398.299C246.663,398.031 246.849,397.769 247.038,397.511C247.803,397.448 248.553,397.416 249.293,397.416C260.126,397.416 268.213,404.158 272.99,416.466Z" style="fill:url(#_Linear4);"/>
        <path d="M219.148,565.421L215.98,577.58C218.898,578.265 222.447,579.782 227.562,580.934C234.322,582.453 238.985,581.131 241.975,579.402L249.101,565.383C242.364,568.13 228.671,572.25 219.148,565.421Z" style="fill:rgb(46,56,59);fill-rule:nonzero;"/>
        <path d="M262.325,673.234C255.209,668.984 242.312,672.81 234.736,674.526C233.304,674.848 231.839,675.291 230.409,675.788C234.762,678.542 240.079,683.117 236.591,687.581C231.096,694.618 221.896,703.816 219.746,705.967C219.055,706.661 219.415,709.171 220.219,712.261C221.454,710.768 222.674,709.104 224.013,707.401C229.302,700.685 237.021,697.397 248.458,691.816C259.894,686.247 269.323,677.416 262.325,673.234Z" style="fill:url(#_Linear5);"/>
        <path d="M223.163,701.478C223.163,706.063 219.946,711.629 215.979,713.919C212.014,716.208 208.799,714.355 208.799,709.776C208.799,705.193 212.014,699.62 215.979,697.334C219.946,695.047 223.163,696.898 223.163,701.478Z" style="fill:url(#_Linear6);"/>
        <path d="M276.507,472.819C276.465,472.805 276.424,472.79 276.382,472.775C266.253,469.125 239.42,454.11 246.272,398.601C246.292,398.443 246.311,398.286 246.331,398.127C246.331,398.127 246.381,398.186 246.479,398.299C247.747,399.757 257.161,410.167 272.99,416.466C272.995,416.468 273.002,416.47 273.007,416.472C280.089,419.289 288.452,421.282 297.943,421.282C300.687,421.281 303.53,421.115 306.458,420.753L308.621,427.528L308.62,427.529L307.353,423.563C299.53,428.575 277.761,444.858 276.526,471.589C276.504,472.016 276.518,472.406 276.507,472.818L276.507,472.819Z" style="fill:url(#_Linear7);"/>
        <g>
            <path d="M311.585,436.812L307.353,423.563C299.53,428.575 277.761,444.858 276.526,471.589C276.504,472.016 276.518,472.406 276.507,472.818C278.717,473.601 280.107,473.844 280.107,473.844C277.176,463.256 303.051,448.72 311.585,436.812Z" style="fill:rgb(33,43,46);fill-rule:nonzero;"/>
            <path d="M323.33,732.719C318.542,732.356 311.544,730.945 306.891,726.203C299.89,732.24 292.198,733.057 286.952,732.671C287.059,734.615 287.11,736.66 287.072,738.695L283.395,738.695L282.479,748.785L285.602,749.144C282.788,758.479 289.346,765.623 296.982,764.982L297.213,762.229C297.213,762.229 320.927,753.872 324.275,746.467C325.962,742.727 324.845,737.25 323.33,732.719Z" style="fill:rgb(46,56,59);fill-rule:nonzero;"/>
        </g>
        <path d="M289.123,732.76C284.124,732.76 280.626,731.495 280.626,731.495C280.626,731.495 282.593,732.199 285.673,732.558C287.148,707.367 278.386,683.314 278.946,659.058C279.381,640.401 284.735,624.012 288.664,614.399C289.568,614.544 290.501,614.611 291.457,614.611C304.632,614.61 322.028,601.854 322.028,601.854C322.028,623.905 312.006,693.09 308.372,717.457C307.566,722.854 307.075,726.053 307.075,726.053C300.945,731.432 294.246,732.76 289.123,732.76Z" style="fill:url(#_Linear8);"/>
        <path d="M299.347,599.106C290.009,599.106 281.467,597.117 280.797,591.22C281.284,595.487 285.898,597.698 291.946,598.6C292.687,594.178 293.657,584.949 292.821,569.158C291.8,549.779 287.739,475.206 295.814,436.812C287.195,445.147 280.679,456.435 277.455,468.695C282.13,450.918 293.724,435.165 308.62,427.529L308.621,427.528C312.851,425.36 317.349,423.846 322.028,423.126C323.418,422.912 324.79,422.797 326.133,422.797C339.951,422.797 350.778,435.026 347.667,478.567C344.257,526.334 326.856,589.462 324.124,593.895C322.646,596.299 310.435,599.106 299.347,599.106ZM280.797,591.215C280.796,591.208 280.795,591.201 280.794,591.195C280.795,591.202 280.796,591.208 280.797,591.215ZM274.962,497.703C274.962,487.463 275.398,478.66 276.507,472.819L276.507,472.818C276.56,472.54 276.614,472.269 276.67,472.004C276.675,471.98 276.68,471.955 276.685,471.931C276.68,471.955 276.675,471.98 276.67,472.004C275.441,477.823 274.962,486.975 274.962,497.703ZM276.696,471.882C276.698,471.873 276.699,471.867 276.701,471.858C276.699,471.867 276.697,471.874 276.696,471.882ZM276.712,471.804C276.714,471.798 276.715,471.793 276.716,471.787C276.715,471.792 276.714,471.798 276.712,471.804ZM276.729,471.726C276.73,471.723 276.731,471.72 276.731,471.717C276.731,471.72 276.73,471.722 276.729,471.726ZM276.745,471.653C276.746,471.65 276.746,471.649 276.747,471.646C276.746,471.648 276.746,471.65 276.745,471.653ZM277.363,469.046C277.364,469.041 277.365,469.039 277.366,469.034C277.365,469.039 277.364,469.042 277.363,469.046ZM277.38,468.98C277.382,468.971 277.384,468.966 277.386,468.957C277.384,468.964 277.382,468.973 277.38,468.98ZM277.398,468.909C277.401,468.901 277.404,468.888 277.406,468.879C277.404,468.889 277.401,468.9 277.398,468.909ZM277.417,468.839C277.42,468.826 277.424,468.811 277.427,468.798C277.424,468.812 277.42,468.825 277.417,468.839ZM277.436,468.767C277.441,468.745 277.447,468.725 277.452,468.703C277.447,468.725 277.441,468.745 277.436,468.767Z" style="fill:url(#_Linear9);"/>
        <path d="M213.502,341.025L213.503,341.023C215.147,340.679 216.509,339.65 217.732,337.592C216.508,339.652 215.146,340.681 213.502,341.025ZM202.094,338.562C201.732,338.443 201.362,338.322 200.984,338.2C199.408,337.691 197.813,337.118 196.522,336.029L196.521,336.036C194.991,334.747 193.89,332.725 193.752,329.199C193.167,314.349 197.163,298.025 200.588,279.828C205.517,253.658 211.902,247.418 220.807,242.31C223.353,240.848 226.175,240.327 228.908,240.327C232.381,240.327 235.711,241.17 238.144,241.998C238.143,241.999 238.143,241.999 238.142,241.999C235.708,241.171 232.378,240.329 228.903,240.329C227.98,240.329 227.048,240.388 226.119,240.523C211.037,256.62 203.876,320.191 202.094,338.563L202.094,338.562Z" style="fill:url(#_Linear10);"/>
        <path d="M184.039,417.544C182.438,417.544 181.428,417.239 181.428,417.239C181.428,417.239 179.421,389.685 182.886,366.328C184.332,356.57 187.131,346.426 190.197,344.348C191.012,343.797 191.894,343.568 192.803,343.568C193.505,343.568 194.223,343.704 194.938,343.935L194.935,343.948C195.991,344.289 197.042,344.834 198.025,345.447C194.595,352.945 182.668,382.164 186.998,417.196C186.276,417.363 185.598,417.459 184.979,417.504L184.98,417.509C184.648,417.534 184.334,417.544 184.039,417.544ZM195.882,411.163L195.882,411.162C196.573,410.282 197.25,409.284 197.904,408.153C197.25,409.285 196.573,410.282 195.882,411.163ZM197.91,408.144C197.915,408.134 197.921,408.124 197.927,408.114C197.921,408.124 197.916,408.134 197.91,408.144ZM197.931,408.106C197.94,408.092 197.948,408.077 197.957,408.062C197.948,408.077 197.94,408.091 197.931,408.106ZM197.971,408.037C197.975,408.03 197.979,408.024 197.982,408.018C197.978,408.024 197.975,408.03 197.971,408.037ZM197.998,407.99C198.001,407.985 198.003,407.98 198.006,407.976C198.003,407.981 198.001,407.985 197.998,407.99Z" style="fill:url(#_Linear11);"/>
        <path d="M181.792,423.695C181.792,423.695 179.054,436.288 179.784,442.125C180.513,447.967 187.997,464.026 190.371,465.12C192.742,466.213 199.127,463.478 199.86,458.548C200.588,453.625 197.851,447.235 196.757,443.218C195.661,439.205 197.828,428.716 198.556,428.537C199.284,428.35 203.41,428.537 203.41,428.537C203.41,428.537 209.109,437.691 211.6,435.982C214.09,434.279 210.806,426.069 208.799,422.052C206.79,418.038 195.882,416.409 195.882,416.409L181.792,423.695Z" style="fill:url(#_Linear12);"/>
        <g>
            <path d="M288.664,614.399C288.538,614.379 288.414,614.358 288.289,614.335C288.414,614.356 288.544,614.369 288.67,614.387C288.668,614.391 288.666,614.395 288.664,614.399Z" style="fill:rgb(242,242,242);fill-rule:nonzero;"/>
            <path d="M288.664,614.399C288.538,614.379 288.414,614.358 288.289,614.335C288.414,614.356 288.544,614.369 288.67,614.387C288.668,614.391 288.666,614.395 288.664,614.399Z" style="fill:rgb(242,242,242);fill-rule:nonzero;"/>
        </g>
        <path d="M285.673,732.558C282.593,732.199 280.626,731.495 280.626,731.495C280.834,730.021 280.928,728.354 280.929,726.521C280.935,709.027 272.399,676.486 272.396,653.607C272.396,650.347 272.569,647.283 272.964,644.486C276.035,622.78 275.212,613.912 284.305,613.912C285.463,613.912 286.782,614.056 288.289,614.335C288.414,614.358 288.538,614.379 288.664,614.399C284.735,624.012 279.381,640.401 278.946,659.058C278.386,683.314 287.148,707.367 285.673,732.558Z" style="fill:url(#_Linear13);"/>
        <g>
            <path d="M280.797,591.22C280.797,591.218 280.797,591.216 280.797,591.215C280.797,591.216 280.797,591.218 280.797,591.22ZM280.794,591.195C280.793,591.186 280.792,591.176 280.791,591.167C279.755,581.315 274.962,531.63 274.962,497.703C274.962,531.63 279.755,581.315 280.791,591.167C280.792,591.177 280.793,591.185 280.794,591.195Z" style="fill:rgb(242,242,242);fill-rule:nonzero;"/>
            <path d="M280.797,591.22C280.797,591.218 280.797,591.216 280.797,591.215C280.797,591.216 280.797,591.218 280.797,591.22ZM280.794,591.195C280.793,591.186 280.792,591.176 280.791,591.167C279.755,581.315 274.962,531.63 274.962,497.703C274.962,531.63 279.755,581.315 280.791,591.167C280.792,591.177 280.793,591.185 280.794,591.195Z" style="fill:rgb(242,242,242);fill-rule:nonzero;"/>
            <path d="M276.685,471.931C276.689,471.915 276.692,471.899 276.696,471.882C276.692,471.899 276.689,471.915 276.685,471.931ZM276.701,471.858C276.705,471.84 276.709,471.822 276.712,471.804C276.709,471.822 276.705,471.841 276.701,471.858ZM276.716,471.787C276.72,471.767 276.725,471.745 276.729,471.726C276.725,471.746 276.721,471.766 276.716,471.787ZM276.731,471.717C276.736,471.695 276.74,471.674 276.745,471.653C276.741,471.674 276.736,471.696 276.731,471.717ZM276.747,471.646C276.936,470.775 277.141,469.908 277.363,469.046C277.142,469.907 276.935,470.776 276.747,471.646ZM277.366,469.034C277.371,469.016 277.376,468.998 277.38,468.98C277.376,468.998 277.371,469.017 277.366,469.034ZM277.386,468.957C277.39,468.941 277.394,468.926 277.398,468.909C277.394,468.926 277.39,468.941 277.386,468.957ZM277.406,468.879C277.41,468.866 277.413,468.852 277.417,468.839C277.413,468.854 277.41,468.865 277.406,468.879ZM277.427,468.798C277.43,468.788 277.433,468.777 277.436,468.767C277.433,468.777 277.43,468.788 277.427,468.798ZM277.452,468.703C277.453,468.701 277.454,468.697 277.455,468.695C277.454,468.697 277.453,468.7 277.452,468.703Z" style="fill:rgb(242,242,242);fill-rule:nonzero;"/>
            <path d="M276.685,471.931C276.689,471.915 276.692,471.899 276.696,471.882C276.692,471.899 276.689,471.915 276.685,471.931ZM276.701,471.858C276.705,471.84 276.709,471.822 276.712,471.804C276.709,471.822 276.705,471.841 276.701,471.858ZM276.716,471.787C276.72,471.767 276.725,471.745 276.729,471.726C276.725,471.746 276.721,471.766 276.716,471.787ZM276.731,471.717C276.736,471.695 276.74,471.674 276.745,471.653C276.741,471.674 276.736,471.696 276.731,471.717ZM276.747,471.646C276.936,470.775 277.141,469.908 277.363,469.046C277.142,469.907 276.935,470.776 276.747,471.646ZM277.366,469.034C277.371,469.016 277.376,468.998 277.38,468.98C277.376,468.998 277.371,469.017 277.366,469.034ZM277.386,468.957C277.39,468.941 277.394,468.926 277.398,468.909C277.394,468.926 277.39,468.941 277.386,468.957ZM277.406,468.879C277.41,468.866 277.413,468.852 277.417,468.839C277.413,468.854 277.41,468.865 277.406,468.879ZM277.427,468.798C277.43,468.788 277.433,468.777 277.436,468.767C277.433,468.777 277.43,468.788 277.427,468.798ZM277.452,468.703C277.453,468.701 277.454,468.697 277.455,468.695C277.454,468.697 277.453,468.7 277.452,468.703Z" style="fill:rgb(31,41,44);fill-rule:nonzero;"/>
        </g>
        <path d="M291.946,598.6C285.898,597.698 281.284,595.487 280.797,591.22C280.797,591.218 280.797,591.216 280.797,591.215C280.796,591.208 280.795,591.202 280.794,591.195C280.793,591.185 280.792,591.177 280.791,591.167C279.755,581.315 274.962,531.63 274.962,497.703C274.962,486.975 275.441,477.823 276.67,472.004C276.675,471.98 276.68,471.955 276.685,471.931C276.689,471.915 276.692,471.899 276.696,471.882C276.697,471.874 276.699,471.867 276.701,471.858C276.705,471.841 276.709,471.822 276.712,471.804C276.714,471.798 276.715,471.792 276.716,471.787C276.721,471.766 276.725,471.746 276.729,471.726C276.73,471.722 276.731,471.72 276.731,471.717C276.736,471.696 276.741,471.674 276.745,471.653C276.746,471.65 276.746,471.648 276.747,471.646C276.935,470.776 277.142,469.907 277.363,469.046C277.364,469.042 277.365,469.039 277.366,469.034C277.371,469.017 277.376,468.998 277.38,468.98C277.382,468.973 277.384,468.964 277.386,468.957C277.39,468.941 277.394,468.926 277.398,468.909C277.401,468.9 277.404,468.889 277.406,468.879C277.41,468.865 277.413,468.854 277.417,468.839C277.42,468.825 277.424,468.812 277.427,468.798C277.43,468.788 277.433,468.777 277.436,468.767C277.441,468.745 277.447,468.725 277.452,468.703C277.453,468.7 277.454,468.697 277.455,468.695C280.679,456.435 287.195,445.147 295.814,436.812C287.739,475.206 291.8,549.779 292.821,569.158C293.657,584.949 292.687,594.178 291.946,598.6Z" style="fill:url(#_Linear14);"/>
        <path d="M272.593,368.66C254.447,364.741 246.051,352.675 246.051,352.675C244.42,340.827 234.945,320.646 228.082,300.992C234.209,276.981 242.011,243.586 242.011,243.586C242.011,243.586 240.495,242.799 238.142,241.999C238.143,241.999 238.143,241.999 238.144,241.998C242.293,240.558 247.043,239.865 252.232,239.865C252.922,239.865 253.623,239.878 254.328,239.902C248.229,242.426 240.916,246.24 240.915,250.028C240.914,252.004 242.903,253.972 248.091,255.747C249.809,256.335 251.601,256.782 253.457,257.114C241.065,285.981 264.526,327.092 268.866,347.931C270.272,354.68 271.174,361.71 271.74,368.444C272.026,368.512 272.299,368.595 272.593,368.66Z" style="fill:url(#_Linear15);"/>
        <g>
            <path d="M280.778,257.216C280.772,257.214 280.764,257.212 280.758,257.211C285.345,256.922 290.023,256.659 294.711,256.659C297.907,256.659 301.107,256.782 304.284,257.101C301.117,256.783 297.927,256.661 294.743,256.661C290.051,256.661 285.369,256.925 280.778,257.216Z" style="fill:rgb(242,242,242);fill-rule:nonzero;"/>
            <path d="M280.778,257.216C280.772,257.214 280.764,257.212 280.758,257.211C285.345,256.922 290.023,256.659 294.711,256.659C297.907,256.659 301.107,256.782 304.284,257.101C301.117,256.783 297.927,256.661 294.743,256.661C290.051,256.661 285.369,256.925 280.778,257.216Z" style="fill:rgb(242,242,242);fill-rule:nonzero;"/>
        </g>
        <path d="M285.183,370.023C281.106,370.023 276.892,369.589 272.593,368.66C272.299,368.595 272.026,368.512 271.74,368.444C271.174,361.71 270.272,354.68 268.866,347.931C264.526,327.092 241.065,285.981 253.457,257.114C256.954,257.741 260.677,257.963 264.563,257.963C269.732,257.963 275.189,257.57 280.78,257.216C280.779,257.216 280.779,257.216 280.778,257.216C285.369,256.925 290.051,256.661 294.743,256.661C297.927,256.661 301.117,256.783 304.284,257.101C324.968,272.174 334.007,294.766 335.103,312.291C335.148,313.022 335.169,313.836 335.169,314.721C335.17,321.921 333.801,333.776 333.542,343.569L318.597,358.518C310.028,365.517 298.316,370.023 285.183,370.023Z" style="fill:url(#_Linear16);"/>
        <g>
            <path d="M248.091,255.747C257.354,258.918 268.754,257.978 280.78,257.216C260.558,252.253 254.333,239.908 254.328,239.902C245.048,243.743 232.957,250.57 248.091,255.747Z" style="fill:rgb(46,56,59);fill-rule:nonzero;"/>
            <path d="M200.984,338.2C199.408,337.691 197.813,337.118 196.522,336.029L194.935,343.948C198.159,344.989 201.328,347.931 202.7,348.889C204.909,350.426 206.578,352.127 207.832,353.933L213.505,341.019C210.527,341.645 206.632,340.023 200.984,338.2Z" style="fill:rgb(46,56,59);fill-rule:nonzero;"/>
            <path d="M184.979,417.504L185.28,421.891L195.882,416.409L195.882,411.121C192.073,415.98 187.872,417.293 184.979,417.504Z" style="fill:rgb(46,56,59);fill-rule:nonzero;"/>
            <path d="M197.888,416.786C194.98,422.403 197.589,428.621 197.77,429.02L198.066,429.499C198.255,428.925 198.425,428.566 198.556,428.537C198.731,428.488 199.116,428.468 199.585,428.458L199.405,428.17C199.377,428.104 196.91,422.176 199.759,417.219C199.073,417.047 198.439,416.9 197.888,416.786Z" style="fill:rgb(46,56,59);fill-rule:nonzero;"/>
            <path d="M182.555,441.151C183.026,443.981 184.254,450.065 186.628,454.976L198.917,450.289C198.195,447.669 197.284,445.169 196.757,443.218C196.296,441.533 196.415,438.699 196.759,435.97C193.664,437.341 188.165,439.609 182.555,441.151Z" style="fill:rgb(46,56,59);fill-rule:nonzero;"/>
            <path d="M217.732,337.592C217.809,337.463 217.885,337.329 217.961,337.191C220.615,332.372 220.048,328.356 221.886,323.293C223.153,319.797 225.465,311.252 228.082,300.992C225.465,311.252 223.153,319.797 221.886,323.293C220.048,328.356 220.615,332.372 217.961,337.191C217.885,337.329 217.809,337.463 217.732,337.592Z" style="fill:rgb(242,242,242);fill-rule:nonzero;"/>
            <path d="M217.732,337.592C217.809,337.463 217.885,337.329 217.961,337.191C220.615,332.372 220.048,328.356 221.886,323.293C223.153,319.797 225.465,311.252 228.082,300.992C225.465,311.252 223.153,319.797 221.886,323.293C220.048,328.356 220.615,332.372 217.961,337.191C217.885,337.329 217.809,337.463 217.732,337.592Z" style="fill:rgb(242,242,242);fill-rule:nonzero;"/>
        </g>
        <path d="M212.106,341.155C209.542,341.155 206.339,339.963 202.094,338.562C203.876,320.191 211.037,256.62 226.119,240.523C227.048,240.388 227.98,240.329 228.903,240.329C232.378,240.329 235.708,241.171 238.142,241.999C228.831,245.232 222.545,252.231 221.085,263.622C219.778,273.819 223.294,287.277 228.082,300.992C225.465,311.252 223.153,319.797 221.886,323.293C220.048,328.356 220.615,332.372 217.961,337.191C217.885,337.329 217.809,337.463 217.732,337.592C216.509,339.65 215.147,340.679 213.503,341.023L213.505,341.019C213.06,341.112 212.595,341.155 212.106,341.155Z" style="fill:url(#_Linear17);"/>
        <path d="M228.082,300.992C223.294,287.277 219.778,273.819 221.085,263.622C222.545,252.231 228.831,245.232 238.142,241.999C240.495,242.799 242.011,243.586 242.011,243.586C242.011,243.586 234.209,276.981 228.082,300.992Z" style="fill:url(#_Linear18);"/>
        <g>
            <path d="M212.109,341.159C209.544,341.159 206.338,339.963 202.094,338.563C206.339,339.963 209.542,341.155 212.106,341.155C212.595,341.155 213.06,341.112 213.505,341.019L213.503,341.023C213.06,341.116 212.596,341.159 212.109,341.159Z" style="fill:rgb(242,242,242);fill-rule:nonzero;"/>
            <path d="M212.109,341.159C209.544,341.159 206.338,339.963 202.094,338.563C206.339,339.963 209.542,341.155 212.106,341.155C212.595,341.155 213.06,341.112 213.505,341.019L213.503,341.023C213.06,341.116 212.596,341.159 212.109,341.159Z" style="fill:rgb(44,53,56);fill-rule:nonzero;"/>
            <path d="M197.904,408.153C197.906,408.15 197.908,408.147 197.91,408.144C197.908,408.147 197.906,408.15 197.904,408.153ZM197.927,408.114C197.928,408.111 197.93,408.108 197.931,408.106C197.93,408.109 197.929,408.111 197.927,408.114ZM197.957,408.062C197.961,408.054 197.967,408.045 197.971,408.037C197.966,408.045 197.962,408.054 197.957,408.062ZM197.982,408.018C197.987,408.009 197.993,407.999 197.998,407.99C197.993,407.999 197.987,408.009 197.982,408.018ZM198.006,407.976C198.014,407.961 198.023,407.947 198.031,407.933C198.023,407.947 198.014,407.961 198.006,407.976ZM202.7,348.889C202.539,348.777 202.354,348.638 202.147,348.477C202.354,348.638 202.539,348.777 202.7,348.889Z" style="fill:rgb(242,242,242);fill-rule:nonzero;"/>
            <path d="M197.904,408.153C197.906,408.15 197.908,408.147 197.91,408.144C197.908,408.147 197.906,408.15 197.904,408.153ZM197.927,408.114C197.928,408.111 197.93,408.108 197.931,408.106C197.93,408.109 197.929,408.111 197.927,408.114ZM197.957,408.062C197.961,408.054 197.967,408.045 197.971,408.037C197.966,408.045 197.962,408.054 197.957,408.062ZM197.982,408.018C197.987,408.009 197.993,407.999 197.998,407.99C197.993,407.999 197.987,408.009 197.982,408.018ZM198.006,407.976C198.014,407.961 198.023,407.947 198.031,407.933C198.023,407.947 198.014,407.961 198.006,407.976ZM202.7,348.889C202.539,348.777 202.354,348.638 202.147,348.477C202.354,348.638 202.539,348.777 202.7,348.889Z" style="fill:rgb(242,242,242);fill-rule:nonzero;"/>
        </g>
        <path d="M186.998,417.196C182.668,382.164 194.595,352.945 198.025,345.447C199.691,346.485 201.165,347.717 202.147,348.477C202.354,348.638 202.539,348.777 202.7,348.889C203.032,349.121 203.351,349.355 203.66,349.593C205.401,350.94 206.766,352.399 207.832,353.933L207.838,353.919C210.056,357.115 210.918,360.66 210.916,364.301C210.91,374.157 204.574,384.716 201.683,390.961C198.421,398.005 197.956,403.651 197.956,406.298C197.957,407.354 198.031,407.933 198.031,407.933C198.023,407.947 198.014,407.961 198.006,407.976C198.003,407.98 198.001,407.985 197.998,407.99C197.993,407.999 197.987,408.009 197.982,408.018C197.979,408.024 197.975,408.03 197.971,408.037C197.967,408.045 197.961,408.054 197.957,408.062C197.948,408.077 197.94,408.092 197.931,408.106C197.93,408.108 197.928,408.111 197.927,408.114C197.921,408.124 197.915,408.134 197.91,408.144C197.908,408.147 197.906,408.15 197.904,408.153C197.25,409.284 196.573,410.282 195.882,411.162L195.882,411.121C192.888,414.942 189.651,416.57 186.998,417.194L186.998,417.196Z" style="fill:url(#_Linear19);"/>
        <g>
            <path d="M207.832,353.933C206.766,352.399 205.401,350.94 203.66,349.593C205.4,350.937 206.775,352.388 207.838,353.919L207.832,353.933ZM202.7,348.889C202.539,348.777 202.354,348.638 202.147,348.477C201.165,347.717 199.691,346.485 198.025,345.447C198.026,345.444 198.027,345.442 198.028,345.44C200.039,346.7 201.779,348.244 202.7,348.889Z" style="fill:rgb(242,242,242);fill-rule:nonzero;"/>
            <path d="M207.832,353.933C206.766,352.399 205.401,350.94 203.66,349.593C205.4,350.937 206.775,352.388 207.838,353.919L207.832,353.933ZM202.7,348.889C202.539,348.777 202.354,348.638 202.147,348.477C201.165,347.717 199.691,346.485 198.025,345.447C198.026,345.444 198.027,345.442 198.028,345.44C200.039,346.7 201.779,348.244 202.7,348.889Z" style="fill:rgb(44,53,56);fill-rule:nonzero;"/>
            <path d="M186.998,417.196C189.651,416.57 192.888,414.942 195.882,411.121L195.882,411.162C192.891,414.975 189.652,416.579 186.998,417.196Z" style="fill:rgb(242,242,242);fill-rule:nonzero;"/>
            <path d="M186.998,417.196C189.651,416.57 192.888,414.942 195.882,411.121L195.882,411.162C192.891,414.975 189.652,416.579 186.998,417.196Z" style="fill:rgb(44,53,56);fill-rule:nonzero;"/>
            <path d="M284.905,596.52L283.012,614.017C284.461,613.85 286.17,613.938 288.289,614.335C297.414,616.023 309.834,609.566 316.777,605.315L319.4,596.348C310.777,599.045 292.98,600.807 284.905,596.52Z" style="fill:rgb(46,56,59);fill-rule:nonzero;"/>
        </g>
        <path d="M297.213,762.229L296.755,767.674C301.713,766.911 306.908,765.271 311.587,763.772C321.434,760.623 342.718,755.699 350.423,749.045C358.127,742.391 358.863,730.678 346.956,729.981C340.087,729.575 330.677,730.89 322.322,729.934C324.241,734.784 326.328,741.924 324.275,746.467C320.927,753.872 297.213,762.229 297.213,762.229Z" style="fill:url(#_Linear20);"/>
        <path d="M318.597,358.518C307.368,367.689 290.741,372.581 272.593,368.66C265.026,367.025 259.181,363.973 254.904,360.973C255.642,372.095 256.431,392.315 253.713,405.111C263.236,412.839 281.583,423.829 306.458,420.753L306.506,420.906L322.19,392.195L325.597,394.329L327.588,374.957L329.979,374.957L331.096,346.014L318.597,358.518Z" style="fill:rgb(33,43,46);fill-rule:nonzero;"/>
        <path d="M304.394,753.916C304.394,758.495 301.178,764.061 297.211,766.355C293.247,768.646 290.031,766.782 290.031,762.209C290.031,757.628 293.247,752.057 297.211,749.768C301.178,747.477 304.394,749.337 304.394,753.916Z" style="fill:url(#_Linear21);"/>
        <g>
            <path d="M318.383,618.624C318.972,623.396 317.028,630.037 314.037,633.438C311.048,636.852 308.15,635.747 307.561,630.967C306.968,626.198 308.918,619.57 311.903,616.152C314.893,612.74 317.791,613.85 318.383,618.624Z" style="fill:rgb(212,219,223);fill-rule:nonzero;"/>
            <path d="M317.457,618.213C317.209,616.217 316.552,614.87 315.664,614.216C314.559,614.013 313.24,614.631 311.903,616.152C308.918,619.57 306.968,626.198 307.561,630.967C307.808,632.97 308.459,634.312 309.352,634.966C310.458,635.174 311.773,634.554 313.112,633.029C316.1,629.622 318.047,622.985 317.457,618.213Z" style="fill:rgb(88,103,112);fill-rule:nonzero;"/>
            <path d="M337.678,445.64C339.796,451.228 338.454,459.506 334.674,464.136C330.896,468.763 326.114,467.986 323.995,462.4C321.872,456.814 323.221,448.536 327.002,443.904C330.778,439.275 335.556,440.052 337.678,445.64Z" style="fill:rgb(212,219,223);fill-rule:nonzero;"/>
            <path d="M335.783,445.64C334.764,442.95 333.124,441.391 331.281,440.996C329.838,441.292 328.353,442.246 327.002,443.904C323.221,448.536 321.872,456.814 323.995,462.4C325.014,465.09 326.654,466.649 328.5,467.044C329.941,466.748 331.424,465.794 332.78,464.136C336.56,459.506 337.904,451.228 335.783,445.64Z" style="fill:rgb(88,103,112);fill-rule:nonzero;"/>
            <path d="M306.458,273.839C282.161,274.281 276.401,314.281 299.82,343.568C303.129,347.704 314.221,347.971 314.221,347.971L320.932,343.569C337.082,285.202 320.535,273.582 306.458,273.839Z" style="fill:rgb(46,56,59);fill-rule:nonzero;"/>
            <path d="M359.274,387.204C362.566,386.137 365.338,385.454 367.804,385.142L356.971,367.329C355.865,368.294 351.218,368.749 348.963,370.023C343.102,373.334 343.018,378.869 340.407,380.187L356.733,396.255C357.623,393.596 354.717,388.682 359.274,387.204Z" style="fill:rgb(46,56,59);fill-rule:nonzero;"/>
        </g>
        <path d="M366.889,405.225C362.671,406.045 353.944,405.459 353.393,394.61C352.587,378.741 360.629,370.934 375.698,363.173C390.766,355.418 409.076,345.314 412.52,344.43C415.969,343.542 425.592,353.043 422.458,358.339C419.33,363.63 401.141,383.86 391.1,391.828C381.053,399.796 373.675,403.903 366.889,405.225Z" style="fill:url(#_Linear22);"/>
        <g>
            <path d="M421.978,339.804L415.375,345.149C416.33,345.673 417.346,346.432 418.325,347.356L425.033,341.791C423.964,340.984 422.919,340.33 421.978,339.804Z" style="fill:rgb(46,56,59);fill-rule:nonzero;"/>
            <path d="M422.748,353.964L430.647,348.39C429.552,346.075 427.895,344.188 426.148,342.689L419.246,348.276C420.819,349.962 422.162,351.991 422.748,353.964Z" style="fill:rgb(46,56,59);fill-rule:nonzero;"/>
            <path d="M276.486,257.48L271.605,224.965C271.454,223.956 270.537,223.259 269.501,223.41C268.493,223.562 267.796,224.503 267.95,225.513L272.776,257.693C274.003,257.627 275.238,257.558 276.486,257.48Z" style="fill:rgb(21,31,34);fill-rule:nonzero;"/>
            <path d="M268,257.896C268.618,257.879 269.248,257.852 269.873,257.826L261.095,214.754C260.989,214.254 260.491,213.935 260.001,214.034C259.504,214.135 259.181,214.624 259.282,215.125L268,257.896Z" style="fill:rgb(21,31,34);fill-rule:nonzero;"/>
            <path d="M261.805,257.904L258.25,208.365C258.178,207.344 257.29,206.6 256.278,206.654C255.259,206.726 254.491,207.612 254.563,208.63L258.084,257.68C259.308,257.784 260.545,257.863 261.805,257.904Z" style="fill:rgb(21,31,34);fill-rule:nonzero;"/>
            <path d="M287.108,226.917C287.108,231.06 284.198,236.098 280.611,238.168C277.023,240.238 274.118,238.559 274.118,234.418C274.118,230.277 277.023,225.238 280.611,223.166C284.199,221.095 287.108,222.774 287.108,226.917Z" style="fill:rgb(46,56,59);fill-rule:nonzero;"/>
        </g>
        <path d="M291.685,224.111C292.059,220.804 292.241,217.413 292.241,214.154C292.241,208.1 291.613,202.501 290.418,198.743C291.208,197.083 291.678,195.313 291.678,193.687C291.678,190.876 290.275,189.251 288.234,189.251C287.399,189.251 286.457,189.523 285.46,190.098C284.107,190.88 282.855,192.102 281.834,193.539C278.183,192.501 274.98,188.939 272.158,176.711C271.015,171.758 267.205,168.105 262.349,165.411C256.44,162.13 248.984,160.273 242.913,159.23C250.029,154.192 258.825,151.278 267.584,151.278C272.16,151.278 276.727,152.074 281.036,153.778C297.259,160.191 301.283,181.44 301.853,183.703C302.425,185.966 298.891,187.476 299.897,190.368C300.902,193.26 302.915,196.276 301.154,208.097C300.09,215.245 298.422,219.494 294.823,222.264C294.826,222.259 294.829,222.253 294.832,222.249C294.036,222.86 293.157,223.404 292.162,223.888C292.005,223.964 291.846,224.038 291.685,224.111Z" style="fill:url(#_Linear23);"/>
        <path d="M291.685,224.111C293.3,209.822 291.337,193.965 286.569,193.965C280.881,193.965 276.141,193.965 272.158,176.711C269.921,167.016 257.459,162.297 246.959,160.017C241.599,163.365 229.995,172.269 230.823,186.197C232.531,215.019 245.614,210.261 248.078,224.111C248.078,224.111 249.402,234.359 267.228,235.308C282.21,236.105 290.799,228.856 294.832,222.249C293.911,222.956 292.878,223.573 291.685,224.111Z" style="fill:rgb(46,56,59);fill-rule:nonzero;"/>
        <path d="M264.771,216.596C262.525,216.596 260.114,216.445 257.536,216.109L254.276,207.462C255.873,207.691 257.742,207.857 259.795,207.857C265.07,207.857 271.553,206.756 277.699,202.773C274.576,205.391 272.24,209.962 272.24,213.814C272.24,214.608 272.339,215.319 272.524,215.938C270.184,216.355 267.607,216.596 264.771,216.596ZM284.972,211.118C285.775,209.338 286.247,207.46 286.247,205.728C286.247,205.121 286.189,204.563 286.08,204.058C287.843,202.839 289.39,200.892 290.409,198.762C290.95,200.46 291.375,202.536 291.678,204.862C290.52,206.438 288.382,208.873 284.972,211.118Z" style="fill:url(#_Linear24);"/>
        <path d="M243.632,206.289C243.632,206.289 235.85,203.276 232.44,201.002L238.125,212.025L246.936,214.776L243.632,206.289Z" style="fill:url(#_Linear25);"/>
        <path d="M267.228,235.308C260.34,234.941 255.932,233.184 253.094,231.168L255.469,236.623C255.469,236.623 255.235,240.204 269.356,241.093C276.16,241.522 285.46,239.731 287.106,235.369C287.674,233.859 288.726,229.127 288.726,229.127C283.891,232.979 276.897,235.823 267.228,235.308Z" style="fill:rgb(21,31,34);fill-rule:nonzero;"/>
        <path d="M276.116,218.816C274.394,218.816 273.076,217.788 272.524,215.938C272.339,215.319 272.24,214.608 272.24,213.814C272.24,209.962 274.576,205.391 277.699,202.773C278.196,202.356 278.713,201.988 279.245,201.681C279.258,201.673 279.271,201.666 279.285,201.658C279.526,203.978 280.847,205.301 282.686,205.301C283.521,205.301 284.463,205.028 285.46,204.451C285.669,204.33 285.876,204.199 286.08,204.058C286.189,204.563 286.247,205.121 286.247,205.728C286.247,207.46 285.775,209.338 284.972,211.118C283.705,213.927 281.612,216.493 279.245,217.86C278.12,218.509 277.058,218.816 276.116,218.816Z" style="fill:url(#_Linear26);"/>
        <path d="M290.418,198.743C290.234,198.165 290.037,197.632 289.827,197.146C290.126,196.248 290.293,195.34 290.293,194.484C290.293,192.299 289.203,191.036 287.617,191.036C286.968,191.036 286.235,191.248 285.46,191.695C284.591,192.197 283.776,192.931 283.072,193.8C282.654,193.739 282.241,193.654 281.834,193.539C282.855,192.102 284.107,190.88 285.46,190.098C286.457,189.523 287.399,189.251 288.234,189.251C290.275,189.251 291.678,190.876 291.678,193.687C291.678,195.313 291.208,197.083 290.418,198.743Z" style="fill:url(#_Linear27);"/>
        <path d="M279.285,201.658C279.258,201.405 279.245,201.14 279.245,200.864C279.245,198.463 280.265,195.748 281.834,193.539C282.241,193.654 282.654,193.739 283.072,193.8C281.61,195.604 280.624,197.988 280.624,200.067C280.624,200.253 280.632,200.433 280.648,200.606C280.224,200.957 279.799,201.291 279.37,201.61C279.341,201.626 279.313,201.642 279.285,201.658ZM290.409,198.762C290.226,198.186 290.029,197.654 289.819,197.17C289.822,197.162 289.824,197.154 289.827,197.146C290.037,197.632 290.234,198.165 290.418,198.743C290.415,198.749 290.412,198.756 290.409,198.762Z" style="fill:rgb(41,59,71);fill-rule:nonzero;"/>
        <path d="M286.08,204.058C285.975,203.576 285.824,203.142 285.63,202.758C287.477,201.617 289.063,199.427 289.819,197.17C290.029,197.654 290.226,198.186 290.409,198.762C289.39,200.892 287.843,202.839 286.08,204.058ZM279.37,201.61C279.799,201.291 280.224,200.957 280.648,200.606C280.66,200.747 280.678,200.884 280.701,201.016C280.27,201.159 279.825,201.357 279.37,201.61Z" style="fill:url(#_Linear28);"/>
        <path d="M282.686,205.301C280.847,205.301 279.526,203.978 279.285,201.658C279.313,201.642 279.341,201.626 279.37,201.61C279.825,201.357 280.27,201.159 280.701,201.016C280.974,202.616 281.96,203.518 283.301,203.518C283.951,203.518 284.684,203.307 285.46,202.86C285.517,202.827 285.574,202.793 285.63,202.758C285.824,203.142 285.975,203.576 286.08,204.058C285.876,204.199 285.669,204.33 285.46,204.451C284.463,205.028 283.521,205.301 282.686,205.301Z" style="fill:url(#_Linear29);"/>
        <path d="M289.827,197.146C289.712,196.882 289.594,196.631 289.471,196.396C289.593,195.872 289.659,195.352 289.659,194.853C289.659,192.953 288.711,191.855 287.333,191.855C286.769,191.855 286.133,192.039 285.46,192.427C284.835,192.787 284.243,193.287 283.711,193.877C283.496,193.857 283.283,193.831 283.072,193.8C283.776,192.931 284.591,192.197 285.46,191.695C286.235,191.248 286.968,191.036 287.617,191.036C289.203,191.036 290.293,192.299 290.293,194.484C290.293,195.34 290.126,196.248 289.827,197.146Z" style="fill:url(#_Linear30);"/>
        <path d="M280.648,200.606C280.632,200.433 280.624,200.253 280.624,200.067C280.624,197.988 281.61,195.604 283.072,193.8C283.283,193.831 283.496,193.857 283.711,193.877C282.266,195.478 281.263,197.745 281.263,199.7C281.263,199.828 281.268,199.952 281.276,200.072C281.067,200.254 280.858,200.432 280.648,200.606ZM289.819,197.17C289.705,196.907 289.587,196.658 289.465,196.424C289.467,196.414 289.469,196.405 289.471,196.396C289.594,196.631 289.712,196.882 289.827,197.146C289.824,197.154 289.822,197.162 289.819,197.17Z" style="fill:rgb(36,62,86);fill-rule:nonzero;"/>
        <path d="M285.63,202.758C285.531,202.562 285.422,202.38 285.302,202.211C285.354,202.183 285.407,202.154 285.46,202.123C287.337,201.04 288.928,198.697 289.465,196.424C289.587,196.658 289.705,196.907 289.819,197.17C289.063,199.427 287.477,201.617 285.63,202.758ZM280.701,201.016C280.678,200.884 280.66,200.747 280.648,200.606C280.858,200.432 281.067,200.254 281.276,200.072C281.295,200.344 281.335,200.596 281.394,200.829C281.168,200.875 280.936,200.938 280.701,201.016Z" style="fill:url(#_Linear31);"/>
        <path d="M283.301,203.518C281.96,203.518 280.974,202.616 280.701,201.016C280.936,200.938 281.168,200.875 281.394,200.829C281.698,202.026 282.51,202.696 283.586,202.696C284.105,202.696 284.686,202.54 285.302,202.211C285.422,202.38 285.531,202.562 285.63,202.758C285.574,202.793 285.517,202.827 285.46,202.86C284.684,203.307 283.951,203.518 283.301,203.518Z" style="fill:url(#_Linear32);"/>
        <path d="M289.471,196.396C289.325,196.115 289.173,195.855 289.016,195.619C289.026,195.482 289.032,195.347 289.032,195.213C289.032,193.596 288.227,192.661 287.055,192.661C286.575,192.661 286.033,192.818 285.46,193.148C285.097,193.358 284.747,193.622 284.417,193.929C284.18,193.916 283.945,193.899 283.711,193.877C284.243,193.287 284.835,192.787 285.46,192.427C286.133,192.039 286.769,191.855 287.333,191.855C288.711,191.855 289.659,192.953 289.659,194.853C289.659,195.352 289.593,195.872 289.471,196.396Z" style="fill:url(#_Linear33);"/>
        <path d="M281.276,200.072C281.268,199.952 281.263,199.828 281.263,199.7C281.263,197.745 282.266,195.478 283.711,193.877C283.945,193.899 284.18,193.916 284.417,193.929C282.951,195.29 281.885,197.479 281.885,199.34C281.885,199.403 281.887,199.464 281.889,199.525C281.685,199.711 281.481,199.893 281.276,200.072ZM289.465,196.424C289.32,196.145 289.169,195.888 289.013,195.653C289.014,195.642 289.015,195.631 289.016,195.619C289.173,195.855 289.325,196.115 289.471,196.396C289.469,196.405 289.467,196.414 289.465,196.424Z" style="fill:rgb(32,66,104);fill-rule:nonzero;"/>
        <path d="M285.302,202.211C285.166,202.02 285.017,201.846 284.856,201.691C285.053,201.616 285.254,201.52 285.46,201.401C287.308,200.336 288.827,197.838 289.013,195.653C289.169,195.888 289.32,196.145 289.465,196.424C288.928,198.697 287.337,201.04 285.46,202.123C285.407,202.154 285.354,202.183 285.302,202.211ZM281.394,200.829C281.335,200.596 281.295,200.344 281.276,200.072C281.481,199.893 281.685,199.711 281.889,199.525C281.907,199.991 281.996,200.395 282.143,200.732C281.9,200.744 281.65,200.776 281.394,200.829Z" style="fill:url(#_Linear34);"/>
        <path d="M283.586,202.696C282.51,202.696 281.698,202.026 281.394,200.829C281.65,200.776 281.9,200.744 282.143,200.732C282.469,201.479 283.085,201.89 283.862,201.89C284.171,201.89 284.505,201.825 284.856,201.691C285.017,201.846 285.166,202.02 285.302,202.211C284.686,202.54 284.105,202.696 283.586,202.696Z" style="fill:url(#_Linear35);"/>
        <path d="M289.016,195.619C288.517,194.871 287.963,194.356 287.357,194.117C287.148,193.982 286.901,193.912 286.627,193.912C286.489,193.912 286.345,193.929 286.195,193.965C285.592,193.964 284.999,193.959 284.417,193.929C284.747,193.622 285.097,193.358 285.46,193.148C286.033,192.818 286.575,192.661 287.055,192.661C288.227,192.661 289.032,193.596 289.032,195.213C289.032,195.347 289.026,195.482 289.016,195.619Z" style="fill:url(#_Linear36);"/>
        <path d="M281.889,199.525C281.887,199.464 281.885,199.403 281.885,199.34C281.885,197.479 282.951,195.29 284.417,193.929C284.999,193.959 285.592,193.964 286.195,193.965C285.962,194.021 285.715,194.121 285.46,194.269C284.072,195.069 282.934,196.979 282.855,198.603C282.536,198.92 282.213,199.228 281.889,199.525ZM289.013,195.653C288.547,194.953 288.032,194.457 287.471,194.2C287.434,194.17 287.396,194.142 287.357,194.117C287.963,194.356 288.517,194.871 289.016,195.619C289.015,195.631 289.014,195.642 289.013,195.653Z" style="fill:rgb(20,79,177);fill-rule:nonzero;"/>
        <path d="M284.856,201.691C284.204,201.06 283.354,200.726 282.372,200.726C282.296,200.726 282.22,200.728 282.143,200.732C281.996,200.395 281.907,199.991 281.889,199.525C282.213,199.228 282.536,198.92 282.855,198.603C282.852,198.663 282.851,198.722 282.851,198.781C282.851,199.959 283.442,200.641 284.297,200.641C284.648,200.641 285.043,200.527 285.46,200.285C286.902,199.454 288.067,197.435 288.067,195.771C288.067,195.043 287.843,194.505 287.471,194.2C288.032,194.457 288.547,194.953 289.013,195.653C288.827,197.838 287.308,200.336 285.46,201.401C285.254,201.52 285.053,201.616 284.856,201.691Z" style="fill:url(#_Linear37);"/>
        <path d="M283.862,201.89C283.085,201.89 282.469,201.479 282.143,200.732C282.22,200.728 282.296,200.726 282.372,200.726C283.354,200.726 284.204,201.06 284.856,201.691C284.505,201.825 284.171,201.89 283.862,201.89Z" style="fill:url(#_Linear38);"/>
        <path d="M287.357,194.117C287.103,194.017 286.841,193.965 286.569,193.965C286.444,193.965 286.319,193.965 286.195,193.965C286.345,193.929 286.489,193.912 286.627,193.912C286.901,193.912 287.148,193.982 287.357,194.117Z" style="fill:url(#_Linear39);"/>
        <path d="M282.855,198.603C282.934,196.979 284.072,195.069 285.46,194.269C285.715,194.121 285.962,194.021 286.195,193.965C286.319,193.965 286.444,193.965 286.569,193.965C286.841,193.965 287.103,194.017 287.357,194.117C287.396,194.142 287.434,194.17 287.471,194.2C287.244,194.096 287.009,194.031 286.767,194.008C286.55,194.308 286.331,194.603 286.11,194.89C285.908,194.92 285.689,194.999 285.46,195.13C284.596,195.629 283.869,196.732 283.661,197.776C283.394,198.059 283.126,198.335 282.855,198.603Z" style="fill:rgb(12,94,233);fill-rule:nonzero;"/>
        <path d="M284.297,200.641C283.442,200.641 282.851,199.959 282.851,198.781C282.851,198.722 282.852,198.663 282.855,198.603C283.126,198.335 283.394,198.059 283.661,197.776C283.623,197.971 283.602,198.164 283.602,198.35C283.602,199.19 284.021,199.676 284.63,199.676C284.88,199.676 285.162,199.594 285.46,199.422C286.488,198.829 287.32,197.39 287.32,196.203C287.32,195.363 286.901,194.877 286.29,194.877C286.232,194.877 286.172,194.881 286.11,194.89C286.331,194.603 286.55,194.308 286.767,194.008C287.009,194.031 287.244,194.096 287.471,194.2C287.843,194.505 288.067,195.043 288.067,195.771C288.067,197.435 286.902,199.454 285.46,200.285C285.043,200.527 284.648,200.641 284.297,200.641Z" style="fill:url(#_Linear40);"/>
        <path d="M283.661,197.776C283.869,196.732 284.596,195.629 285.46,195.13C285.689,194.999 285.908,194.92 286.11,194.89C285.315,195.93 284.497,196.889 283.661,197.776Z" style="fill:rgb(7,112,249);fill-rule:nonzero;"/>
        <path d="M284.63,199.676C284.021,199.676 283.602,199.19 283.602,198.35C283.602,198.164 283.623,197.971 283.661,197.776C284.497,196.889 285.315,195.93 286.11,194.89C286.172,194.881 286.232,194.877 286.29,194.877C286.901,194.877 287.32,195.363 287.32,196.203C287.32,197.39 286.488,198.829 285.46,199.422C285.162,199.594 284.88,199.676 284.63,199.676Z" style="fill:url(#_Linear41);"/>
        <g>
            <path d="M274.582,201.487C273.421,201.487 272.625,200.56 272.625,198.961C272.625,196.706 274.208,193.96 276.164,192.832C276.731,192.504 277.268,192.349 277.743,192.349C278.903,192.349 279.7,193.274 279.7,194.875C279.7,197.131 278.116,199.875 276.164,201.002C275.595,201.331 275.058,201.487 274.582,201.487ZM277.393,193.364C277.023,193.364 276.606,193.485 276.164,193.741C274.641,194.617 273.408,196.752 273.408,198.507C273.408,199.752 274.03,200.472 274.935,200.472C275.305,200.472 275.722,200.352 276.164,200.098C277.682,199.219 278.913,197.082 278.913,195.329C278.913,194.084 278.294,193.364 277.393,193.364Z" style="fill:rgb(41,59,71);fill-rule:nonzero;"/>
            <path d="M274.935,200.472C274.03,200.472 273.408,199.752 273.408,198.507C273.408,196.752 274.641,194.617 276.164,193.741C276.606,193.485 277.023,193.364 277.393,193.364C278.294,193.364 278.913,194.084 278.913,195.329C278.913,197.082 277.682,199.219 276.164,200.098C275.722,200.352 275.305,200.472 274.935,200.472ZM277.23,193.832C276.909,193.832 276.547,193.937 276.164,194.157C274.843,194.92 273.774,196.775 273.774,198.297C273.774,199.379 274.312,200.004 275.095,200.004C275.417,200.004 275.78,199.899 276.164,199.677C277.482,198.917 278.554,197.061 278.554,195.539C278.554,194.456 278.015,193.832 277.23,193.832Z" style="fill:rgb(36,62,86);fill-rule:nonzero;"/>
            <path d="M275.095,200.004C274.312,200.004 273.774,199.379 273.774,198.297C273.774,196.775 274.843,194.92 276.164,194.157C276.547,193.937 276.909,193.832 277.23,193.832C278.015,193.832 278.554,194.456 278.554,195.539C278.554,197.061 277.482,198.917 276.164,199.677C275.78,199.899 275.417,200.004 275.095,200.004ZM277.069,194.29C276.796,194.29 276.489,194.378 276.164,194.566C275.038,195.217 274.129,196.796 274.129,198.095C274.129,199.013 274.586,199.544 275.253,199.545C275.527,199.545 275.836,199.455 276.164,199.266C277.284,198.618 278.198,197.041 278.198,195.742C278.198,194.822 277.737,194.29 277.069,194.29Z" style="fill:rgb(32,66,104);fill-rule:nonzero;"/>
            <path d="M275.253,199.545C274.586,199.544 274.129,199.013 274.129,198.095C274.129,196.796 275.038,195.217 276.164,194.566C276.489,194.378 276.796,194.29 277.069,194.29C277.737,194.29 278.198,194.822 278.198,195.742C278.198,197.041 277.284,198.618 276.164,199.266C275.836,199.455 275.527,199.545 275.253,199.545ZM276.827,195.002C276.627,195.002 276.402,195.067 276.164,195.204C275.343,195.678 274.676,196.828 274.676,197.774C274.676,198.446 275.014,198.834 275.502,198.834C275.702,198.834 275.926,198.77 276.164,198.633C276.983,198.158 277.648,197.008 277.648,196.061C277.648,195.39 277.314,195.002 276.827,195.002Z" style="fill:rgb(20,79,177);fill-rule:nonzero;"/>
            <path d="M275.502,198.834C275.014,198.834 274.676,198.446 274.676,197.774C274.676,196.828 275.343,195.678 276.164,195.204C276.402,195.067 276.627,195.002 276.827,195.002C277.314,195.002 277.648,195.39 277.648,196.061C277.648,197.008 276.983,198.158 276.164,198.633C275.926,198.77 275.702,198.834 275.502,198.834ZM276.635,195.551C276.494,195.551 276.334,195.598 276.164,195.696C275.579,196.034 275.103,196.854 275.103,197.53C275.103,198.008 275.343,198.285 275.691,198.285C275.834,198.285 275.994,198.239 276.164,198.141C276.748,197.801 277.219,196.983 277.219,196.306C277.219,195.829 276.982,195.551 276.635,195.551Z" style="fill:rgb(12,94,233);fill-rule:nonzero;"/>
            <path d="M275.691,198.285C275.343,198.285 275.103,198.008 275.103,197.53C275.103,196.854 275.579,196.034 276.164,195.696C276.334,195.598 276.494,195.551 276.635,195.551C276.982,195.551 277.219,195.829 277.219,196.306C277.219,196.983 276.748,197.801 276.164,198.141C275.994,198.239 275.834,198.285 275.691,198.285Z" style="fill:rgb(7,112,249);fill-rule:nonzero;"/>
            <path d="M288.866,213.177C288.286,213.177 287.888,212.713 287.888,211.913C287.888,210.782 288.68,209.409 289.659,208.844C289.943,208.68 290.212,208.602 290.45,208.602C291.031,208.602 291.43,209.065 291.43,209.867C291.43,210.995 290.638,212.37 289.659,212.934C289.374,213.099 289.105,213.177 288.866,213.177ZM290.274,209.111C290.089,209.111 289.88,209.171 289.659,209.299C288.896,209.738 288.281,210.807 288.281,211.686C288.281,212.309 288.591,212.67 289.043,212.67C289.228,212.67 289.437,212.609 289.659,212.482C290.42,212.041 291.037,210.973 291.037,210.095C291.037,209.471 290.726,209.111 290.274,209.111Z" style="fill:rgb(41,59,71);fill-rule:nonzero;"/>
            <path d="M289.043,212.67C288.591,212.67 288.281,212.309 288.281,211.686C288.281,210.807 288.896,209.738 289.659,209.299C289.88,209.171 290.089,209.111 290.274,209.111C290.726,209.111 291.037,209.471 291.037,210.095C291.037,210.973 290.42,212.041 289.659,212.482C289.437,212.609 289.228,212.67 289.043,212.67ZM290.193,209.344C290.032,209.344 289.851,209.397 289.659,209.508C289,209.891 288.46,210.818 288.46,211.58C288.46,212.122 288.732,212.435 289.125,212.435C289.286,212.435 289.467,212.383 289.659,212.272C290.319,211.89 290.855,210.961 290.855,210.199C290.855,209.658 290.585,209.344 290.193,209.344Z" style="fill:rgb(36,62,86);fill-rule:nonzero;"/>
            <path d="M289.125,212.435C288.732,212.435 288.46,212.122 288.46,211.58C288.46,210.818 289,209.891 289.659,209.508C289.851,209.397 290.032,209.344 290.193,209.344C290.585,209.344 290.855,209.658 290.855,210.199C290.855,210.961 290.319,211.89 289.659,212.272C289.467,212.383 289.286,212.435 289.125,212.435ZM290.112,209.574C289.975,209.574 289.821,209.619 289.659,209.713C289.096,210.04 288.64,210.829 288.64,211.478C288.64,211.938 288.87,212.205 289.204,212.205C289.341,212.205 289.495,212.16 289.659,212.065C290.219,211.741 290.675,210.952 290.675,210.301C290.675,209.84 290.446,209.574 290.112,209.574Z" style="fill:rgb(32,66,104);fill-rule:nonzero;"/>
            <path d="M289.204,212.205C288.87,212.205 288.64,211.938 288.64,211.478C288.64,210.829 289.096,210.04 289.659,209.713C289.821,209.619 289.975,209.574 290.112,209.574C290.446,209.574 290.675,209.84 290.675,210.301C290.675,210.952 290.219,211.741 289.659,212.065C289.495,212.16 289.341,212.205 289.204,212.205ZM289.991,209.93C289.891,209.93 289.778,209.963 289.659,210.032C289.247,210.27 288.914,210.845 288.914,211.318C288.914,211.656 289.082,211.849 289.327,211.849C289.427,211.849 289.54,211.817 289.659,211.749C290.071,211.51 290.403,210.935 290.403,210.461C290.403,210.125 290.236,209.93 289.991,209.93Z" style="fill:rgb(20,79,177);fill-rule:nonzero;"/>
            <path d="M289.327,211.849C289.082,211.849 288.914,211.656 288.914,211.318C288.914,210.845 289.247,210.27 289.659,210.032C289.778,209.963 289.891,209.93 289.991,209.93C290.236,209.93 290.403,210.125 290.403,210.461C290.403,210.935 290.071,211.51 289.659,211.749C289.54,211.817 289.427,211.849 289.327,211.849ZM289.894,210.205C289.823,210.205 289.743,210.228 289.659,210.277C289.365,210.448 289.128,210.857 289.128,211.196C289.128,211.435 289.247,211.574 289.421,211.574C289.493,211.574 289.573,211.551 289.659,211.501C289.95,211.331 290.188,210.922 290.188,210.584C290.188,210.344 290.068,210.205 289.894,210.205Z" style="fill:rgb(12,94,233);fill-rule:nonzero;"/>
            <path d="M289.421,211.574C289.247,211.574 289.128,211.435 289.128,211.196C289.128,210.857 289.365,210.448 289.659,210.277C289.743,210.228 289.823,210.205 289.894,210.205C290.068,210.205 290.188,210.344 290.188,210.584C290.188,210.922 289.95,211.331 289.659,211.501C289.573,211.551 289.493,211.574 289.421,211.574Z" style="fill:rgb(7,112,249);fill-rule:nonzero;"/>
            <path d="M286.317,218.884C285.735,218.884 285.335,218.42 285.335,217.62C285.335,216.491 286.129,215.117 287.108,214.552C287.393,214.387 287.662,214.309 287.9,214.309C288.481,214.309 288.88,214.772 288.88,215.574C288.88,216.704 288.086,218.078 287.108,218.642C286.824,218.807 286.555,218.884 286.317,218.884ZM287.724,214.818C287.539,214.818 287.33,214.879 287.108,215.006C286.345,215.445 285.729,216.513 285.729,217.392C285.729,218.015 286.039,218.376 286.493,218.376C286.678,218.376 286.887,218.316 287.108,218.189C287.869,217.748 288.487,216.679 288.487,215.801C288.487,215.178 288.176,214.818 287.724,214.818Z" style="fill:rgb(41,59,71);fill-rule:nonzero;"/>
            <path d="M286.493,218.376C286.039,218.376 285.729,218.015 285.729,217.392C285.729,216.513 286.345,215.445 287.108,215.006C287.33,214.879 287.539,214.818 287.724,214.818C288.176,214.818 288.487,215.178 288.487,215.801C288.487,216.679 287.869,217.748 287.108,218.189C286.887,218.316 286.678,218.376 286.493,218.376ZM287.641,215.051C287.48,215.051 287.3,215.104 287.108,215.214C286.446,215.596 285.91,216.525 285.91,217.289C285.91,217.829 286.18,218.141 286.573,218.141C286.734,218.141 286.916,218.089 287.108,217.978C287.767,217.598 288.303,216.667 288.303,215.907C288.303,215.365 288.033,215.051 287.641,215.051Z" style="fill:rgb(36,62,86);fill-rule:nonzero;"/>
            <path d="M286.573,218.141C286.18,218.141 285.91,217.829 285.91,217.289C285.91,216.525 286.446,215.596 287.108,215.214C287.3,215.104 287.48,215.051 287.641,215.051C288.033,215.051 288.303,215.365 288.303,215.907C288.303,216.667 287.767,217.598 287.108,217.978C286.916,218.089 286.734,218.141 286.573,218.141ZM287.562,215.281C287.425,215.281 287.271,215.326 287.108,215.42C286.543,215.745 286.088,216.535 286.088,217.186C286.088,217.645 286.317,217.911 286.652,217.911C286.789,217.911 286.944,217.867 287.108,217.773C287.668,217.447 288.126,216.658 288.126,216.008C288.126,215.548 287.895,215.281 287.562,215.281Z" style="fill:rgb(32,66,104);fill-rule:nonzero;"/>
            <path d="M286.652,217.911C286.317,217.911 286.088,217.645 286.088,217.186C286.088,216.535 286.543,215.745 287.108,215.42C287.271,215.326 287.425,215.281 287.562,215.281C287.895,215.281 288.126,215.548 288.126,216.008C288.126,216.658 287.668,217.447 287.108,217.773C286.944,217.867 286.789,217.911 286.652,217.911ZM287.438,215.637C287.339,215.637 287.227,215.67 287.108,215.739C286.696,215.976 286.364,216.552 286.364,217.025C286.364,217.362 286.531,217.556 286.775,217.556C286.875,217.556 286.988,217.523 287.108,217.454C287.516,217.217 287.849,216.642 287.849,216.169C287.849,215.832 287.681,215.637 287.438,215.637Z" style="fill:rgb(20,79,177);fill-rule:nonzero;"/>
            <path d="M286.775,217.556C286.531,217.556 286.364,217.362 286.364,217.025C286.364,216.552 286.696,215.976 287.108,215.739C287.227,215.67 287.339,215.637 287.438,215.637C287.681,215.637 287.849,215.832 287.849,216.169C287.849,216.642 287.516,217.217 287.108,217.454C286.988,217.523 286.875,217.556 286.775,217.556ZM287.345,215.913C287.274,215.913 287.194,215.937 287.108,215.986C286.817,216.155 286.575,216.563 286.575,216.903C286.575,217.142 286.697,217.281 286.872,217.281C286.943,217.281 287.024,217.258 287.108,217.209C287.4,217.039 287.638,216.63 287.638,216.29C287.638,216.052 287.519,215.913 287.345,215.913Z" style="fill:rgb(12,94,233);fill-rule:nonzero;"/>
            <path d="M286.872,217.281C286.697,217.281 286.575,217.142 286.575,216.903C286.575,216.563 286.817,216.155 287.108,215.986C287.194,215.937 287.274,215.913 287.345,215.913C287.519,215.913 287.638,216.052 287.638,216.29C287.638,216.63 287.4,217.039 287.108,217.209C287.024,217.258 286.943,217.281 286.872,217.281Z" style="fill:rgb(7,112,249);fill-rule:nonzero;"/>
            <path d="M267.726,197.838C267.145,197.838 266.747,197.375 266.747,196.574C266.747,195.445 267.539,194.071 268.518,193.505C268.802,193.34 269.07,193.263 269.308,193.263C269.89,193.263 270.29,193.727 270.29,194.529C270.29,195.657 269.495,197.032 268.518,197.596C268.233,197.76 267.965,197.838 267.726,197.838ZM269.133,193.772C268.947,193.772 268.739,193.832 268.518,193.96C267.756,194.398 267.137,195.469 267.137,196.346C267.137,196.969 267.449,197.33 267.903,197.33C268.088,197.33 268.297,197.27 268.518,197.143C269.277,196.702 269.896,195.634 269.896,194.756C269.896,194.132 269.584,193.772 269.133,193.772Z" style="fill:rgb(41,59,71);fill-rule:nonzero;"/>
            <path d="M267.903,197.33C267.449,197.33 267.137,196.969 267.137,196.346C267.137,195.469 267.756,194.398 268.518,193.96C268.739,193.832 268.947,193.772 269.133,193.772C269.584,193.772 269.896,194.132 269.896,194.756C269.896,195.634 269.277,196.702 268.518,197.143C268.297,197.27 268.088,197.33 267.903,197.33ZM269.052,194.005C268.891,194.005 268.71,194.058 268.518,194.169C267.856,194.55 267.32,195.478 267.32,196.242C267.32,196.782 267.59,197.095 267.982,197.095C268.143,197.095 268.325,197.043 268.518,196.931C269.177,196.551 269.714,195.622 269.714,194.86C269.714,194.318 269.444,194.005 269.052,194.005Z" style="fill:rgb(36,62,86);fill-rule:nonzero;"/>
            <path d="M267.982,197.095C267.59,197.095 267.32,196.782 267.32,196.242C267.32,195.478 267.856,194.55 268.518,194.169C268.71,194.058 268.891,194.005 269.052,194.005C269.444,194.005 269.714,194.318 269.714,194.86C269.714,195.622 269.177,196.551 268.518,196.931C268.325,197.043 268.143,197.095 267.982,197.095ZM268.971,194.235C268.835,194.235 268.681,194.279 268.518,194.373C267.955,194.7 267.498,195.49 267.498,196.14C267.498,196.6 267.727,196.866 268.062,196.866C268.199,196.866 268.354,196.821 268.518,196.727C269.08,196.402 269.537,195.612 269.537,194.963C269.537,194.501 269.306,194.235 268.971,194.235Z" style="fill:rgb(32,66,104);fill-rule:nonzero;"/>
            <path d="M268.062,196.866C267.727,196.866 267.498,196.6 267.498,196.14C267.498,195.49 267.955,194.7 268.518,194.373C268.681,194.279 268.835,194.235 268.971,194.235C269.306,194.235 269.537,194.501 269.537,194.963C269.537,195.612 269.08,196.402 268.518,196.727C268.354,196.821 268.199,196.866 268.062,196.866ZM268.849,194.592C268.749,194.592 268.637,194.624 268.518,194.692C268.104,194.931 267.772,195.506 267.772,195.98C267.772,196.316 267.941,196.51 268.185,196.51C268.286,196.51 268.399,196.477 268.518,196.408C268.928,196.171 269.261,195.595 269.261,195.122C269.261,194.786 269.093,194.592 268.849,194.592Z" style="fill:rgb(20,79,177);fill-rule:nonzero;"/>
            <path d="M268.185,196.51C267.941,196.51 267.772,196.316 267.772,195.98C267.772,195.506 268.104,194.931 268.518,194.692C268.637,194.624 268.749,194.592 268.849,194.592C269.093,194.592 269.261,194.786 269.261,195.122C269.261,195.595 268.928,196.171 268.518,196.408C268.399,196.477 268.286,196.51 268.185,196.51ZM268.754,194.867C268.683,194.867 268.603,194.89 268.518,194.939C268.225,195.11 267.986,195.519 267.986,195.855C267.986,196.096 268.106,196.235 268.281,196.235C268.352,196.235 268.433,196.212 268.518,196.163C268.81,195.993 269.044,195.584 269.044,195.245C269.044,195.005 268.926,194.867 268.754,194.867Z" style="fill:rgb(12,94,233);fill-rule:nonzero;"/>
            <path d="M268.281,196.235C268.106,196.235 267.986,196.096 267.986,195.855C267.986,195.519 268.225,195.11 268.518,194.939C268.603,194.89 268.683,194.867 268.754,194.867C268.926,194.867 269.044,195.005 269.044,195.245C269.044,195.584 268.81,195.993 268.518,196.163C268.433,196.212 268.352,196.235 268.281,196.235Z" style="fill:rgb(7,112,249);fill-rule:nonzero;"/>
            <path d="M267.275,205.081C266.362,205.081 265.736,204.352 265.736,203.094C265.736,201.321 266.979,199.162 268.518,198.274C268.965,198.016 269.387,197.893 269.761,197.893C270.673,197.893 271.3,198.621 271.3,199.88C271.3,201.654 270.054,203.814 268.518,204.7C268.071,204.958 267.649,205.081 267.275,205.081ZM269.484,198.692C269.193,198.692 268.865,198.787 268.518,198.988C267.32,199.677 266.35,201.357 266.35,202.737C266.35,203.715 266.839,204.283 267.551,204.283C267.842,204.283 268.17,204.188 268.518,203.988C269.711,203.297 270.682,201.616 270.682,200.237C270.682,199.258 270.194,198.692 269.484,198.692Z" style="fill:rgb(41,59,71);fill-rule:nonzero;"/>
            <path d="M267.551,204.283C266.839,204.283 266.35,203.715 266.35,202.737C266.35,201.357 267.32,199.677 268.518,198.988C268.865,198.787 269.193,198.692 269.484,198.692C270.194,198.692 270.682,199.258 270.682,200.237C270.682,201.616 269.711,203.297 268.518,203.988C268.17,204.188 267.842,204.283 267.551,204.283ZM269.357,199.06C269.104,199.06 268.819,199.143 268.518,199.317C267.479,199.916 266.636,201.373 266.636,202.573C266.636,203.423 267.06,203.914 267.678,203.915C267.931,203.915 268.216,203.832 268.518,203.658C269.555,203.059 270.398,201.599 270.398,200.401C270.398,199.551 269.974,199.06 269.357,199.06Z" style="fill:rgb(36,62,86);fill-rule:nonzero;"/>
            <path d="M267.678,203.915C267.06,203.914 266.636,203.423 266.636,202.573C266.636,201.373 267.479,199.916 268.518,199.317C268.819,199.143 269.104,199.06 269.357,199.06C269.974,199.06 270.398,199.551 270.398,200.401C270.398,201.599 269.555,203.059 268.518,203.658C268.216,203.832 267.931,203.915 267.678,203.915ZM269.23,199.42C269.015,199.42 268.773,199.49 268.518,199.637C267.63,200.15 266.918,201.391 266.918,202.412C266.918,203.134 267.276,203.553 267.801,203.553C268.017,203.553 268.26,203.483 268.518,203.334C269.399,202.825 270.117,201.585 270.117,200.563C270.117,199.839 269.755,199.42 269.23,199.42Z" style="fill:rgb(32,66,104);fill-rule:nonzero;"/>
            <path d="M267.801,203.553C267.276,203.553 266.918,203.134 266.918,202.412C266.918,201.391 267.63,200.15 268.518,199.637C268.773,199.49 269.015,199.42 269.23,199.42C269.755,199.42 270.117,199.839 270.117,200.563C270.117,201.585 269.399,202.825 268.518,203.334C268.26,203.483 268.017,203.553 267.801,203.553ZM269.039,199.98C268.882,199.98 268.705,200.032 268.518,200.14C267.87,200.512 267.347,201.418 267.347,202.16C267.347,202.689 267.612,202.994 267.996,202.994C268.153,202.994 268.331,202.943 268.518,202.835C269.161,202.462 269.685,201.559 269.685,200.815C269.685,200.286 269.421,199.98 269.039,199.98Z" style="fill:rgb(20,79,177);fill-rule:nonzero;"/>
            <path d="M267.996,202.994C267.612,202.994 267.347,202.689 267.347,202.16C267.347,201.418 267.87,200.512 268.518,200.14C268.705,200.032 268.882,199.98 269.039,199.98C269.421,199.98 269.685,200.286 269.685,200.815C269.685,201.559 269.161,202.462 268.518,202.835C268.331,202.943 268.153,202.994 267.996,202.994ZM268.888,200.412C268.777,200.412 268.651,200.449 268.518,200.525C268.058,200.792 267.683,201.438 267.683,201.967C267.683,202.344 267.872,202.562 268.146,202.562C268.258,202.562 268.384,202.526 268.518,202.449C268.977,202.182 269.348,201.539 269.348,201.006C269.348,200.63 269.161,200.412 268.888,200.412Z" style="fill:rgb(12,94,233);fill-rule:nonzero;"/>
            <path d="M268.146,202.562C267.872,202.562 267.683,202.344 267.683,201.967C267.683,201.438 268.058,200.792 268.518,200.525C268.651,200.449 268.777,200.412 268.888,200.412C269.161,200.412 269.348,200.63 269.348,201.006C269.348,201.539 268.977,202.182 268.518,202.449C268.384,202.526 268.258,202.562 268.146,202.562Z" style="fill:rgb(7,112,249);fill-rule:nonzero;"/>
        </g>
        <path d="M303.576,278.156C313.212,273.195 321.769,282.306 334.625,309.784C343.799,329.392 356.833,344.199 360.852,359.706C362.469,365.935 358.354,372.584 353.292,375.444C343.828,380.789 344.432,387.384 342.422,386.461C337.232,384.085 330.798,375.429 326.302,369.529C316.552,356.724 270.228,295.323 303.576,278.156Z" style="fill:url(#_Linear42);"/>
        <path d="M440.345,323.409C440.345,323.409 441.67,321.569 440.58,319.552C438.952,316.55 436.776,316.141 435.332,317.362C433.889,318.58 430.197,320.182 423.817,322.844C417.435,325.507 418.083,322.087 417.442,320.441C416.807,318.794 417.772,312.79 413.463,313.546C409.153,314.299 410.079,318.269 410.034,320.079C409.987,321.889 409.102,325.64 409.071,329.734C409.048,332.688 411.018,336.764 412.223,339.385C415.257,338.703 421.423,337.939 424.527,341.987C427.653,346.065 429.757,349.764 430.803,355.897C432.135,354.509 433.173,353.609 433.53,353.392C438.036,350.652 440.819,342.241 441.773,338.625C442.72,335.011 441.17,331.006 441.17,331.006C441.17,331.006 442.77,328.348 442.712,326.674C442.658,324.998 440.345,323.409 440.345,323.409Z" style="fill:url(#_Linear43);"/>
        <g>
            <path d="M419.525,323.772C418.303,327.349 415.626,332.456 410.074,334.355C410.292,334.963 410.525,335.563 410.773,336.148C413.7,335.861 419.873,333.942 422.772,323.247C421.267,323.778 420.244,323.901 419.525,323.772Z" style="fill:rgb(46,56,59);fill-rule:nonzero;"/>
            <path d="M441.848,338.204C441.182,336.902 439.349,333.17 439.259,331.43C439.152,329.304 437.549,326.109 434.806,325.633C434.806,325.633 433.18,322.308 429.661,320.357C429.183,320.568 428.688,320.785 428.151,321.015C430.367,321.935 433.226,323.615 433.348,326.206C433.348,326.206 438.083,327.67 438.175,331.385C438.242,334.06 440.42,336.308 441.557,339.409C441.634,339.129 441.708,338.865 441.773,338.625C441.808,338.486 441.819,338.344 441.848,338.204Z" style="fill:rgb(46,56,59);fill-rule:nonzero;"/>
            <path d="M434.045,308.232C434.045,308.232 432.33,322.127 431.095,322.842C426.42,325.55 425.067,314.551 424.79,311.395C424.578,308.935 423.821,303.078 424.768,299.147C425.715,295.218 436.987,282.777 440.863,285.528C442.129,286.427 447.305,288.815 444.731,295.921C442.981,300.748 438.874,305.633 434.045,308.232Z" style="fill:rgb(242,169,131);fill-rule:nonzero;"/>
            <path d="M429.427,294.439C429.427,294.439 441.64,295.14 444.649,308.344L449.937,298.323L430.745,284.484L429.427,294.439Z" style="fill:rgb(219,226,230);fill-rule:nonzero;"/>
            <path d="M558.941,658.05C555.379,658.049 551.685,657.546 547.884,656.441C513.265,646.375 522.922,616.991 513.265,610.146C511.588,608.959 509.184,608.511 506.212,608.511C501.653,608.511 495.758,609.565 489.106,610.618C482.452,611.671 475.042,612.725 467.45,612.725C459.065,612.725 450.459,611.44 442.411,607.451C415.032,593.878 449.254,568.279 467.37,557.619C477.49,551.661 494.249,546.88 515.419,546.88C532.15,546.88 551.638,549.867 572.772,557.619C611.751,571.91 616.72,596.859 612.293,611.754C608.349,625.014 587.822,658.053 558.941,658.05Z" style="fill:rgb(229,229,229);fill-rule:nonzero;"/>
            <path d="M558.941,658.05C555.379,658.049 551.685,657.546 547.884,656.441C513.265,646.375 522.922,616.991 513.265,610.146C511.588,608.959 509.184,608.511 506.212,608.511C501.653,608.511 495.758,609.565 489.106,610.618C482.452,611.671 475.042,612.725 467.45,612.725C459.065,612.725 450.459,611.44 442.411,607.451C415.032,593.878 449.254,568.279 467.37,557.619C477.49,551.661 494.249,546.88 515.419,546.88C532.15,546.88 551.638,549.867 572.772,557.619C611.751,571.91 616.72,596.859 612.293,611.754C608.349,625.014 587.822,658.053 558.941,658.05Z" style="fill:rgb(229,229,229);fill-rule:nonzero;"/>
            <path d="M571.83,591.869C570.944,593.003 567.856,596.553 567.332,597.226C564.237,601.207 530.785,632.915 546.209,642.152C558.588,649.551 580.566,637.396 585.098,627.78C589.622,618.165 588.849,611.649 594.601,605.907C598.001,602.51 602.104,597.986 603.379,592.328C602.486,584.187 595.128,584.714 589.049,583.122C583.189,581.576 576.722,585.598 571.83,591.869Z" style="fill:rgb(28,28,28);fill-rule:nonzero;"/>
            <path d="M604.24,592.351C604.206,592.371 603.865,592.226 603.321,591.98C603.336,592.103 603.369,592.201 603.379,592.328C602.104,597.986 598.001,602.51 594.601,605.907C588.849,611.649 589.622,618.165 585.098,627.78C580.566,637.396 558.588,649.551 546.209,642.152C544.322,641.015 543.174,639.551 542.6,637.838C542.523,638.092 542.432,638.323 542.361,638.583C541.968,642.327 542.951,645.431 546.209,647.111C559.02,653.739 580.566,642.359 585.098,632.75C589.509,623.382 588.909,616.961 594.188,611.321L594.331,613.141C594.331,613.141 601.168,607.404 604.964,600.271L604.24,592.351Z" style="fill-rule:nonzero;"/>
            <path d="M528.134,558.368C527.577,559.775 514.854,564.918 508.893,568.378C501.032,572.931 495.734,581.184 480.002,589.136C470.881,593.756 448.86,597.427 449.639,587.369C449.332,588.657 449.504,590.02 449.613,591.095C450.638,601.223 469.848,597.235 478.983,592.616C494.709,584.657 500.018,576.4 507.874,571.854C508.85,571.282 510.014,570.668 511.271,570.034L511.271,572.488L526.953,565.146C526.953,565.146 528.371,560.614 528.292,557.619C528.243,557.974 528.189,558.239 528.134,558.368Z" style="fill-rule:nonzero;"/>
            <path d="M504.589,540.212C500.676,539.403 496.844,538.765 480.65,555.639C479.407,556.49 478.133,557.796 476.854,558.37C467.77,562.45 450.433,578.025 449.642,587.314C448.781,597.445 470.866,593.758 480.002,589.136C495.734,581.184 501.032,572.931 508.893,568.378C514.854,564.918 527.577,559.775 528.134,558.368C528.427,557.629 528.813,552.774 527.413,549.523C509.577,533.336 512.37,541.835 504.589,540.212Z" style="fill:rgb(28,28,28);fill-rule:nonzero;"/>
            <path d="M491.179,304.655C491.179,304.655 479.642,334.785 479.642,360.983C479.642,387.178 482.409,415.349 484,428.579C485.583,441.81 483.337,541.849 479.642,556.401C479.642,556.401 509.466,569.746 529.31,552.018C529.31,552.018 532.344,516.164 532.911,502.14C533.468,488.175 535.248,468.612 533.985,453.432C532.856,439.807 535.006,427.259 538.122,402.444C541.023,379.34 540.601,324.471 540.601,324.471C540.601,324.471 509.4,318.504 500.934,311.493C492.468,304.481 491.179,304.655 491.179,304.655Z" style="fill:rgb(12,34,41);fill-rule:nonzero;"/>
            <path d="M519.573,309.914C519.573,309.914 518.125,331.376 523.43,344.332C528.427,356.544 530.074,366.69 530.137,367.35C531.731,382.332 532.995,386.983 535.189,401.323C539.685,430.694 548.788,464.566 553.026,479.916C557.256,495.26 560.83,590.605 560.299,603.309C560.299,603.309 579.826,611.978 594.2,604.223C604.98,598.395 606.52,585.859 606.52,585.859C606.52,585.859 605.589,543.419 607.437,531.511C609.29,519.607 604.617,493.475 602.238,487.655C599.858,481.83 596.051,458.216 598.96,439.158C601.873,420.109 599.717,335.77 588.299,324.353L550.802,324.353L519.573,309.914Z" style="fill:rgb(21,44,51);fill-rule:nonzero;"/>
            <path d="M511.464,143.984L508.417,128.986C508.417,128.986 495.125,143.156 486.63,162.106C478.133,181.057 453.302,233.236 451.125,240.146C448.946,247.055 429.127,286.171 429.127,286.171C429.127,286.171 447.998,290.624 449.524,305.437C449.524,305.437 461.054,295.275 465.705,289.647C469.511,285.035 485.201,259.511 485.201,259.511L502.542,228.976L511.464,143.984Z" style="fill:rgb(12,34,41);fill-rule:nonzero;"/>
            <path d="M573.205,101.659C573.205,101.659 570.886,118.58 577.13,126.36C577.13,126.36 551.791,160.012 532.16,155.017C512.531,150.021 526.986,128.592 526.986,128.592L573.205,101.659Z" style="fill:rgb(216,143,105);fill-rule:nonzero;"/>
            <path d="M574.379,131.493L581.913,129.95C581.913,129.95 604.337,148.059 617.077,165.728C617.077,165.728 604.968,231.402 599.408,239.65C593.85,247.894 587.636,266.532 586.821,272.58C586.003,278.627 591.074,303.148 591.727,306.253C592.379,309.359 594.991,315.571 586.821,317.859C578.648,320.148 546.236,327.375 520.813,322.997C499.575,319.339 487.105,306.418 485.47,302.658C483.838,298.898 490.048,286.964 491.191,281.407C492.338,275.847 492.01,252.473 493.317,240.377C494.625,228.28 494.465,203.922 494.465,203.922C494.465,203.922 490.702,195.915 493.482,178.259C496.26,160.604 503.127,134.94 511.464,125.785L530.754,125.131C530.754,125.131 523.771,144.423 528.471,147.036C533.172,149.65 547.262,154.757 551.921,150.568C556.582,146.383 574.379,131.493 574.379,131.493Z" style="fill:rgb(229,236,240);fill-rule:nonzero;"/>
            <path d="M539.792,170.772L533.172,150.568L520.065,166.389C520.065,166.389 519.168,159.978 520.168,152.027C518.422,161.375 519.57,169.57 519.57,169.57L532.675,153.749L539.296,173.954C554.046,169.09 569.48,148.321 576.899,137.18C569.304,147.572 554.225,166.013 539.792,170.772Z" style="fill:rgb(219,226,230);fill-rule:nonzero;"/>
            <path d="M538.985,164.446L533.017,149.214L522.961,160.887L525.36,171.683C525.36,171.683 505.823,228.708 504.789,290.875L514.283,308.202L524.735,297.705C524.735,297.705 527.543,230.734 529.224,216.592C530.907,202.446 531.872,172.624 531.872,172.624L538.985,164.446Z" style="fill:rgb(162,26,26);fill-rule:nonzero;"/>
            <path d="M528.471,131.493C528.471,131.493 527.319,143.946 533.583,147.072C538.783,149.667 556.876,142.572 574.449,120.005L581.913,129.95C581.913,129.95 560.191,164.044 539.792,170.772L533.172,150.568L520.065,166.389C520.065,166.389 516.997,144.556 528.471,131.493Z" style="fill:rgb(239,246,250);fill-rule:nonzero;"/>
            <path d="M591.727,306.253C591.074,303.148 586.003,278.627 586.821,272.58C587.636,266.532 593.85,247.894 599.408,239.65C602.893,234.481 608.948,206.761 612.985,186.784L589.853,206.607C590.679,208.373 584.529,240.895 580.888,251.147C577.246,261.396 576.304,272.355 577.13,286.495C577.745,297.032 565.5,310.958 568.006,321.813C576.73,320.398 583.628,318.752 586.821,317.859C594.991,315.571 592.379,309.359 591.727,306.253Z" style="fill:rgb(219,226,230);fill-rule:nonzero;"/>
            <path d="M521.406,245.73L508.417,241.678L508.897,239.808L521.886,243.858L521.406,245.73Z" style="fill:rgb(151,151,151);fill-rule:nonzero;"/>
            <path d="M544.289,182.536L517.299,241.373C517.299,241.373 512.021,290.091 513.008,314.28C513.997,338.469 513.675,375.823 542.559,376.548C571.446,377.272 599.234,368.658 599.234,368.658C599.234,368.658 592.763,301.871 593.053,284.328C593.349,266.592 625.779,185.552 621.72,170.772C619.43,162.436 587.494,133.198 587.494,133.198L544.289,182.536Z" style="fill:rgb(23,41,46);fill-rule:nonzero;"/>
            <path d="M528.231,120.005L508.9,125.785C508.9,125.785 488.529,155.889 490.943,191.185C493.355,226.479 488.452,256.044 488.452,266.3C488.452,276.556 480.406,315.083 478.294,346.456C478.294,346.456 495.034,359.75 502.542,362.559C512.097,366.133 514.641,347.855 514.349,338.097C514.065,328.442 517.299,241.373 517.299,241.373C517.299,241.373 506.388,202.977 511.464,178.815C514.651,163.649 528.231,120.005 528.231,120.005Z" style="fill:rgb(21,44,51);fill-rule:nonzero;"/>
            <path d="M530.823,122.864C530.823,122.864 506.684,179.94 517.299,241.373C517.299,241.373 498.375,197.367 504.917,153.239L516.38,151.521L509.805,147.489L524.464,122.864L530.823,122.864Z" style="fill:rgb(23,41,46);fill-rule:nonzero;"/>
            <path d="M576.41,122.616C576.41,122.616 569.026,134.335 562.165,144.113C540.532,174.942 527.784,213.352 517.299,241.373L577.122,176.017L566.845,165.56L576.11,167.249L588.749,132.505L576.41,122.616Z" style="fill:rgb(32,50,56);fill-rule:nonzero;"/>
            <path d="M529.772,50.248C529.772,50.248 523.106,57.638 520.766,66.367C518.424,75.094 518.427,79.682 518.677,82.112C518.929,84.541 518.961,87.333 518.572,89.222C518.177,91.11 519.013,99.3 520.099,104.247C521.184,109.197 521.103,123.503 527.037,126.743C532.972,129.982 547.931,131.618 562.976,117.889C578.019,104.157 582.283,84.453 583.536,77.974C584.792,71.494 583.371,47.019 564.982,40.362C546.598,33.704 529.772,50.248 529.772,50.248Z" style="fill:rgb(242,169,131);fill-rule:nonzero;"/>
            <path d="M571.836,89.853C573.783,86.701 582.034,83.643 580.946,92.011C579.859,100.376 574.577,107.444 567.864,107.037C564.897,106.856 569.594,93.477 571.836,89.853Z" style="fill:rgb(242,169,131);fill-rule:nonzero;"/>
            <path d="M527.448,111.137C527.448,107.683 521.942,108.831 521.029,104.955C520.585,103.066 526.279,97.314 526.773,89.655C526.982,86.432 521.162,81.613 518.572,79.785C518.568,80.723 518.615,81.491 518.677,82.112C518.929,84.541 518.961,87.332 518.572,89.222C518.177,91.11 519.013,99.3 520.099,104.248C521.184,109.197 521.103,123.503 527.037,126.743C527.477,126.985 527.979,127.217 528.517,127.434C526.208,120.875 527.448,112.649 527.448,111.137Z" style="fill:rgb(216,143,105);fill-rule:nonzero;"/>
            <path d="M562.399,35.916C530.545,26.934 519.765,51.848 519.042,56.285C518.315,60.72 518.455,62.967 519.289,64.756C520.666,67.7 524.236,70.561 527.931,71.355C530.023,71.803 533.321,71.378 536.855,70.952C542.797,70.235 549.403,69.519 552.053,72.958C556.281,78.445 554.293,81.524 556.158,82.726C558.018,83.93 560.753,87.276 561.377,89.951C561.998,92.626 565.649,96.909 567.864,93.429C569.538,90.794 575.652,86.014 580.841,88.623C582.311,84.023 583.105,80.208 583.536,77.974C583.631,77.488 583.704,76.873 583.761,76.199L583.767,76.202C583.767,76.202 594.733,45.035 562.399,35.916Z" style="fill:rgb(86,51,23);fill-rule:nonzero;"/>
            <path d="M583.571,77.784C583.571,77.783 583.571,77.781 583.572,77.779C583.572,77.777 583.573,77.774 583.573,77.772C583.572,77.776 583.572,77.78 583.571,77.784Z" style="fill:rgb(204,193,185);fill-rule:nonzero;"/>
            <path d="M565.865,94.734C563.914,94.734 561.832,91.911 561.377,89.951C560.936,88.07 559.456,85.874 557.968,84.308C557.974,84.309 557.979,84.309 557.985,84.309C559.467,85.874 560.94,88.077 561.377,89.951C561.832,91.911 563.914,94.734 565.865,94.734C566.577,94.734 567.272,94.359 567.864,93.429C568.572,92.314 570.076,90.816 571.967,89.655C570.076,90.816 568.572,92.314 567.864,93.429C567.272,94.359 566.577,94.734 565.865,94.734ZM583.572,77.779C583.65,77.33 583.711,76.79 583.76,76.207C583.763,76.205 583.765,76.203 583.767,76.202C583.715,76.791 583.651,77.321 583.573,77.772C583.573,77.774 583.572,77.777 583.572,77.779Z" style="fill:rgb(194,128,95);fill-rule:nonzero;"/>
            <path d="M565.865,94.734C563.914,94.734 561.832,91.911 561.377,89.951C560.94,88.077 559.467,85.874 557.985,84.309C558.241,84.313 558.505,84.316 558.777,84.316C564.927,84.316 574.903,83.052 583.76,76.207C583.711,76.79 583.65,77.33 583.572,77.779C583.571,77.781 583.571,77.783 583.571,77.784C583.559,77.849 583.548,77.913 583.536,77.974C583.105,80.208 582.311,84.023 580.841,88.623C580.803,88.604 580.766,88.585 580.728,88.567C579.709,88.077 578.656,87.868 577.609,87.868C575.612,87.868 573.638,88.63 571.967,89.655C570.076,90.816 568.572,92.314 567.864,93.429C567.272,94.359 566.577,94.734 565.865,94.734Z" style="fill:rgb(69,39,17);fill-rule:nonzero;"/>
            <path d="M644.347,353.377L625.404,356.513C625.404,356.513 626.552,363.692 624.732,366.618C622.909,369.541 618.81,382.125 616.974,385.218C615.142,388.311 613.45,389.213 614.028,392.803C614.602,396.394 617.754,400.664 618.153,401.877C618.553,403.087 610.81,404.433 609.807,407.24C608.803,410.049 618.231,407.972 620.187,407.934C622.141,407.894 634.605,404.156 639.29,394.996C643.972,385.833 645.241,383.889 644.952,373.551C644.663,363.212 644.347,353.377 644.347,353.377Z" style="fill:rgb(242,169,131);fill-rule:nonzero;"/>
            <path d="M621.384,360.283L621.384,367.61C621.384,367.61 636.038,370.248 645.711,361.456L645.711,355.74L621.384,360.283Z" style="fill:rgb(239,246,250);fill-rule:nonzero;"/>
            <path d="M619.909,364.542C619.909,364.542 637.883,367.192 647.909,357.352C647.909,357.352 656.843,289.84 656.086,277.217C655.329,264.592 638.108,200.436 636.291,195.188C633.381,186.784 625.479,160.718 608.716,167.717C588.069,176.339 590.739,200.556 598.305,223.449C605.874,246.343 620.282,280.591 620.282,280.591L619.909,364.542Z" style="fill:rgb(32,50,56);fill-rule:nonzero;"/>
            <path d="M616.314,403.211C624.889,401.695 625.303,393.135 625.176,391.621C625.052,390.11 622.531,389.354 621.384,391.621C620.241,393.89 617.241,396.156 615.128,396.161C616.278,398.705 617.877,401.035 618.153,401.877C618.29,402.287 617.476,402.716 616.314,403.211Z" style="fill:rgb(216,143,105);fill-rule:nonzero;"/>
        </g>
    </g>
    <defs>
        <linearGradient id="_Linear1" x1="0" y1="0" x2="1" y2="0" gradientUnits="userSpaceOnUse" gradientTransform="matrix(51.3247,0,0,51.3247,195.007,631.527)"><stop offset="0" style="stop-color:rgb(212,219,223);stop-opacity:1"/><stop offset="1" style="stop-color:rgb(172,184,191);stop-opacity:1"/></linearGradient>
        <linearGradient id="_Linear2" x1="0" y1="0" x2="1" y2="0" gradientUnits="userSpaceOnUse" gradientTransform="matrix(63.3745,0,0,63.3745,214.598,483.275)"><stop offset="0" style="stop-color:rgb(212,219,223);stop-opacity:1"/><stop offset="1" style="stop-color:rgb(172,184,191);stop-opacity:1"/></linearGradient>
        <linearGradient id="_Linear3" x1="0" y1="0" x2="1" y2="0" gradientUnits="userSpaceOnUse" gradientTransform="matrix(51.3247,0,0,51.3247,195.007,631.527)"><stop offset="0" style="stop-color:rgb(201,208,212);stop-opacity:1"/><stop offset="0.5" style="stop-color:rgb(163,175,181);stop-opacity:1"/><stop offset="1" style="stop-color:rgb(242,242,242);stop-opacity:1"/></linearGradient>
        <linearGradient id="_Linear4" x1="0" y1="0" x2="1" y2="0" gradientUnits="userSpaceOnUse" gradientTransform="matrix(63.3745,0,0,63.3745,214.598,483.275)"><stop offset="0" style="stop-color:rgb(201,208,212);stop-opacity:1"/><stop offset="0.5" style="stop-color:rgb(163,175,181);stop-opacity:1"/><stop offset="1" style="stop-color:rgb(242,242,242);stop-opacity:1"/></linearGradient>
        <linearGradient id="_Linear5" x1="0" y1="0" x2="1" y2="0" gradientUnits="userSpaceOnUse" gradientTransform="matrix(45.3447,0,0,45.3447,219.38,691.779)"><stop offset="0" style="stop-color:rgb(212,219,223);stop-opacity:1"/><stop offset="1" style="stop-color:rgb(172,184,191);stop-opacity:1"/></linearGradient>
        <linearGradient id="_Linear6" x1="0" y1="0" x2="1" y2="0" gradientUnits="userSpaceOnUse" gradientTransform="matrix(14.3643,0,0,14.3643,208.799,705.627)"><stop offset="0" style="stop-color:rgb(212,219,223);stop-opacity:1"/><stop offset="1" style="stop-color:rgb(172,184,191);stop-opacity:1"/></linearGradient>
        <linearGradient id="_Linear7" x1="0" y1="0" x2="1" y2="0" gradientUnits="userSpaceOnUse" gradientTransform="matrix(66.4189,0,0,66.4189,245.167,435.985)"><stop offset="0" style="stop-color:rgb(212,219,223);stop-opacity:1"/><stop offset="1" style="stop-color:rgb(172,184,191);stop-opacity:1"/></linearGradient>
        <linearGradient id="_Linear8" x1="0" y1="0" x2="1" y2="0" gradientUnits="userSpaceOnUse" gradientTransform="matrix(49.6318,0,0,49.6318,272.396,667.307)"><stop offset="0" style="stop-color:rgb(212,219,223);stop-opacity:1"/><stop offset="1" style="stop-color:rgb(172,184,191);stop-opacity:1"/></linearGradient>
        <linearGradient id="_Linear9" x1="0" y1="0" x2="1" y2="0" gradientUnits="userSpaceOnUse" gradientTransform="matrix(73.2422,0,0,73.2422,274.962,510.951)"><stop offset="0" style="stop-color:rgb(212,219,223);stop-opacity:1"/><stop offset="1" style="stop-color:rgb(172,184,191);stop-opacity:1"/></linearGradient>
        <linearGradient id="_Linear10" x1="0" y1="0" x2="1" y2="0" gradientUnits="userSpaceOnUse" gradientTransform="matrix(48.3169,0,0,48.3169,193.694,290.744)"><stop offset="0" style="stop-color:rgb(212,219,223);stop-opacity:1"/><stop offset="1" style="stop-color:rgb(172,184,191);stop-opacity:1"/></linearGradient>
        <linearGradient id="_Linear11" x1="0" y1="0" x2="1" y2="0" gradientUnits="userSpaceOnUse" gradientTransform="matrix(30.0659,0,0,30.0659,180.85,380.556)"><stop offset="0" style="stop-color:rgb(212,219,223);stop-opacity:1"/><stop offset="1" style="stop-color:rgb(172,184,191);stop-opacity:1"/></linearGradient>
        <linearGradient id="_Linear12" x1="0" y1="0" x2="1" y2="0" gradientUnits="userSpaceOnUse" gradientTransform="matrix(32.8354,0,0,32.8354,179.66,440.885)"><stop offset="0" style="stop-color:rgb(212,219,223);stop-opacity:1"/><stop offset="1" style="stop-color:rgb(172,184,191);stop-opacity:1"/></linearGradient>
        <linearGradient id="_Linear13" x1="0" y1="0" x2="1" y2="0" gradientUnits="userSpaceOnUse" gradientTransform="matrix(49.6318,0,0,49.6318,272.396,667.307)"><stop offset="0" style="stop-color:rgb(201,208,212);stop-opacity:1"/><stop offset="0.5" style="stop-color:rgb(163,175,181);stop-opacity:1"/><stop offset="1" style="stop-color:rgb(242,242,242);stop-opacity:1"/></linearGradient>
        <linearGradient id="_Linear14" x1="0" y1="0" x2="1" y2="0" gradientUnits="userSpaceOnUse" gradientTransform="matrix(73.2422,0,0,73.2422,274.962,510.951)"><stop offset="0" style="stop-color:rgb(201,208,212);stop-opacity:1"/><stop offset="0.5" style="stop-color:rgb(163,175,181);stop-opacity:1"/><stop offset="1" style="stop-color:rgb(242,242,242);stop-opacity:1"/></linearGradient>
        <linearGradient id="_Linear15" x1="0" y1="0" x2="1" y2="0" gradientUnits="userSpaceOnUse" gradientTransform="matrix(114.36,0,0,114.36,220.81,304.944)"><stop offset="0" style="stop-color:rgb(212,219,223);stop-opacity:1"/><stop offset="1" style="stop-color:rgb(172,184,191);stop-opacity:1"/></linearGradient>
        <linearGradient id="_Linear16" x1="0" y1="0" x2="1" y2="0" gradientUnits="userSpaceOnUse" gradientTransform="matrix(114.36,0,0,114.36,220.81,304.944)"><stop offset="0" style="stop-color:rgb(201,208,212);stop-opacity:1"/><stop offset="0.5" style="stop-color:rgb(163,175,181);stop-opacity:1"/><stop offset="1" style="stop-color:rgb(242,242,242);stop-opacity:1"/></linearGradient>
        <linearGradient id="_Linear17" x1="0" y1="0" x2="1" y2="0" gradientUnits="userSpaceOnUse" gradientTransform="matrix(48.3169,0,0,48.3169,193.694,290.744)"><stop offset="0" style="stop-color:rgb(201,208,212);stop-opacity:1"/><stop offset="0.5" style="stop-color:rgb(163,175,181);stop-opacity:1"/><stop offset="1" style="stop-color:rgb(242,242,242);stop-opacity:1"/></linearGradient>
        <linearGradient id="_Linear18" x1="0" y1="0" x2="1" y2="0" gradientUnits="userSpaceOnUse" gradientTransform="matrix(114.36,0,0,114.36,220.81,304.944)"><stop offset="0" style="stop-color:rgb(201,208,212);stop-opacity:1"/><stop offset="0.5" style="stop-color:rgb(163,175,181);stop-opacity:1"/><stop offset="1" style="stop-color:rgb(242,242,242);stop-opacity:1"/></linearGradient>
        <linearGradient id="_Linear19" x1="0" y1="0" x2="1" y2="0" gradientUnits="userSpaceOnUse" gradientTransform="matrix(30.0659,0,0,30.0659,180.85,380.556)"><stop offset="0" style="stop-color:rgb(201,208,212);stop-opacity:1"/><stop offset="0.5" style="stop-color:rgb(163,175,181);stop-opacity:1"/><stop offset="1" style="stop-color:rgb(242,242,242);stop-opacity:1"/></linearGradient>
        <linearGradient id="_Linear20" x1="0" y1="0" x2="1" y2="0" gradientUnits="userSpaceOnUse" gradientTransform="matrix(59.3242,0,0,59.3242,296.755,748.787)"><stop offset="0" style="stop-color:rgb(212,219,223);stop-opacity:1"/><stop offset="1" style="stop-color:rgb(172,184,191);stop-opacity:1"/></linearGradient>
        <linearGradient id="_Linear21" x1="0" y1="0" x2="1" y2="0" gradientUnits="userSpaceOnUse" gradientTransform="matrix(14.3623,0,0,14.3623,290.031,758.061)"><stop offset="0" style="stop-color:rgb(212,219,223);stop-opacity:1"/><stop offset="1" style="stop-color:rgb(172,184,191);stop-opacity:1"/></linearGradient>
        <linearGradient id="_Linear22" x1="0" y1="0" x2="1" y2="0" gradientUnits="userSpaceOnUse" gradientTransform="matrix(-11.8311,-46.0965,46.0965,-11.8311,394.061,398.299)"><stop offset="0" style="stop-color:rgb(212,219,223);stop-opacity:1"/><stop offset="1" style="stop-color:rgb(172,184,191);stop-opacity:1"/></linearGradient>
        <linearGradient id="_Linear23" x1="0" y1="0" x2="1" y2="0" gradientUnits="userSpaceOnUse" gradientTransform="matrix(59.0034,0,0,59.0034,242.913,187.695)"><stop offset="0" style="stop-color:rgb(212,219,223);stop-opacity:1"/><stop offset="1" style="stop-color:rgb(172,184,191);stop-opacity:1"/></linearGradient>
        <linearGradient id="_Linear24" x1="0" y1="0" x2="1" y2="0" gradientUnits="userSpaceOnUse" gradientTransform="matrix(37.4014,0,0,37.4014,254.276,205.302)"><stop offset="0" style="stop-color:rgb(86,93,98);stop-opacity:1"/><stop offset="1" style="stop-color:rgb(47,59,66);stop-opacity:1"/></linearGradient>
        <linearGradient id="_Linear25" x1="0" y1="0" x2="1" y2="0" gradientUnits="userSpaceOnUse" gradientTransform="matrix(14.4951,0,0,14.4951,232.44,207.889)"><stop offset="0" style="stop-color:rgb(86,93,98);stop-opacity:1"/><stop offset="1" style="stop-color:rgb(47,59,66);stop-opacity:1"/></linearGradient>
        <linearGradient id="_Linear26" x1="0" y1="0" x2="1" y2="0" gradientUnits="userSpaceOnUse" gradientTransform="matrix(14.0073,0,0,14.0073,272.24,209.771)"><stop offset="0" style="stop-color:rgb(212,219,223);stop-opacity:1"/><stop offset="1" style="stop-color:rgb(172,184,191);stop-opacity:1"/></linearGradient>
        <linearGradient id="_Linear27" x1="0" y1="0" x2="1" y2="0" gradientUnits="userSpaceOnUse" gradientTransform="matrix(59.0034,0,0,59.0034,242.913,187.695)"><stop offset="0" style="stop-color:rgb(207,221,230);stop-opacity:1"/><stop offset="1" style="stop-color:rgb(163,189,205);stop-opacity:1"/></linearGradient>
        <linearGradient id="_Linear28" x1="0" y1="0" x2="1" y2="0" gradientUnits="userSpaceOnUse" gradientTransform="matrix(37.4014,0,0,37.4014,254.276,205.302)"><stop offset="0" style="stop-color:rgb(77,99,119);stop-opacity:1"/><stop offset="1" style="stop-color:rgb(42,62,80);stop-opacity:1"/></linearGradient>
        <linearGradient id="_Linear29" x1="0" y1="0" x2="1" y2="0" gradientUnits="userSpaceOnUse" gradientTransform="matrix(14.0073,0,0,14.0073,272.24,209.771)"><stop offset="0" style="stop-color:rgb(207,221,230);stop-opacity:1"/><stop offset="1" style="stop-color:rgb(163,189,205);stop-opacity:1"/></linearGradient>
        <linearGradient id="_Linear30" x1="0" y1="0" x2="1" y2="0" gradientUnits="userSpaceOnUse" gradientTransform="matrix(59.0034,0,0,59.0034,242.913,187.695)"><stop offset="0" style="stop-color:rgb(202,223,235);stop-opacity:1"/><stop offset="1" style="stop-color:rgb(153,193,216);stop-opacity:1"/></linearGradient>
        <linearGradient id="_Linear31" x1="0" y1="0" x2="1" y2="0" gradientUnits="userSpaceOnUse" gradientTransform="matrix(37.4014,0,0,37.4014,254.276,205.302)"><stop offset="0" style="stop-color:rgb(68,105,144);stop-opacity:1"/><stop offset="1" style="stop-color:rgb(37,66,97);stop-opacity:1"/></linearGradient>
        <linearGradient id="_Linear32" x1="0" y1="0" x2="1" y2="0" gradientUnits="userSpaceOnUse" gradientTransform="matrix(14.0073,0,0,14.0073,272.24,209.771)"><stop offset="0" style="stop-color:rgb(202,223,235);stop-opacity:1"/><stop offset="1" style="stop-color:rgb(153,193,216);stop-opacity:1"/></linearGradient>
        <linearGradient id="_Linear33" x1="0" y1="0" x2="1" y2="0" gradientUnits="userSpaceOnUse" gradientTransform="matrix(59.0034,0,0,59.0034,242.913,187.695)"><stop offset="0" style="stop-color:rgb(196,225,240);stop-opacity:1"/><stop offset="1" style="stop-color:rgb(142,197,224);stop-opacity:1"/></linearGradient>
        <linearGradient id="_Linear34" x1="0" y1="0" x2="1" y2="0" gradientUnits="userSpaceOnUse" gradientTransform="matrix(37.4014,0,0,37.4014,254.276,205.302)"><stop offset="0" style="stop-color:rgb(60,111,168);stop-opacity:1"/><stop offset="1" style="stop-color:rgb(33,70,118);stop-opacity:1"/></linearGradient>
        <linearGradient id="_Linear35" x1="0" y1="0" x2="1" y2="0" gradientUnits="userSpaceOnUse" gradientTransform="matrix(14.0073,0,0,14.0073,272.24,209.771)"><stop offset="0" style="stop-color:rgb(196,225,240);stop-opacity:1"/><stop offset="1" style="stop-color:rgb(142,197,224);stop-opacity:1"/></linearGradient>
        <linearGradient id="_Linear36" x1="0" y1="0" x2="1" y2="0" gradientUnits="userSpaceOnUse" gradientTransform="matrix(59.0034,0,0,59.0034,242.913,187.695)"><stop offset="0" style="stop-color:rgb(175,231,251);stop-opacity:1"/><stop offset="1" style="stop-color:rgb(100,209,247);stop-opacity:1"/></linearGradient>
        <linearGradient id="_Linear37" x1="0" y1="0" x2="1" y2="0" gradientUnits="userSpaceOnUse" gradientTransform="matrix(37.4014,0,0,37.4014,254.276,205.302)"><stop offset="0" style="stop-color:rgb(37,133,230);stop-opacity:1"/><stop offset="1" style="stop-color:rgb(20,84,201);stop-opacity:1"/></linearGradient>
        <linearGradient id="_Linear38" x1="0" y1="0" x2="1" y2="0" gradientUnits="userSpaceOnUse" gradientTransform="matrix(14.0073,0,0,14.0073,272.24,209.771)"><stop offset="0" style="stop-color:rgb(175,231,251);stop-opacity:1"/><stop offset="1" style="stop-color:rgb(100,209,247);stop-opacity:1"/></linearGradient>
        <linearGradient id="_Linear39" x1="0" y1="0" x2="1" y2="0" gradientUnits="userSpaceOnUse" gradientTransform="matrix(59.0034,0,0,59.0034,242.913,187.695)"><stop offset="0" style="stop-color:rgb(146,236,254);stop-opacity:1"/><stop offset="1" style="stop-color:rgb(62,219,253);stop-opacity:1"/></linearGradient>
        <linearGradient id="_Linear40" x1="0" y1="0" x2="1" y2="0" gradientUnits="userSpaceOnUse" gradientTransform="matrix(37.4014,0,0,37.4014,254.276,205.302)"><stop offset="0" style="stop-color:rgb(23,158,248);stop-opacity:1"/><stop offset="1" style="stop-color:rgb(12,100,240);stop-opacity:1"/></linearGradient>
        <linearGradient id="_Linear41" x1="0" y1="0" x2="1" y2="0" gradientUnits="userSpaceOnUse" gradientTransform="matrix(37.4014,0,0,37.4014,254.276,205.302)"><stop offset="0" style="stop-color:rgb(14,178,253);stop-opacity:1"/><stop offset="1" style="stop-color:rgb(7,120,251);stop-opacity:1"/></linearGradient>
        <linearGradient id="_Linear42" x1="0" y1="0" x2="1" y2="0" gradientUnits="userSpaceOnUse" gradientTransform="matrix(35.0567,-19.8012,19.8012,35.0567,307.122,341.456)"><stop offset="0" style="stop-color:rgb(212,219,223);stop-opacity:1"/><stop offset="1" style="stop-color:rgb(172,184,191);stop-opacity:1"/></linearGradient>
        <linearGradient id="_Linear43" x1="0" y1="0" x2="1" y2="0" gradientUnits="userSpaceOnUse" gradientTransform="matrix(33.0676,-6.87289,6.87289,33.0676,410.424,337.154)"><stop offset="0" style="stop-color:rgb(212,219,223);stop-opacity:1"/><stop offset="1" style="stop-color:rgb(172,184,191);stop-opacity:1"/></linearGradient>
    </defs>
</svg>
