<?xml version="1.0" encoding="utf-8"?>
<!-- Generator: Adobe Illustrator 19.2.0, SVG Export Plug-In . SVG Version: 6.00 Build 0)  -->
<svg version="1.1"
	 id="svg2" xmlns:cc="http://creativecommons.org/ns#" xmlns:dc="http://purl.org/dc/elements/1.1/" xmlns:rdf="http://www.w3.org/1999/02/22-rdf-syntax-ns#" xmlns:svg="http://www.w3.org/2000/svg"
	 xmlns="http://www.w3.org/2000/svg" xmlns:xlink="http://www.w3.org/1999/xlink" x="0px" y="0px" viewBox="0 0 400 400"
	 style="enable-background:new 0 0 400 400;" xml:space="preserve" width="600" height="600">
<style type="text/css">
	.st0{clip-path:url(#SVGID_2_);}
	.st1{fill:none;stroke:#241E22;stroke-width:4;stroke-miterlimit:10;}
	.st2{fill:none;stroke:#9867D0;stroke-width:4;stroke-miterlimit:10;}
	.st3{fill:#FFFFFF;stroke:#241E22;stroke-width:4;stroke-linecap:round;stroke-linejoin:round;stroke-miterlimit:10;}
	.st4{fill:#9867D0;stroke:#9867D0;stroke-miterlimit:10;}
	.st5{fill:none;stroke:#241E22;stroke-width:3;stroke-linecap:round;stroke-linejoin:round;stroke-miterlimit:10;}
	.st6{fill:#FFFFFF;stroke:#9867D0;stroke-width:4;stroke-linecap:round;stroke-linejoin:round;stroke-miterlimit:10;}
	.st7{fill:#FFFFFF;}
	.st8{fill:none;stroke:#241E22;stroke-width:4;stroke-linecap:round;stroke-linejoin:round;stroke-miterlimit:10;}
	.st9{fill:#9867D0;}
</style>
<g id="g10" transform="matrix(1.3333333,0,0,-1.3333333,0,400)">
	<g id="g12">
		<g>
			<defs>
				<rect id="SVGID_1_" x="-50" y="-50" width="400" height="400"/>
			</defs>
			<clipPath id="SVGID_2_">
				<use xlink:href="#SVGID_1_"  style="overflow:visible;"/>
			</clipPath>
			<g id="g14" class="st0">
				<g id="g20" transform="translate(235.1914,44.5811)">
					<path id="path22" class="st1" d="M0,0c-23.3-18.8-52.9-30.1-85.2-30.1c-46.4,0-87.4,23.3-111.8,58.9"/>
				</g>
				<g id="g24" transform="translate(252.8926,61.7773)">
					<path id="path26" class="st1" d="M0,0c-4.2-4.9-8.8-9.6-13.7-13.8"/>
				</g>
				<g id="g28" transform="translate(261.7607,73.3037)">
					<path id="path30" class="st1" d="M0,0c-1.9-2.8-3.9-5.4-6-8"/>
				</g>
				<g id="g32" transform="translate(285.1592,139.8408)">
					<path id="path34" class="st1" d="M0,0C-1.1-14.9-4.6-29-10.1-42.2"/>
				</g>
				<g id="g36" transform="translate(283.1836,175.2622)">
					<path id="path38" class="st1" d="M0,0c0.7-3.6,1.2-7.4,1.6-11.1c0.5-4.7,0.7-9.4,0.7-14.2"/>
				</g>
				<g id="g40" transform="translate(227.2627,261.3696)">
					<path id="path42" class="st1" d="M0,0c26.2-18.2,45.7-45.5,54-77.3"/>
				</g>
				<g id="g44" transform="translate(87.2383,270.1577)">
					<path id="path46" class="st1" d="M0,0c18.8,9.8,40.1,15.4,62.8,15.4c23.4,0,45.4-5.9,64.6-16.4"/>
				</g>
				<g id="g48" transform="translate(15.8291,130.707)">
					<path id="path50" class="st1" d="M0,0c-0.9,6.3-1.4,12.7-1.4,19.3c0,32.8,11.7,63,31.1,86.4"/>
				</g>
				<g id="g52" transform="translate(171.2178,34.0674)">
					<path id="path54" class="st2" d="M0,0c-6.9-1.3-14-1.9-21.2-1.9c-35.8,0-67.9,16-89.5,41.1"/>
				</g>
				<g id="g56" transform="translate(222.2275,56.8867)">
					<path id="path58" class="st2" d="M0,0c-13.1-10.2-28.4-17.7-45.1-21.6"/>
				</g>
				<g id="g60" transform="translate(235.8486,69.2803)">
					<path id="path62" class="st2" d="M0,0c-2.7-2.9-5.5-5.6-8.5-8.2"/>
				</g>
				<g id="g64" transform="translate(238.0225,228.3452)">
					<path id="path66" class="st2" d="M0,0c18.5-20.8,29.8-48.3,29.8-78.3c0-11.6-1.7-22.8-4.8-33.3"/>
				</g>
				<g id="g68" transform="translate(101.3916,257.3765)">
					<path id="path70" class="st2" d="M0,0c14.8,6.7,31.3,10.5,48.6,10.5c30.9,0,59.1-11.9,80.1-31.4"/>
				</g>
				<g id="g72" transform="translate(32.1626,150)">
					<path id="path74" class="st2" d="M0,0c0,29.3,10.7,56.1,28.4,76.7"/>
				</g>
				<g id="g76" transform="translate(49.7539,150)">
					<path id="path78" class="st2" d="M0,0c0,17.3,4.4,33.6,12.1,47.9"/>
				</g>
				<g id="g80" transform="translate(129.9097,51.7676)">
					<path id="path82" class="st2" d="M0,0c-15.6,3.2-29.9,10-42,19.5"/>
				</g>
				<g id="g84" transform="translate(217.123,75.542)">
					<path id="path86" class="st2" d="M0,0c-17.8-16-41.3-25.8-67.1-25.8c-4.1,0-8.1,0.2-12,0.7"/>
				</g>
				<g id="g88" transform="translate(197.2158,238.4526)">
					<path id="path90" class="st2" d="M0,0c20.6-11,36.9-29,45.7-50.8"/>
				</g>
				<g id="g92" transform="translate(175.5283,87.4658)">
					<path id="path94" class="st3" d="M0,0h-86v154.1h74.3l45.6-42.2V55.4V0"/>
				</g>
				<g id="g96" transform="translate(163.7656,241.5371)">
					<path id="path98" class="st4" d="M0,0l45.6-42.2H0V0z"/>
				</g>
				<g id="g100" transform="translate(163.7656,241.5371)">
					<path id="path102" class="st5" d="M0,0l45.6-42.2H0V0z"/>
				</g>
				<g id="g104" transform="translate(113.3911,197.3267)">
					<path id="path106" class="st6" d="M0,0h21.8"/>
				</g>
				<g id="g108" transform="translate(113.3911,181.7773)">
					<path id="path110" class="st6" d="M0,0h21.8"/>
				</g>
				<g id="g112" transform="translate(113.3911,166.2285)">
					<path id="path114" class="st6" d="M0,0h57.5"/>
				</g>
				<g id="g116" transform="translate(113.3911,136.5049)">
					<path id="path118" class="st6" d="M0,0h57.5"/>
				</g>
				<g id="g120" transform="translate(113.3911,151.3667)">
					<path id="path122" class="st6" d="M0,0h57.5"/>
				</g>
				<g id="g124" transform="translate(240.293,135.2383)">
					<path id="path126" class="st7" d="M0,0c0-17.1-13.8-30.9-30.9-30.9S-61.8-17.1-61.8,0s13.8,30.9,30.9,30.9S0,17.1,0,0"/>
				</g>
				<g id="g128" transform="translate(240.293,135.2383)">
					<path id="path130" class="st8" d="M0,0c0-17.1-13.8-30.9-30.9-30.9S-61.8-17.1-61.8,0s13.8,30.9,30.9,30.9S0,17.1,0,0z"/>
				</g>
				<g id="g132" transform="translate(225.623,132.3027)">
					<path id="path134" class="st9" d="M0,0h-26.1l-6.6,0c-1.3,0-2-1.5-1-2.3l16-13.5c0.8-0.7,2.2-0.7,2.9,0.1
						c0.8,0.8,0.7,1.9-0.1,2.6l-10.2,8.6c-0.4,0.3-0.1,0.8,0.4,0.8H0.1c1.3,0,2.3,1,2,2.2C2-0.6,1,0,0,0"/>
				</g>
				<g id="g136" transform="translate(193.6572,136.7031)">
					<path id="path138" class="st9" d="M0,0h26.1l6.6,0c1.3,0,2,1.5,1,2.3l-16,13.5c-0.8,0.7-2.2,0.7-2.9-0.1
						c-0.8-0.8-0.7-1.9,0.1-2.6l10.2-8.6c0.4-0.3,0.1-0.8-0.4-0.8H-0.1c-1.3,0-2.3-1-2-2.2C-2,0.6-1,0,0,0"/>
				</g>
				<g id="g140" transform="translate(270.0146,87.4658)">
					<path id="path142" class="st8" d="M0,0h12.5"/>
				</g>
				<g id="g144" transform="translate(24.6157,87.4658)">
					<path id="path146" class="st8" d="M0,0h225.1"/>
				</g>
			</g>
		</g>
	</g>
</g>
</svg>
