<?xml version="1.0" encoding="UTF-8"?>
<svg width="191px" height="152px" viewBox="0 0 191 152" version="1.1" xmlns="http://www.w3.org/2000/svg" xmlns:xlink="http://www.w3.org/1999/xlink">
    <!-- Generator: Sketch 51 (57462) - http://www.bohemiancoding.com/sketch -->
    <title>medium-logo</title>
    <desc>Created with Sketch.</desc>
    <defs></defs>
    <g id="Page-1" stroke="none" stroke-width="1" fill="none" fill-rule="evenodd">
        <g id="medium-logo" transform="translate(-1.000000, -20.000000)">
            <rect id="backgroundrect" x="0" y="0" width="195" height="195"></rect>
            <g id="Layer-1" transform="translate(1.000000, 20.000000)" fill="#9067C6" fill-rule="nonzero">
                <g id="Page-1">
                    <g id="Monogram">
                        <path d="M23.2,31.4 C23.4,29.1 22.5,26.8 20.8,25.2 L3.1,3.9 L3.1,0.7 L58.1,0.7 L100.6,93.9 L138,0.7 L190.4,0.7 L190.4,3.9 L175.3,18.4 C174,19.4 173.3,21 173.6,22.6 L173.6,129.2 C173.3,130.8 174,132.5 175.3,133.4 L190.1,147.9 L190.1,151.1 L115.7,151.1 L115.7,147.9 L131,133 C132.5,131.5 132.5,131.1 132.5,128.8 L132.5,42.8 L89.8,150.9 L84,150.9 L34.5,42.8 L34.5,115.3 C34.1,118.3 35.1,121.4 37.2,123.6 L57.1,147.8 L57.1,151 L0.7,151 L0.7,147.8 L20.6,123.6 C22.7,121.4 23.7,118.3 23.2,115.3 L23.2,31.4 Z" id="Shape"></path>
                    </g>
                </g>
            </g>
        </g>
    </g>
</svg>