<svg id="Layer_1" xmlns="http://www.w3.org/2000/svg" viewBox="0 0 1037.1 493.8"><style>.st18{fill:#fdfeff}.st19{opacity:.36}.st21{fill:#262d3d}.st23{opacity:.19}</style><linearGradient id="SVGID_1_" gradientUnits="userSpaceOnUse" x1="727.715" y1="402.825" x2="727.715" y2="247.498"><stop offset=".425" stop-color="#262d3d" stop-opacity="0"/><stop offset=".985" stop-color="#262d3d"/></linearGradient><path fill="url(#SVGID_1_)" d="M739.6 401.2h-23.7V212.8l11.8-7.6 11.9 7.6z"/><linearGradient id="SVGID_2_" gradientUnits="userSpaceOnUse" x1="702.8" y1="180.037" x2="702.8" y2="224.359" gradientTransform="matrix(1 0 0 -1 0 496)"><stop offset=".425" stop-color="#262d3d" stop-opacity="0"/><stop offset=".985" stop-color="#262d3d"/></linearGradient><path fill="url(#SVGID_2_)" d="M709.5 315.5h-13.4v-52.1l6.7-3.8 6.7 3.8z"/><linearGradient id="SVGID_3_" gradientUnits="userSpaceOnUse" x1="379.5" y1="395.097" x2="379.5" y2="439.419" gradientTransform="matrix(1 0 0 -1 0 496)"><stop offset=".425" stop-color="#262d3d" stop-opacity="0"/><stop offset=".985" stop-color="#262d3d"/></linearGradient><path fill="url(#SVGID_3_)" d="M386.2 100.4h-13.4v-52l6.7-3.9 6.7 3.9z"/><linearGradient id="SVGID_4_" gradientUnits="userSpaceOnUse" x1="783" y1="276.197" x2="783" y2="373.89" gradientTransform="matrix(1 0 0 -1 0 496)"><stop offset=".425" stop-color="#262d3d" stop-opacity="0"/><stop offset=".985" stop-color="#262d3d"/></linearGradient><path fill="url(#SVGID_4_)" d="M787 218.8h-8v-121l4-2.3 4 2.3z"/><linearGradient id="SVGID_5_" gradientUnits="userSpaceOnUse" x1="540" y1="-.812" x2="540" y2="289.947" gradientTransform="matrix(1 0 0 -1 0 496)"><stop offset=".425" stop-color="#262d3d" stop-opacity="0"/><stop offset=".985" stop-color="#262d3d"/></linearGradient><path fill="url(#SVGID_5_)" d="M403.5 126.8h273v367h-273z"/><linearGradient id="SVGID_6_" gradientUnits="userSpaceOnUse" x1="540.05" y1="-.053" x2="540.05" y2="217.168" gradientTransform="matrix(1 0 0 -1 0 496)"><stop offset=".425" stop-color="#262d3d" stop-opacity="0"/><stop offset=".985" stop-color="#262d3d"/></linearGradient><path fill="url(#SVGID_6_)" d="M628.5 493.8H451.6V276.7l88.9-57.1 88 57.1z"/><linearGradient id="SVGID_7_" gradientUnits="userSpaceOnUse" x1="623.4" y1="308.775" x2="623.4" y2="415.941" gradientTransform="matrix(1 0 0 -1 0 496)"><stop offset=".425" stop-color="#262d3d" stop-opacity="0"/><stop offset=".985" stop-color="#262d3d"/></linearGradient><path fill="url(#SVGID_7_)" d="M595.3 50.9h56.2v135.3h-56.2z"/><linearGradient id="SVGID_8_" gradientUnits="userSpaceOnUse" x1="473.618" y1="412.307" x2="653.618" y2="176.307" gradientTransform="matrix(1 0 0 -1 0 496)"><stop offset="0" stop-color="#ffb648"/><stop offset=".961" stop-color="#ff8e1e"/></linearGradient><path d="M549.5 33l25.4 78.3c1.3 4.1 5.1 6.8 9.4 6.8h82.3c9.6 0 13.6 12.3 5.8 17.9l-66.6 48.4c-3.5 2.5-4.9 7-3.6 11.1l25.4 78.3c3 9.1-7.5 16.7-15.2 11.1l-66.6-48.4c-3.5-2.5-8.2-2.5-11.6 0l-66.6 48.4c-7.8 5.6-18.2-1.9-15.2-11.1l25.4-78.3c1.3-4.1-.1-8.5-3.6-11.1L407.6 136c-7.8-5.6-3.8-17.9 5.8-17.9h82.3c4.3 0 8.1-2.8 9.4-6.8L530.6 33c3-9.1 15.9-9.1 18.9 0z" fill="url(#SVGID_8_)"/><linearGradient id="SVGID_9_" gradientUnits="userSpaceOnUse" x1="609.726" y1="453.553" x2="646.751" y2="405.009" gradientTransform="matrix(1 0 0 -1 0 496)"><stop offset="0" stop-color="#ffb648"/><stop offset=".961" stop-color="#ff8e1e"/></linearGradient><path d="M625.4 32l5.2 16.1c.3.8 1.1 1.4 1.9 1.4h16.9c2 0 2.8 2.5 1.2 3.7l-13.7 10c-.7.5-1 1.4-.7 2.3l5.2 16.1c.6 1.9-1.5 3.4-3.1 2.3l-13.7-10c-.7-.5-1.7-.5-2.4 0l-13.7 10c-1.6 1.2-3.7-.4-3.1-2.3l5.2-16.1c.3-.8 0-1.8-.7-2.3l-13.7-10c-1.6-1.2-.8-3.7 1.2-3.7h16.9c.9 0 1.7-.6 1.9-1.4l5.2-16.1c.7-1.9 3.3-1.9 4 0z" fill="url(#SVGID_9_)"/><linearGradient id="SVGID_10_" gradientUnits="userSpaceOnUse" x1="333.85" y1="169.561" x2="333.85" y2="276.726" gradientTransform="matrix(1 0 0 -1 0 496)"><stop offset=".425" stop-color="#262d3d" stop-opacity="0"/><stop offset=".985" stop-color="#262d3d"/></linearGradient><path fill="url(#SVGID_10_)" d="M298.6 190.1h70.5v135.3h-70.5z"/><linearGradient id="SVGID_11_" gradientUnits="userSpaceOnUse" x1="316.765" y1="317.338" x2="363.27" y2="256.365" gradientTransform="matrix(1 0 0 -1 0 496)"><stop offset="0" stop-color="#ffb648"/><stop offset=".961" stop-color="#ff8e1e"/></linearGradient><path d="M336.3 165.6l6.6 20.2c.3 1.1 1.3 1.8 2.4 1.8h21.3c2.5 0 3.5 3.2 1.5 4.6l-17.2 12.5c-.9.7-1.3 1.8-.9 2.9l6.6 20.2c.8 2.4-1.9 4.3-3.9 2.9l-17.2-12.5c-.9-.7-2.1-.7-3 0l-17.2 12.5c-2 1.5-4.7-.5-3.9-2.9l6.6-20.2c.3-1.1 0-2.2-.9-2.9l-17.2-12.5c-2-1.5-1-4.6 1.5-4.6h21.3c1.1 0 2.1-.7 2.4-1.8l6.6-20.2c.5-2.4 3.9-2.4 4.6 0z" fill="url(#SVGID_11_)"/><linearGradient id="SVGID_12_" gradientUnits="userSpaceOnUse" x1="265.5" y1="331.713" x2="265.5" y2="378.19" gradientTransform="matrix(1 0 0 -1 0 496)"><stop offset=".425" stop-color="#262d3d" stop-opacity="0"/><stop offset=".985" stop-color="#262d3d"/></linearGradient><path fill="url(#SVGID_12_)" d="M269.5 163.8h-8v-56.3l4-2.4 4 2.4z"/><linearGradient id="SVGID_13_" gradientUnits="userSpaceOnUse" x1="262.49" y1="397.731" x2="270.622" y2="387.069" gradientTransform="matrix(1 0 0 -1 0 496)"><stop offset="0" stop-color="#ffb648"/><stop offset=".961" stop-color="#ff8e1e"/></linearGradient><path d="M266 96l1.1 3.5c.1.2.2.3.4.3h3.7c.4 0 .6.6.3.8l-3 2.2c-.2.1-.2.3-.2.5l1.1 3.5c.1.4-.3.8-.7.5l-3-2.2c-.2-.1-.4-.1-.5 0l-3 2.2c-.4.3-.8-.1-.7-.5l1.1-3.5c.1-.2 0-.4-.2-.5l-3-2.2c-.4-.3-.2-.8.3-.8h3.7c.2 0 .4-.1.4-.3l1.1-3.5c.3-.5.9-.5 1.1 0z" fill="url(#SVGID_13_)"/><linearGradient id="SVGID_14_" gradientUnits="userSpaceOnUse" x1="779.915" y1="406.898" x2="788.047" y2="396.236" gradientTransform="matrix(1 0 0 -1 0 496)"><stop offset="0" stop-color="#ffb648"/><stop offset=".961" stop-color="#ff8e1e"/></linearGradient><path d="M783.4 86.8l1.1 3.5c.1.2.2.3.4.3h3.7c.4 0 .6.6.3.8l-3 2.2c-.2.1-.2.3-.2.5l1.1 3.5c.1.4-.3.8-.7.5l-3-2.2c-.2-.1-.4-.1-.5 0l-3 2.2c-.4.3-.8-.1-.7-.5l1.1-3.5c.1-.2 0-.4-.2-.5l-3-2.2c-.4-.3-.2-.8.3-.8h3.7c.2 0 .4-.1.4-.3l1.1-3.5c.4-.4 1-.4 1.1 0z" fill="url(#SVGID_14_)"/><linearGradient id="SVGID_15_" gradientUnits="userSpaceOnUse" x1="718.48" y1="308.947" x2="743.162" y2="276.586" gradientTransform="matrix(1 0 0 -1 0 496)"><stop offset="0" stop-color="#ffb648"/><stop offset=".961" stop-color="#ff8e1e"/></linearGradient><path d="M728.8 180.2l3.5 10.7c.2.6.7.9 1.3.9h11.3c1.3 0 1.9 1.7.8 2.5l-9.1 6.6c-.5.3-.7 1-.5 1.5l3.5 10.7c.4 1.3-1 2.3-2.1 1.5l-9.1-6.6c-.5-.3-1.1-.3-1.6 0l-9.1 6.6c-1.1.8-2.5-.3-2.1-1.5l3.5-10.7c.2-.6 0-1.2-.5-1.5l-9.1-6.6c-1.1-.8-.5-2.5.8-2.5h11.3c.6 0 1.1-.4 1.3-.9l3.5-10.7c.2-1.3 2-1.3 2.4 0z" fill="url(#SVGID_15_)"/><path d="M564.8 160.6c0-10.3-8.3-18.6-18.6-18.6h-25.6c-2.4 0-4.3 1.9-4.3 4.3v52.1c0 2.4 1.9 4.3 4.3 4.3h25.6c10.3 0 18.6-8.3 18.6-18.6 0-4.5-1.7-8.6-4.4-11.8 2.7-3.1 4.4-7.2 4.4-11.7z" fill="#ebe5e0"/><linearGradient id="SVGID_16_" gradientUnits="userSpaceOnUse" x1="697.612" y1="246.945" x2="711.296" y2="229.004" gradientTransform="matrix(1 0 0 -1 0 496)"><stop offset="0" stop-color="#ffb648"/><stop offset=".961" stop-color="#ff8e1e"/></linearGradient><path d="M703.5 245.1l1.9 6c.1.3.4.5.7.5h6.3c.7 0 1 .9.4 1.4l-5.1 3.7c-.3.2-.4.5-.3.8l1.9 6c.2.7-.6 1.3-1.2.8l-5.1-3.7c-.3-.2-.6-.2-.9 0l-5.1 3.7c-.6.4-1.4-.1-1.2-.8l1.9-6c.1-.3 0-.6-.3-.8l-5.1-3.7c-.6-.4-.3-1.4.4-1.4h6.3c.3 0 .6-.2.7-.5l1.9-6c.7-.7 1.7-.7 1.9 0z" fill="url(#SVGID_16_)"/><linearGradient id="SVGID_17_" gradientUnits="userSpaceOnUse" x1="374.389" y1="462.274" x2="388.073" y2="444.332" gradientTransform="matrix(1 0 0 -1 0 496)"><stop offset="0" stop-color="#ffb648"/><stop offset=".961" stop-color="#ff8e1e"/></linearGradient><path d="M380.3 29.8l1.9 6c.1.3.4.5.7.5h6.3c.7 0 1 .9.4 1.4l-5.1 3.7c-.3.2-.4.5-.3.8l1.9 6c.2.7-.6 1.3-1.2.8l-5.1-3.7c-.3-.2-.6-.2-.9 0l-5.1 3.7c-.6.4-1.4-.1-1.2-.8l1.9-6c.1-.3 0-.6-.3-.8l-5.1-3.7c-.6-.4-.3-1.4.4-1.4h6.3c.3 0 .6-.2.7-.5l1.9-6c.6-.7 1.6-.7 1.9 0z" fill="url(#SVGID_17_)"/><circle class="st18" cx="45.9" cy="176.4" r="3.9"/><circle class="st18" cx="956.3" cy="244.6" r="3.9"/><circle class="st18" cx="1033.1" cy="171.7" r="3.9"/><circle class="st18" cx="302.6" cy="51.4" r="3.9"/><circle class="st18" cx="99.9" cy="259.6" r="3.9"/><circle class="st18" cx="131.6" cy="95.5" r="2"/><circle class="st18" cx="885.3" cy="80.2" r="2"/><circle class="st18" cx="837.2" cy="263.4" r="1"/><circle class="st18" cx="1012.8" cy="104.4" r="1"/><circle class="st18" cx="1" cy="83.2" r="1"/><circle class="st18" cx="727.5" cy="52.8" r="2"/><circle class="st18" cx="903.9" cy="176.4" r="9.7"/><circle class="st18" cx="194.1" cy="205.3" r="9.7"/><g class="st19"><linearGradient id="SVGID_18_" gradientUnits="userSpaceOnUse" x1="1021.7" y1="97.087" x2="1021.7" y2="204.252" gradientTransform="matrix(1 0 0 -1 0 496)"><stop offset=".425" stop-color="#262d3d" stop-opacity="0"/><stop offset="1" stop-color="#262d3d"/></linearGradient><path fill="url(#SVGID_18_)" d="M1012 262.5h19.4v135.3H1012z"/><circle class="st21" cx="1021.6" cy="262.5" r="9.7"/></g><g class="st19"><linearGradient id="SVGID_19_" gradientUnits="userSpaceOnUse" x1="949.7" y1="349.947" x2="949.7" y2="457.113" gradientTransform="matrix(1 0 0 -1 0 496)"><stop offset=".425" stop-color="#262d3d" stop-opacity="0"/><stop offset=".985" stop-color="#262d3d"/></linearGradient><path fill="url(#SVGID_19_)" d="M940 9.7h19.4V145H940z"/><circle class="st21" cx="949.7" cy="9.7" r="9.7"/></g><g class="st23"><linearGradient id="SVGID_20_" gradientUnits="userSpaceOnUse" x1="82.35" y1="267.627" x2="82.35" y2="427.673" gradientTransform="matrix(1 0 0 -1 0 496)"><stop offset=".425" stop-color="#262d3d" stop-opacity="0"/><stop offset=".985" stop-color="#262d3d"/></linearGradient><path fill="url(#SVGID_20_)" d="M67.9 24.7h28.9v202H67.9z"/><circle class="st21" cx="82.4" cy="24.7" r="14.5"/></g><g class="st23"><linearGradient id="SVGID_21_" gradientUnits="userSpaceOnUse" x1="8.45" y1="176.661" x2="8.45" y2="256.683" gradientTransform="matrix(1 0 0 -1 0 496)"><stop offset=".425" stop-color="#262d3d" stop-opacity="0"/><stop offset=".985" stop-color="#262d3d"/></linearGradient><path fill="url(#SVGID_21_)" d="M1.2 217.5h14.5v101H1.2z"/><circle class="st21" cx="8.4" cy="217.5" r="7.2"/></g></svg>