<?xml version="1.0" encoding="UTF-8"?>
<svg width="190px" height="170px" viewBox="0 0 190 170" version="1.1" xmlns="http://www.w3.org/2000/svg" xmlns:xlink="http://www.w3.org/1999/xlink">
    <!-- Generator: Sketch 51 (57462) - http://www.bohemiancoding.com/sketch -->
    <title>telegram-logo-purple</title>
    <desc>Created with Sketch.</desc>
    <defs></defs>
    <g id="Page-1" stroke="none" stroke-width="1" fill="none" fill-rule="evenodd">
        <g id="telegram-logo-purple" transform="translate(0.000000, -10.000000)">
            <rect id="backgroundrect" x="0" y="0" width="189.473" height="189.473"></rect>
            <g id="Layer-1" transform="translate(0.000000, 9.000000)" fill="#9067C6" fill-rule="nonzero">
                <g id="svg_1">
                    <path d="M152.923157,170.476 C151.443157,170.476 149.973157,170.038 148.712157,169.183 L101.071157,136.867 L75.5191569,155.253 C73.5151569,156.694 70.9321569,157.057 68.6051569,156.225 C66.2811569,155.391 64.5161569,153.466 63.8861569,151.079 L51.0561569,102.457 L5.21315687,84.928 C2.32715687,83.824 0.413156869,81.063 0.392156869,77.973 C0.371156869,74.883 2.24715687,72.096 5.11915687,70.953 L179.431157,1.593 C180.222157,1.257 181.059157,1.063 181.903157,1.011 C182.205157,0.993 182.508157,0.993 182.809157,1.01 C184.557157,1.114 186.274157,1.826 187.614157,3.14 C187.753157,3.276 187.885157,3.415 188.010157,3.56 C189.120157,4.828 189.730157,6.374 189.845157,7.949 C189.873157,8.345 189.871157,8.746 189.836157,9.147 C189.812157,9.433 189.771157,9.718 189.713157,10.001 L160.290157,164.38 C159.817157,166.86 158.129157,168.936 155.797157,169.903 C154.872157,170.287 153.895157,170.476 152.923157,170.476 Z M105.254157,121.579 L147.691157,150.364 L170.585157,30.24 L87.8981569,109.806 L105.054157,121.444 C105.123157,121.487 105.189157,121.533 105.254157,121.579 Z M69.9271569,115.178 L75.6091569,136.708 L87.8511569,127.899 L71.8211569,117.025 C71.0761569,116.521 70.4381569,115.893 69.9271569,115.178 Z M28.5281569,77.782 L60.0061569,89.817 C62.2611569,90.679 63.9631569,92.575 64.5791569,94.909 L68.5711569,110.038 C68.7541569,108.293 69.5451569,106.651 70.8301569,105.414 L149.619157,29.6 L28.5281569,77.782 Z" id="svg_2"></path>
                </g>
            </g>
        </g>
    </g>
</svg>