<svg xmlns="http://www.w3.org/2000/svg" xmlns:xlink="http://www.w3.org/1999/xlink" version="1.1" style="" xml:space="preserve" width="189.473" height="189.473"><rect id="backgroundrect" width="100%" height="100%" x="0" y="0" fill="none" stroke="none"/>
















<g class="currentLayer" style=""><title>Layer 1</title><g id="svg_1" class="" fill-opacity="1" fill="#623fe9">
	<path d="M152.92315686917306,179.476 c-1.48,0 -2.95,-0.43800000000000006 -4.211,-1.2930000000000001 l-47.641,-32.316 l-25.552,18.386 c-2.004,1.441 -4.587,1.804 -6.914,0.972 c-2.324,-0.8340000000000001 -4.089,-2.7590000000000003 -4.719,-5.146 l-12.83,-48.622 L5.21315686917305,93.928 c-2.886,-1.104 -4.8,-3.865 -4.821,-6.955 c-0.021000000000000005,-3.09 1.855,-5.877 4.727,-7.02 l174.312,-69.36 c0.791,-0.3360000000000001 1.6280000000000001,-0.53 2.472,-0.5820000000000001 c0.30200000000000005,-0.018000000000000002 0.6050000000000001,-0.018000000000000002 0.906,-0.0010000000000000002 c1.7480000000000002,0.10400000000000001 3.465,0.8160000000000001 4.805,2.13 c0.139,0.136 0.271,0.275 0.3960000000000001,0.42000000000000004 c1.11,1.268 1.7200000000000002,2.814 1.835,4.389 c0.028000000000000004,0.3960000000000001 0.026000000000000006,0.797 -0.009000000000000003,1.198 c-0.024000000000000004,0.28600000000000003 -0.06500000000000002,0.5710000000000001 -0.12300000000000001,0.8540000000000001 L160.29015686917305,173.38 c-0.47300000000000003,2.48 -2.161,4.556 -4.493,5.523 C154.87215686917304,179.287 153.89515686917304,179.476 152.92315686917306,179.476 zM105.25415686917304,130.579 l42.437,28.785 L170.58515686917306,39.24 l-82.687,79.566 l17.156,11.638 C105.12315686917304,130.487 105.18915686917305,130.533 105.25415686917304,130.579 zM69.92715686917305,124.178 l5.682,21.53 l12.242,-8.809 l-16.03,-10.874 C71.07615686917305,125.521 70.43815686917306,124.893 69.92715686917305,124.178 zM28.52815686917305,86.782 l31.478,12.035 c2.255,0.8620000000000001 3.957,2.758 4.573,5.092 l3.992,15.129 c0.18300000000000002,-1.745 0.974,-3.387 2.259,-4.6240000000000006 L149.61915686917305,38.6 L28.52815686917305,86.782 z" fill="#623fe9" id="svg_2"/>
</g><g id="svg_3">
</g><g id="svg_4">
</g><g id="svg_5">
</g><g id="svg_6">
</g><g id="svg_7">
</g><g id="svg_8">
</g><g id="svg_9">
</g><g id="svg_10">
</g><g id="svg_11">
</g><g id="svg_12">
</g><g id="svg_13">
</g><g id="svg_14">
</g><g id="svg_15">
</g><g id="svg_16">
</g><g id="svg_17">
</g></g></svg>