<?xml version="1.0" encoding="utf-8"?>
<!-- Generator: Adobe Illustrator 21.1.0, SVG Export Plug-In . SVG Version: 6.00 Build 0)  -->
<svg version="1.1" id="Layer_1" xmlns="http://www.w3.org/2000/svg" xmlns:xlink="http://www.w3.org/1999/xlink" x="0px" y="0px"
	 viewBox="0 0 682 240" style="enable-background:new 0 0 682 240;" xml:space="preserve">
<style type="text/css">
	.st0{fill-rule:evenodd;clip-rule:evenodd;fill:#FFFFFF;}
	.st1{fill:#FFFFFF;}
</style>
<g>
	<g>
		
			<rect x="553.5" y="59.7" transform="matrix(-0.7071 0.7071 -0.7071 -0.7071 1035.5178 -269.4719)" class="st0" width="40.1" height="40.1"/>
	</g>
	<g>
		<path class="st1" d="M82.7,79.7h13l1.8,1.8l15.9,54.1c0.1,0.1,0.2,0.1,0.4,0.2l17.8-54.5l1.6-1.6h14.8l1.5,1.6
			c0.5,1.7-1.2-3.7,17.9,54.9l0.1-0.1l15.9-54.4l2-2h12.5l2.6,2.6l-24.6,76.3l-1.5,1.5h-14.6l-1.4-1.5l-18-55.4l-0.3,0L122,158.6
			l-1.5,1.5h-14.5l-1.5-1.5L80.1,82.3L82.7,79.7z"/>
		<path class="st1" d="M244.5,147c6.6,0,12.2-2.4,16.8-7.3c4.6-4.9,6.9-11.5,6.9-19.8c0-8.3-2.3-14.9-6.9-19.8
			c-4.6-4.9-10.2-7.3-16.8-7.3c-6.5,0-12,2.4-16.7,7.4c-4.7,4.9-7,11.5-7,19.7c0,8.2,2.4,14.8,7,19.7C232.5,144.6,238,147,244.5,147
			z M215.2,89.5c7.5-8.2,16.6-12.3,27-12.3c11.5,0,20.8,5.1,25.9,11.7l0.3-0.3v-6.2l2.6-2.7h11l2.7,2.7v75l-2.7,2.7h-11l-2.6-2.4
			v-6.5c-0.1,0.1-0.4-0.1-0.5,0c-5.1,6.5-14.3,11.4-25.7,11.4c-10.4,0-19.4-4.1-27-12.3c-7.5-8.2-11.3-18.4-11.3-30.4
			S207.7,97.7,215.2,89.5z"/>
		<path class="st1" d="M297.7,79.7h13.7l1.6,1.6l21.7,57.2l0.2-0.1l21.9-56.9l1.7-1.8h13.3l2.6,2.7l-31.1,76.2l-1.5,1.5h-14.4
			l-1.4-1.5L295,82.4L297.7,79.7z"/>
		<path class="st1" d="M457.2,121.5l0.1-0.9c0-27.4-16.2-43.4-39.7-43.4c-11.5,0-21.1,4.3-28.6,12.6c-7.4,8.3-11.1,18.5-11.1,30
			c0,12.2,3.9,22.5,11.5,30.5c7.6,8.1,17.7,12.1,29.8,12.1c8.8,0,16.3-2.1,22.3-6.3c6-4.2,10.4-9.5,13.1-15.7l-0.4-1.4l-13.6-5.6
			l-1.3,0.7c-3.6,8.5-10.3,12.7-20.4,12.7c-6.2,0-11.7-2.2-16.3-6.5c-4.4-4.1-6.9-9-7.5-16l59.4,0L457.2,121.5z M396.1,109.7
			c1.5-4.8,4.6-9.1,8.1-12.1c3.8-3.2,8.2-4.8,13.4-4.8c7.1,0,12.5,1.9,16,5.7c3.2,3.5,5.1,7.4,5.7,11.2H396.1z"/>
		<path class="st1" d="M501.9,162.6c-8.9,0-16.4-2.2-22.3-6.5c-5.8-4.3-9.9-9.5-12.6-16l0.3-1.5l12.5-5.4l1.5,0.6
			c4,9.4,11.1,13.5,20.7,13.5c10.6,0,14.6-5.2,14.6-9.9c0-4.5-3.4-7.5-10-9.2l-15.8-3.8c-5.2-1.3-9.6-3.8-14.2-7.4
			c-4.7-3.7-7.2-8.9-7.2-15.3c0-7.3,3.2-13.2,9.6-17.8c6.3-4.4,13.3-6.7,21.9-6.7c7.1,0,11.8,1.5,17.4,4.7
			c5.6,3.2,9.7,7.8,12.2,13.8l-0.4,1.4l-12.6,5l-1.4-0.7c-2.7-6.5-8.5-8.8-15.6-8.8c-4.1,0-7.6,0.9-10.4,2.6
			c-2.6,1.6-4.2,3.7-4.2,6.3c0,3.9,3.5,6.5,9.8,7.9l15.5,3.6c7.5,1.7,12.9,4.8,16.6,9.1c3.7,4.3,5.6,9.3,5.6,14.7
			c0,7.3-3.2,13.5-9.1,18.4C518.4,160,511.2,162.5,501.9,162.6z"/>
	</g>
</g>
</svg>
