<?xml version="1.0" encoding="UTF-8"?>
<svg preserveAspectRatio="none" width="2000px" height="1134px" viewBox="0 0 2000 1134" version="1.1" xmlns="http://www.w3.org/2000/svg" xmlns:xlink="http://www.w3.org/1999/xlink">
    <!-- Generator: Sketch 51 (57462) - http://www.bohemiancoding.com/sketch -->
    <title>client-benefits</title>
    <desc>Created with Sketch.</desc>
    <defs>
        <linearGradient x1="0%" y1="38.7753238%" x2="100%" y2="38.7753238%" id="linearGradient-1">
            <stop stop-color="#8092EE" offset="0%"></stop>
            <stop stop-color="#8D7CDF" offset="100%"></stop>
        </linearGradient>
    </defs>
    <g id="Page-1" stroke="none" stroke-width="1" fill="none" fill-rule="evenodd">
        <g id="client-benefits" fill-rule="nonzero">
            <path d="M2000,153.952843 L2000,1065.87276 C1772.78121,1111.21099 1603.10946,1133.63355 1490.98474,1133.14045 C1380.92305,1132.65642 1217.26147,1108.75443 1000,1061.43448 C781.049509,1015.3562 616.000965,992.563778 504.854369,993.057229 C393.777531,993.550372 225.492742,1017.82222 0,1065.87276 L0,153.952843 L0,67.2756416 C227.218795,21.9374194 396.890546,-0.485141827 509.015257,0.00795789851 C619.076947,0.491984922 782.738528,24.393973 1000,71.7139218 C1218.95049,117.79221 1383.99903,140.584627 1495.14563,140.091176 C1606.22247,139.598033 1774.50725,115.326189 2000,67.2756416 L2000,153.952843 Z" id="Rectangle-2" fill="url(#linearGradient-1)"></path>
            <g id="paperplane" transform="translate(1595.000000, 567.000000)">
                <polygon id="Shape" fill="#FFFFFF" points="0 0 271 28.7973572 236.065619 60.9591983 211.910655 114.368417 192.546543 103.118337 164.171243 130"></polygon>
                <polygon id="Shape" fill="#888888" points="235 61 211.097242 115 192 103.668515"></polygon>
                <polygon id="Shape" fill="#DADADA" points="0 0 235 61.3053795 210.935742 115 202.004439 93.5623161"></polygon>
                <path d="M225.014925,123.785714 C221.692974,123.785714 219,121.083433 219,117.75 C219,114.416567 221.692974,111.714286 225.014925,111.714286 C228.336877,111.714286 231.02985,114.416567 231.02985,117.75 C231.02985,121.083433 228.336877,123.785714 225.014925,123.785714 Z M248.149254,128.428571 C244.827302,128.428571 242.134328,125.72629 242.134328,122.392857 C242.134328,119.059424 244.827302,116.357143 248.149254,116.357143 C251.471205,116.357143 254.164179,119.059424 254.164179,122.392857 C254.164179,125.72629 251.471205,128.428571 248.149254,128.428571 Z M271.283582,126.571429 C267.961631,126.571429 265.268657,123.869147 265.268657,120.535714 C265.268657,117.202281 267.961631,114.5 271.283582,114.5 C274.605534,114.5 277.298507,117.202281 277.298507,120.535714 C277.298507,123.869147 274.605534,126.571429 271.283582,126.571429 Z M295.343284,120.071429 C292.021332,120.071429 289.328358,117.369147 289.328358,114.035714 C289.328358,110.702281 292.021332,108 295.343284,108 C298.665235,108 301.358209,110.702281 301.358209,114.035714 C301.358209,117.369147 298.665235,120.071429 295.343284,120.071429 Z M319.402985,121.928571 C316.081034,121.928571 313.38806,119.22629 313.38806,115.892857 C313.38806,112.559424 316.081034,109.857143 319.402985,109.857143 C322.724937,109.857143 325.41791,112.559424 325.41791,115.892857 C325.41791,119.22629 322.724937,121.928571 319.402985,121.928571 Z M337.910448,134 C334.588496,134 331.895522,131.297719 331.895522,127.964286 C331.895522,124.630853 334.588496,121.928571 337.910448,121.928571 C341.232399,121.928571 343.925373,124.630853 343.925373,127.964286 C343.925373,131.297719 341.232399,134 337.910448,134 Z M348.089552,148.857143 C344.767601,148.857143 342.074627,146.154862 342.074627,142.821429 C342.074627,139.487996 344.767601,136.785714 348.089552,136.785714 C351.411504,136.785714 354.104478,139.487996 354.104478,142.821429 C354.104478,146.154862 351.411504,148.857143 348.089552,148.857143 Z M349.940299,168.357143 C346.618347,168.357143 343.925373,165.654862 343.925373,162.321429 C343.925373,158.987996 346.618347,156.285714 349.940299,156.285714 C353.26225,156.285714 355.955224,158.987996 355.955224,162.321429 C355.955224,165.654862 353.26225,168.357143 349.940299,168.357143 Z M349.014925,188.785714 C345.692974,188.785714 343,186.083433 343,182.75 C343,179.416567 345.692974,176.714286 349.014925,176.714286 C352.336877,176.714286 355.029851,179.416567 355.029851,182.75 C355.029851,186.083433 352.336877,188.785714 349.014925,188.785714 Z M352.716418,208.285714 C349.394466,208.285714 346.701493,205.583433 346.701493,202.25 C346.701493,198.916567 349.394466,196.214286 352.716418,196.214286 C356.038369,196.214286 358.731343,198.916567 358.731343,202.25 C358.731343,205.583433 356.038369,208.285714 352.716418,208.285714 Z M361.044776,226.857143 C357.722825,226.857143 355.029851,224.154862 355.029851,220.821429 C355.029851,217.487996 357.722825,214.785714 361.044776,214.785714 C364.366728,214.785714 367.059701,217.487996 367.059701,220.821429 C367.059701,224.154862 364.366728,226.857143 361.044776,226.857143 Z M377.701493,241.714286 C374.379541,241.714286 371.686567,239.012004 371.686567,235.678571 C371.686567,232.345138 374.379541,229.642857 377.701493,229.642857 C381.023444,229.642857 383.716418,232.345138 383.716418,235.678571 C383.716418,239.012004 381.023444,241.714286 377.701493,241.714286 Z M398.985075,251 C395.663123,251 392.970149,248.297719 392.970149,244.964286 C392.970149,241.630853 395.663123,238.928571 398.985075,238.928571 C402.307026,238.928571 405,241.630853 405,244.964286 C405,248.297719 402.307026,251 398.985075,251 Z" id="Shape" fill="#FFFFFF"></path>
            </g>
        </g>
    </g>
</svg>