<?xml version="1.0" encoding="UTF-8"?>
<svg preserveAspectRatio="none" width="2000px" height="500px" viewBox="0 0 2000 500" version="1.1" xmlns="http://www.w3.org/2000/svg" xmlns:xlink="http://www.w3.org/1999/xlink">
    <!-- Generator: Sketch 51 (57462) - http://www.bohemiancoding.com/sketch -->
    <title>Gradient-4</title>
    <desc>Created with Sketch.</desc>
    <defs>
        <linearGradient x1="0%" y1="43.453%" x2="100%" y2="43.453%" id="linearGradient-1">
            <stop stop-color="#8092EE" offset="0%"></stop>
            <stop stop-color="#8D7CDF" offset="100%"></stop>
        </linearGradient>
    </defs>
    <g id="Page-1" stroke="none" stroke-width="1" fill="none" fill-rule="evenodd">
        <g id="Gradient-4" fill-rule="nonzero">
            <path d="M0,0 C110.88,37.965 257.639,56.9477778 440.278,56.9477778 C714.236,56.9477778 765.278,0 1000,0 C1234.722,0 1279.167,56.9477778 1545.139,56.9477778 C1722.454,56.9477778 1874.074,37.965 2000,0 L2000,500 L0,500 L0,0 Z" id="Shape" fill="url(#linearGradient-1)" transform="translate(1000.000000, 250.000000) scale(-1, 1) rotate(-180.000000) translate(-1000.000000, -250.000000) "></path>
            <g id="paperplane" transform="translate(1564.000000, 196.000000)">
                <polygon id="Shape" fill="#FFFFFF" points="0 0 292 19.4935956 254.358526 41.2646881 228.331776 77.4186207 207.467124 69.8031819 176.893 88"></polygon>
                <polygon id="Shape" fill="#888888" points="253 42 227.429608 78 207 70.4456767"></polygon>
                <polygon id="Shape" fill="#DADADA" points="0 0 253 41.0479497 227.092523 77 217.477119 62.6460725"></polygon>
                <path d="M242.467662,83.5974026 C238.895671,83.5974026 236,81.7832837 236,79.5454545 C236,77.3076254 238.895671,75.4935065 242.467662,75.4935065 C246.039652,75.4935066 248.935323,77.3076255 248.935323,79.5454545 C248.935323,81.7832836 246.039652,83.5974025 242.467662,83.5974026 Z M267.343284,86.7142857 C263.771293,86.7142857 260.875622,84.9001668 260.875622,82.6623377 C260.875622,80.4245085 263.771293,78.6103896 267.343284,78.6103896 C270.915275,78.6103896 273.810945,80.4245085 273.810945,82.6623377 C273.810945,84.9001668 270.915275,86.7142857 267.343284,86.7142857 Z M292.218905,85.4675325 C288.646915,85.4675325 285.751244,83.6534135 285.751244,81.4155844 C285.751244,79.1777553 288.646915,77.3636364 292.218905,77.3636364 C295.790896,77.3636364 298.686567,79.1777553 298.686567,81.4155844 C298.686567,83.6534135 295.790896,85.4675325 292.218905,85.4675325 Z M318.089552,81.1038961 C314.517561,81.1038961 311.621891,79.2897772 311.621891,77.0519481 C311.621891,74.8141189 314.517561,73 318.089552,73 C321.661543,73 324.557214,74.8141189 324.557214,77.0519481 C324.557214,79.2897772 321.661543,81.1038961 318.089552,81.1038961 Z M343.960199,82.3506494 C340.388208,82.3506494 337.492537,80.5365304 337.492537,78.2987013 C337.492537,76.0608722 340.388208,74.2467532 343.960199,74.2467532 C347.53219,74.2467532 350.427861,76.0608722 350.427861,78.2987013 C350.427861,80.5365304 347.53219,82.3506494 343.960199,82.3506494 Z M363.860697,90.4545455 C360.288706,90.4545455 357.393035,88.6404265 357.393035,86.4025974 C357.393035,84.1647683 360.288706,82.3506494 363.860697,82.3506494 C367.432687,82.3506494 370.328358,84.1647683 370.328358,86.4025974 C370.328358,88.6404265 367.432687,90.4545455 363.860697,90.4545455 Z M374.80597,100.428571 C371.233979,100.428571 368.338308,98.6144525 368.338308,96.3766234 C368.338308,94.1387943 371.233979,92.3246753 374.80597,92.3246753 C378.377961,92.3246753 381.273632,94.1387943 381.273632,96.3766234 C381.273632,98.6144525 378.377961,100.428571 374.80597,100.428571 Z M376.79602,113.519481 C373.224029,113.519481 370.328358,111.705362 370.328358,109.467532 C370.328358,107.229703 373.224029,105.415584 376.79602,105.415584 C380.368011,105.415584 383.263682,107.229703 383.263682,109.467532 C383.263682,111.705362 380.368011,113.519481 376.79602,113.519481 Z M375.800995,127.233766 C372.229004,127.233766 369.333333,125.419647 369.333333,123.181818 C369.333333,120.943989 372.229004,119.12987 375.800995,119.12987 C379.372986,119.12987 382.268657,120.943989 382.268657,123.181818 C382.268657,125.419647 379.372986,127.233766 375.800995,127.233766 Z M379.781095,140.324675 C376.209104,140.324675 373.313433,138.510556 373.313433,136.272727 C373.313433,134.034898 376.209104,132.220779 379.781095,132.220779 C383.353085,132.220779 386.248756,134.034898 386.248756,136.272727 C386.248756,138.510556 383.353085,140.324675 379.781095,140.324675 Z M388.736318,152.792208 C385.164327,152.792208 382.268657,150.978089 382.268657,148.74026 C382.268657,146.502431 385.164327,144.688312 388.736318,144.688312 C392.308309,144.688312 395.20398,146.502431 395.20398,148.74026 C395.20398,150.978089 392.308309,152.792208 388.736318,152.792208 Z M406.646766,162.766234 C403.074775,162.766234 400.179104,160.952115 400.179104,158.714286 C400.179104,156.476457 403.074775,154.662338 406.646766,154.662338 C410.218757,154.662338 413.114428,156.476457 413.114428,158.714286 C413.114428,160.952115 410.218757,162.766234 406.646766,162.766234 Z M429.532338,169 C425.960347,169 423.064677,167.185881 423.064677,164.948052 C423.064677,162.710223 425.960347,160.896104 429.532338,160.896104 C433.104329,160.896104 436,162.710223 436,164.948052 C436,167.185881 433.104329,169 429.532338,169 Z" id="Shape" fill="#FFFFFF"></path>
            </g>
        </g>
    </g>
</svg>