<svg preserveAspectRatio="none" width="2000" height="900" xmlns="http://www.w3.org/2000/svg"><defs><linearGradient x1="0%" y1="43.453%" y2="43.453%" id="a"><stop stop-color="#8092EE" offset="0%"/><stop stop-color="#8D7CDF" offset="100%"/></linearGradient></defs><g fill-rule="nonzero" fill="none"><path d="M0 0c110.88 68.337 257.639 102.506 440.278 102.506C714.236 102.506 765.278 0 1000 0c234.722 0 279.167 102.506 545.139 102.506C1722.454 102.506 1874.074 68.337 2000 0v900H0V0z" fill="url(#a)" transform="matrix(1 0 0 -1 0 900)"/><path fill="#FFF" d="M1564.06 450.487l291.655 31.147-37.597 34.786-25.996 57.767-20.84-12.168-30.538 29.075z"/><path fill="#888" d="M1818.134 516.467l-26.044 57.71-20.808-12.11z"/><path fill="#DADADA" d="M1564.242 450.497l253.884 65.939-25.998 57.753-9.649-23.058z"/><path d="M1805.5 584a6.5 6.5 0 1 1 0-13 6.5 6.5 0 0 1 0 13zm25 5a6.5 6.5 0 1 1 0-13 6.5 6.5 0 0 1 0 13zm25-2a6.5 6.5 0 1 1 0-13 6.5 6.5 0 0 1 0 13zm26-7a6.5 6.5 0 1 1 0-13 6.5 6.5 0 0 1 0 13zm26 2a6.5 6.5 0 1 1 0-13 6.5 6.5 0 0 1 0 13zm20 13a6.5 6.5 0 1 1 0-13 6.5 6.5 0 0 1 0 13zm11 16a6.5 6.5 0 1 1 0-13 6.5 6.5 0 0 1 0 13zm2 21a6.5 6.5 0 1 1 0-13 6.5 6.5 0 0 1 0 13zm-1 22a6.5 6.5 0 1 1 0-13 6.5 6.5 0 0 1 0 13zm4 21a6.5 6.5 0 1 1 0-13 6.5 6.5 0 0 1 0 13zm9 20a6.5 6.5 0 1 1 0-13 6.5 6.5 0 0 1 0 13zm18 16a6.5 6.5 0 1 1 0-13 6.5 6.5 0 0 1 0 13zm23 10a6.5 6.5 0 1 1 0-13 6.5 6.5 0 0 1 0 13z" fill="#FFF"/></g></svg>