<svg width="436" height="271" xmlns="http://www.w3.org/2000/svg"><g fill="none" fill-rule="evenodd"><path fill="#FFF" d="M.06.487l291.655 31.147-37.597 34.786-25.996 57.767-20.84-12.168-30.538 29.075z"/><path fill="#888" d="M254.134 66.467l-26.044 57.71-20.808-12.11z"/><path fill="#DADADA" d="M.242.497l253.884 65.939-25.998 57.753-9.649-23.058z"/><path d="M241.5 134a6.5 6.5 0 1 1 0-13 6.5 6.5 0 0 1 0 13zm25 5a6.5 6.5 0 1 1 0-13 6.5 6.5 0 0 1 0 13zm25-2a6.5 6.5 0 1 1 0-13 6.5 6.5 0 0 1 0 13zm26-7a6.5 6.5 0 1 1 0-13 6.5 6.5 0 0 1 0 13zm26 2a6.5 6.5 0 1 1 0-13 6.5 6.5 0 0 1 0 13zm20 13a6.5 6.5 0 1 1 0-13 6.5 6.5 0 0 1 0 13zm11 16a6.5 6.5 0 1 1 0-13 6.5 6.5 0 0 1 0 13zm2 21a6.5 6.5 0 1 1 0-13 6.5 6.5 0 0 1 0 13zm-1 22a6.5 6.5 0 1 1 0-13 6.5 6.5 0 0 1 0 13zm4 21a6.5 6.5 0 1 1 0-13 6.5 6.5 0 0 1 0 13zm9 20a6.5 6.5 0 1 1 0-13 6.5 6.5 0 0 1 0 13zm18 16a6.5 6.5 0 1 1 0-13 6.5 6.5 0 0 1 0 13zm23 10a6.5 6.5 0 1 1 0-13 6.5 6.5 0 0 1 0 13z" fill="#FFF"/></g></svg>