<svg width="2055" height="562" xmlns="http://www.w3.org/2000/svg"><defs><linearGradient x1="101.093%" y1="93.664%" x2="-2.979%" y2="2.941%" id="a"><stop stop-color="#77A2F8" offset="0%"/><stop stop-color="#9867D0" offset="100%"/><stop stop-color="#77A2F8" offset="100%"/></linearGradient></defs><g fill="none" fill-rule="evenodd"><path fill-opacity=".652" fill="#9867D0" d="M2047.233 76.736l-587.212.98 67.576 77.128 39.671 120.456 44.04-19.865 54.718 64.278z"/><path fill-opacity=".652" fill="#9867D0" d="M1527.555 154.935l39.778 120.352 43.965-19.757z"/><path fill="#9867D0" d="M2046.869 76.716l-519.29 78.157 39.678 120.43 24.035-43.89z"/><path d="M495.495 505.507c-7.186 0-13.013-5.827-13.013-13.014 0-7.186 5.827-13.013 13.013-13.013 7.187 0 13.014 5.827 13.014 13.013 0 7.187-5.827 13.014-13.014 13.014zm50.05 10.01c-7.186 0-13.012-5.827-13.012-13.013 0-7.187 5.826-13.014 13.013-13.014 7.186 0 13.013 5.827 13.013 13.014 0 7.186-5.827 13.013-13.013 13.013zm50.05-4.004c-7.186 0-13.012-5.827-13.012-13.014 0-7.186 5.826-13.013 13.013-13.013 7.186 0 13.013 5.827 13.013 13.013 0 7.187-5.827 13.014-13.013 13.014zm52.053-14.015c-7.187 0-13.013-5.826-13.013-13.013 0-7.186 5.826-13.013 13.013-13.013s13.013 5.827 13.013 13.013c0 7.187-5.826 13.013-13.013 13.013zm52.052 4.005c-7.187 0-13.013-5.827-13.013-13.014 0-7.186 5.826-13.013 13.013-13.013s13.013 5.827 13.013 13.013c0 7.187-5.826 13.014-13.013 13.014zm40.04 26.026c-7.187 0-13.013-5.827-13.013-13.013 0-7.187 5.826-13.013 13.013-13.013s13.013 5.826 13.013 13.013c0 7.186-5.826 13.013-13.013 13.013zm22.022 32.032c-7.187 0-13.013-5.827-13.013-13.013 0-7.187 5.826-13.013 13.013-13.013s13.013 5.826 13.013 13.013c0 7.186-5.826 13.013-13.013 13.013zm4.004 42.042c-7.187 0-13.013-5.827-13.013-13.013 0-7.187 5.826-13.013 13.013-13.013s13.013 5.826 13.013 13.013c0 7.186-5.826 13.013-13.013 13.013zm-2.002 44.044c-7.187 0-13.013-5.826-13.013-13.013s5.826-13.013 13.013-13.013 13.013 5.826 13.013 13.013-5.826 13.013-13.013 13.013zm8.008 42.042c-7.187 0-13.013-5.826-13.013-13.013s5.826-13.013 13.013-13.013 13.013 5.826 13.013 13.013-5.826 13.013-13.013 13.013zm18.018 40.04c-7.187 0-13.013-5.826-13.013-13.013s5.826-13.013 13.013-13.013 13.013 5.826 13.013 13.013-5.826 13.013-13.013 13.013zm36.036 32.032c-7.187 0-13.013-5.826-13.013-13.013s5.826-13.013 13.013-13.013 13.013 5.826 13.013 13.013-5.826 13.013-13.013 13.013zm46.046 20.02c-7.187 0-13.013-5.826-13.013-13.013s5.826-13.013 13.013-13.013 13.013 5.826 13.013 13.013-5.826 13.013-13.013 13.013zm46.046 4.004c-7.187 0-13.013-5.826-13.013-13.013s5.826-13.013 13.013-13.013 13.013 5.826 13.013 13.013-5.826 13.013-13.013 13.013zm46.046-8.008c-7.187 0-13.013-5.826-13.013-13.013s5.826-13.013 13.013-13.013 13.013 5.826 13.013 13.013-5.826 13.013-13.013 13.013zm40.04-24.024c-7.187 0-13.013-5.826-13.013-13.013s5.826-13.013 13.013-13.013 13.013 5.826 13.013 13.013-5.826 13.013-13.013 13.013zm30.03-30.03c-7.187 0-13.013-5.826-13.013-13.013s5.826-13.013 13.013-13.013 13.013 5.826 13.013 13.013-5.826 13.013-13.013 13.013zm32.032-34.034c-7.187 0-13.013-5.826-13.013-13.013s5.826-13.013 13.013-13.013 13.013 5.826 13.013 13.013-5.826 13.013-13.013 13.013zm38.038-26.026c-7.187 0-13.013-5.826-13.013-13.013s5.826-13.013 13.013-13.013 13.013 5.826 13.013 13.013-5.826 13.013-13.013 13.013zm38.038-16.016c-7.187 0-13.013-5.826-13.013-13.013s5.826-13.013 13.013-13.013 13.013 5.826 13.013 13.013-5.826 13.013-13.013 13.013zm42.042-8.008c-7.187 0-13.013-5.826-13.013-13.013s5.826-13.013 13.013-13.013 13.013 5.826 13.013 13.013-5.826 13.013-13.013 13.013zm42.042 0c-7.187 0-13.013-5.826-13.013-13.013s5.826-13.013 13.013-13.013 13.013 5.826 13.013 13.013-5.826 13.013-13.013 13.013zm42.042 12.012c-7.187 0-13.013-5.826-13.013-13.013s5.826-13.013 13.013-13.013 13.013 5.826 13.013 13.013-5.826 13.013-13.013 13.013zm38.038 22.022c-7.187 0-13.013-5.826-13.013-13.013s5.826-13.013 13.013-13.013 13.013 5.826 13.013 13.013-5.826 13.013-13.013 13.013zm38.038 24.024c-7.187 0-13.013-5.826-13.013-13.013s5.826-13.013 13.013-13.013 13.013 5.826 13.013 13.013-5.826 13.013-13.013 13.013zm38.038 26.026c-7.187 0-13.013-5.826-13.013-13.013s5.826-13.013 13.013-13.013 13.013 5.826 13.013 13.013-5.826 13.013-13.013 13.013zm34.034 26.026c-7.186 0-13.013-5.826-13.013-13.013s5.827-13.013 13.013-13.013c7.187 0 13.013 5.826 13.013 13.013s-5.826 13.013-13.013 13.013zm569.158 65.637c-7.187 0-13.013-5.826-13.013-13.013 0-7.186 5.826-13.013 13.013-13.013s13.013 5.827 13.013 13.013c0 7.187-5.826 13.013-13.013 13.013zm-24.613-33.605c-7.187 0-13.013-5.826-13.013-13.013s5.826-13.013 13.013-13.013 13.013 5.826 13.013 13.013-5.826 13.013-13.013 13.013zm-32.032-36.036c-7.187 0-13.013-5.826-13.013-13.013s5.826-13.013 13.013-13.013 13.013 5.826 13.013 13.013-5.826 13.013-13.013 13.013zm-44.044-24.024c-7.187 0-13.013-5.826-13.013-13.013s5.826-13.013 13.013-13.013 13.013 5.826 13.013 13.013-5.826 13.013-13.013 13.013zm-46.046-10.01c-7.187 0-13.013-5.826-13.013-13.013s5.826-13.013 13.013-13.013 13.013 5.826 13.013 13.013-5.826 13.013-13.013 13.013zm-46.046 4.004c-7.187 0-13.013-5.826-13.013-13.013s5.826-13.013 13.013-13.013 13.013 5.826 13.013 13.013-5.826 13.013-13.013 13.013zm-42.042 20.02c-7.187 0-13.013-5.826-13.013-13.013s5.826-13.013 13.013-13.013 13.013 5.826 13.013 13.013-5.826 13.013-13.013 13.013zm-34.034 26.026c-7.187 0-13.013-5.826-13.013-13.013s5.826-13.013 13.013-13.013 13.013 5.826 13.013 13.013-5.826 13.013-13.013 13.013zm-34.034 30.03c-7.187 0-13.013-5.826-13.013-13.013s5.826-13.013 13.013-13.013 13.013 5.826 13.013 13.013-5.826 13.013-13.013 13.013zm-40.04 22.022c-7.187 0-13.013-5.826-13.013-13.013s5.826-13.013 13.013-13.013 13.013 5.826 13.013 13.013-5.826 13.013-13.013 13.013zm-40.04 12.012c-7.187 0-13.013-5.826-13.013-13.013s5.826-13.013 13.013-13.013c7.186 0 13.013 5.826 13.013 13.013s-5.827 13.013-13.013 13.013zm-44.044 4.004c-7.187 0-13.013-5.826-13.013-13.013s5.826-13.013 13.013-13.013c7.186 0 13.013 5.826 13.013 13.013s-5.827 13.013-13.013 13.013zm-40.04-4.004c-7.187 0-13.013-5.826-13.013-13.013s5.826-13.013 13.013-13.013c7.186 0 13.013 5.826 13.013 13.013s-5.827 13.013-13.013 13.013zm-42.043-16.016c-7.186 0-13.013-5.826-13.013-13.013s5.827-13.013 13.013-13.013c7.187 0 13.013 5.826 13.013 13.013s-5.826 13.013-13.013 13.013zm-34.034-26.026c-7.186 0-13.013-5.826-13.013-13.013s5.827-13.013 13.013-13.013c7.187 0 13.013 5.826 13.013 13.013s-5.826 13.013-13.013 13.013z" fill="url(#a)" transform="scale(-1 1) rotate(-6 -2558.147 19804.995)"/></g></svg>